<svg width="26" height="30" viewBox="0 0 26 30" fill="none" xmlns="http://www.w3.org/2000/svg">
<path d="M12.6656 14.6083C16.6632 14.6083 19.9031 11.3684 19.9031 7.37078C19.9031 3.3732 16.6632 0.133301 12.6656 0.133301C8.66801 0.133301 5.42811 3.3732 5.42811 7.37078C5.42811 11.3684 8.66801 14.6083 12.6656 14.6083ZM17.7318 16.4176H16.7876C15.5323 16.9944 14.1357 17.3223 12.6656 17.3223C11.1955 17.3223 9.80452 16.9944 8.54362 16.4176H7.59935C3.40388 16.4176 0 19.8215 0 24.017V26.3692C0 27.8675 1.21567 29.0832 2.71405 29.0832H22.6171C24.1155 29.0832 25.3312 27.8675 25.3312 26.3692V24.017C25.3312 19.8215 21.9273 16.4176 17.7318 16.4176Z" fill="black"/>
</svg>
