<svg width="29" height="29" viewBox="0 0 29 29" fill="none" xmlns="http://www.w3.org/2000/svg">
<path d="M23.0463 17.1612C23.0469 17.4353 22.9514 17.701 22.7766 17.9122C22.6782 18.031 22.5573 18.1292 22.4209 18.2012C22.2844 18.2732 22.1351 18.3175 21.9816 18.3317C21.828 18.3459 21.6731 18.3296 21.5258 18.2838C21.3786 18.238 21.2417 18.1635 21.1233 18.0647L14.8382 12.8077L8.54132 17.877C8.42137 17.9744 8.28336 18.0472 8.13522 18.0911C7.98707 18.1351 7.83172 18.1493 7.67807 18.1329C7.52443 18.1166 7.37553 18.07 7.23994 17.9958C7.10434 17.9217 6.98472 17.8215 6.88796 17.7009C6.78121 17.5795 6.70069 17.4374 6.65145 17.2833C6.60222 17.1293 6.58533 16.9667 6.60184 16.8059C6.61836 16.645 6.66792 16.4893 6.74743 16.3485C6.82693 16.2077 6.93466 16.0849 7.06385 15.9877L14.0994 10.32C14.3092 10.1474 14.5724 10.053 14.844 10.053C15.1156 10.053 15.3788 10.1474 15.5886 10.32L22.6242 16.1872C22.7661 16.3049 22.8783 16.4545 22.9516 16.6237C23.0249 16.7929 23.0574 16.977 23.0463 17.1612Z" fill="#231F20"/>
</svg>
