<svg width="16" height="18" viewBox="0 0 16 18" fill="none" xmlns="http://www.w3.org/2000/svg">
<path d="M3.16816 10.5001C3.16787 10.6754 3.21943 10.8452 3.31389 10.9801C3.36709 11.0561 3.43242 11.1189 3.50614 11.1649C3.57986 11.2109 3.66053 11.2392 3.74352 11.2483C3.82651 11.2574 3.9102 11.2469 3.98978 11.2177C4.06937 11.1884 4.1433 11.1408 4.20732 11.0776L7.60362 7.71765L11.0063 10.9576C11.0711 11.0199 11.1457 11.0665 11.2257 11.0945C11.3058 11.1226 11.3897 11.1317 11.4727 11.1212C11.5558 11.1108 11.6362 11.081 11.7095 11.0336C11.7828 10.9862 11.8474 10.9222 11.8997 10.8451C11.9574 10.7675 12.0009 10.6767 12.0275 10.5782C12.0541 10.4798 12.0632 10.3759 12.0543 10.2731C12.0454 10.1702 12.0186 10.0707 11.9756 9.98073C11.9327 9.89074 11.8745 9.81224 11.8046 9.75014L8.00282 6.12765C7.88944 6.01733 7.74722 5.95703 7.60046 5.95703C7.45369 5.95703 7.31147 6.01733 7.1981 6.12765L3.39627 9.87764C3.31959 9.95288 3.25897 10.0485 3.21934 10.1566C3.1797 10.2648 3.16217 10.3825 3.16816 10.5001Z" fill="#231F20"/>
</svg>
