<svg width="16" height="23" viewBox="0 0 16 23" fill="none" xmlns="http://www.w3.org/2000/svg">
<path d="M3.88788 9.3991C3.88759 9.17948 3.93916 8.96665 4.03362 8.79755C4.08681 8.70237 4.15214 8.6237 4.22586 8.56603C4.29959 8.50837 4.38025 8.47284 4.46324 8.46149C4.54624 8.45014 4.62992 8.46319 4.70951 8.49989C4.7891 8.53658 4.86302 8.59621 4.92705 8.67536L8.32335 12.8862L11.726 8.82574C11.7908 8.74767 11.8654 8.68936 11.9454 8.65418C12.0255 8.619 12.1094 8.60763 12.1925 8.62073C12.2755 8.63383 12.3559 8.67115 12.4292 8.73052C12.5025 8.7899 12.5671 8.87018 12.6194 8.96673C12.6771 9.06398 12.7206 9.17787 12.7472 9.30124C12.7738 9.42462 12.783 9.55482 12.774 9.68368C12.7651 9.81254 12.7383 9.93727 12.6954 10.05C12.6524 10.1628 12.5942 10.2612 12.5244 10.339L8.72254 14.8788C8.60916 15.0171 8.46695 15.0927 8.32018 15.0927C8.17342 15.0927 8.0312 15.0171 7.91782 14.8788L4.11599 10.1792C4.03931 10.0849 3.9787 9.96516 3.93906 9.82962C3.89943 9.69407 3.8819 9.54658 3.88788 9.3991Z" fill="#231F20"/>
</svg>
