<svg width="24" height="29" viewBox="0 0 24 29" fill="none" xmlns="http://www.w3.org/2000/svg">
<path d="M9.89958 23.0267C9.67997 23.0272 9.46714 22.93 9.29803 22.752C9.20286 22.6517 9.12419 22.5285 9.06652 22.3896C9.00885 22.2506 8.97333 22.0985 8.96198 21.9421C8.95063 21.7856 8.96368 21.6279 9.00037 21.4779C9.03707 21.3278 9.0967 21.1885 9.17584 21.0678L13.3867 14.6656L9.32623 8.2514C9.24816 8.12922 9.18985 7.98864 9.15467 7.83773C9.11949 7.68683 9.10812 7.52858 9.12122 7.37207C9.13432 7.21556 9.17163 7.06389 9.23101 6.92577C9.29039 6.78765 9.37067 6.6658 9.46722 6.56723C9.56447 6.45849 9.67836 6.37647 9.80173 6.32632C9.92511 6.27617 10.0553 6.25896 10.1842 6.27579C10.313 6.29261 10.4378 6.3431 10.5505 6.42408C10.6633 6.50507 10.7617 6.6148 10.8395 6.7464L15.3793 13.9131C15.5176 14.1268 15.5932 14.3949 15.5932 14.6715C15.5932 14.9482 15.5176 15.2163 15.3793 15.43L10.6797 22.5967C10.5854 22.7412 10.4657 22.8555 10.3301 22.9302C10.1946 23.0049 10.0471 23.038 9.89958 23.0267Z" fill="#231F20"/>
</svg>
