<svg width="25" height="27" viewBox="0 0 25 27" fill="none" xmlns="http://www.w3.org/2000/svg">
<path d="M17.474 4.71551L21.3889 9.25833C21.5538 9.44971 21.5538 9.76197 21.3889 9.95335L11.9097 20.9528L7.88194 21.4716C7.34375 21.5421 6.88802 21.0132 6.94878 20.3887L7.39583 15.715L16.875 4.71551C17.0399 4.52413 17.309 4.52413 17.474 4.71551ZM24.5052 3.56218L22.3872 1.10442C21.7274 0.338891 20.6554 0.338891 19.9913 1.10442L18.4549 2.8873C18.2899 3.07868 18.2899 3.39094 18.4549 3.58232L22.3698 8.12514C22.5347 8.31652 22.8038 8.31652 22.9688 8.12514L24.5052 6.34226C25.1649 5.57169 25.1649 4.32771 24.5052 3.56218ZM16.6667 17.9612V23.0882H2.77778V6.97181H12.7517C12.8906 6.97181 13.0208 6.90634 13.1207 6.79554L14.8568 4.78098C15.1866 4.39822 14.9523 3.74852 14.4878 3.74852H2.08333C0.93316 3.74852 0 4.83135 0 6.16599V23.8941C0 25.2287 0.93316 26.3115 2.08333 26.3115H17.3611C18.5113 26.3115 19.4444 25.2287 19.4444 23.8941V15.9466C19.4444 15.4078 18.8845 15.1408 18.5547 15.5186L16.8186 17.5331C16.7231 17.6489 16.6667 17.8 16.6667 17.9612Z" fill="white"/>
</svg>
