<svg width="29" height="23" viewBox="0 0 29 23" fill="none" xmlns="http://www.w3.org/2000/svg">
<path d="M6.63142 9.3991C6.63088 9.17948 6.72631 8.96665 6.90112 8.79755C6.99956 8.70237 7.12045 8.6237 7.25688 8.56603C7.39331 8.50837 7.54259 8.47284 7.69617 8.46149C7.84975 8.45014 8.00462 8.46319 8.1519 8.49989C8.29918 8.53658 8.43599 8.59621 8.55447 8.67536L14.8396 12.8862L21.1364 8.82574C21.2564 8.74767 21.3944 8.68936 21.5425 8.65418C21.6907 8.619 21.846 8.60763 21.9997 8.62073C22.1533 8.63383 22.3022 8.67115 22.4378 8.73052C22.5734 8.7899 22.693 8.87018 22.7898 8.96673C22.8965 9.06398 22.977 9.17787 23.0263 9.30124C23.0755 9.42462 23.0924 9.55482 23.0759 9.68368C23.0594 9.81254 23.0098 9.93727 22.9303 10.05C22.8508 10.1628 22.7431 10.2612 22.6139 10.339L15.5783 14.8788C15.3685 15.0171 15.1053 15.0927 14.8337 15.0927C14.5621 15.0927 14.2989 15.0171 14.0891 14.8788L7.05355 10.1792C6.91165 10.0849 6.79947 9.96516 6.72613 9.82962C6.65279 9.69407 6.62034 9.54658 6.63142 9.3991Z" fill="#231F20"/>
</svg>
