<svg width="25" height="27" viewBox="0 0 25 27" fill="none" xmlns="http://www.w3.org/2000/svg">
<path d="M0 24.1133C0 25.4477 1.19978 26.5303 2.67857 26.5303H22.3214C23.8002 26.5303 25 25.4477 25 24.1133V10.417H0V24.1133ZM17.8571 14.2439C17.8571 13.9116 18.1585 13.6396 18.5268 13.6396H20.7589C21.1272 13.6396 21.4286 13.9116 21.4286 14.2439V16.2581C21.4286 16.5904 21.1272 16.8623 20.7589 16.8623H18.5268C18.1585 16.8623 17.8571 16.5904 17.8571 16.2581V14.2439ZM17.8571 20.6892C17.8571 20.3569 18.1585 20.085 18.5268 20.085H20.7589C21.1272 20.085 21.4286 20.3569 21.4286 20.6892V22.7034C21.4286 23.0357 21.1272 23.3076 20.7589 23.3076H18.5268C18.1585 23.3076 17.8571 23.0357 17.8571 22.7034V20.6892ZM10.7143 14.2439C10.7143 13.9116 11.0156 13.6396 11.3839 13.6396H13.6161C13.9844 13.6396 14.2857 13.9116 14.2857 14.2439V16.2581C14.2857 16.5904 13.9844 16.8623 13.6161 16.8623H11.3839C11.0156 16.8623 10.7143 16.5904 10.7143 16.2581V14.2439ZM10.7143 20.6892C10.7143 20.3569 11.0156 20.085 11.3839 20.085H13.6161C13.9844 20.085 14.2857 20.3569 14.2857 20.6892V22.7034C14.2857 23.0357 13.9844 23.3076 13.6161 23.3076H11.3839C11.0156 23.3076 10.7143 23.0357 10.7143 22.7034V20.6892ZM3.57143 14.2439C3.57143 13.9116 3.87277 13.6396 4.24107 13.6396H6.47321C6.84152 13.6396 7.14286 13.9116 7.14286 14.2439V16.2581C7.14286 16.5904 6.84152 16.8623 6.47321 16.8623H4.24107C3.87277 16.8623 3.57143 16.5904 3.57143 16.2581V14.2439ZM3.57143 20.6892C3.57143 20.3569 3.87277 20.085 4.24107 20.085H6.47321C6.84152 20.085 7.14286 20.3569 7.14286 20.6892V22.7034C7.14286 23.0357 6.84152 23.3076 6.47321 23.3076H4.24107C3.87277 23.3076 3.57143 23.0357 3.57143 22.7034V20.6892ZM22.3214 3.97168H19.6429V1.55469C19.6429 1.11157 19.2411 0.749023 18.75 0.749023H16.9643C16.4732 0.749023 16.0714 1.11157 16.0714 1.55469V3.97168H8.92857V1.55469C8.92857 1.11157 8.52679 0.749023 8.03571 0.749023H6.25C5.75893 0.749023 5.35714 1.11157 5.35714 1.55469V3.97168H2.67857C1.19978 3.97168 0 5.05429 0 6.38867V8.80566H25V6.38867C25 5.05429 23.8002 3.97168 22.3214 3.97168Z" fill="white"/>
</svg>
