<svg width="21" height="24" viewBox="0 0 21 24" fill="none" xmlns="http://www.w3.org/2000/svg">
<path d="M4.25 3.42857V19.1429H11.75V3.42857H4.25ZM3.625 2H12.375C12.5408 2 12.6997 2.07525 12.8169 2.20921C12.9342 2.34316 13 2.52485 13 2.71429V19.8571C13 20.0466 12.9342 20.2283 12.8169 20.3622C12.6997 20.4962 12.5408 20.5714 12.375 20.5714H3.625C3.45924 20.5714 3.30027 20.4962 3.18306 20.3622C3.06585 20.2283 3 20.0466 3 19.8571V2.71429C3 2.52485 3.06585 2.34316 3.18306 2.20921C3.30027 2.07525 3.45924 2 3.625 2Z" fill="white"/>
<path d="M5.5 6.28589H10.5V7.71446H5.5V6.28589ZM5.5 10.5716H10.5V12.0002H5.5V10.5716ZM5.5 14.8573H10.5V16.2859H5.5V14.8573ZM13 12.0002H15.5V13.4287H13V12.0002ZM13 14.8573H15.5V16.2859H13V14.8573ZM1.75 19.143H19.25V20.5716H1.75V19.143Z" fill="white"/>
<path d="M13 9.14293V19.1429H16.75V9.14293H13ZM12.375 7.71436H17.375C17.5408 7.71436 17.6997 7.78961 17.8169 7.92357C17.9342 8.05752 18 8.2392 18 8.42864V19.8572C18 20.0467 17.9342 20.2283 17.8169 20.3623C17.6997 20.4962 17.5408 20.5715 17.375 20.5715H12.375C12.2092 20.5715 12.0503 20.4962 11.9331 20.3623C11.8158 20.2283 11.75 20.0467 11.75 19.8572V8.42864C11.75 8.2392 11.8158 8.05752 11.9331 7.92357C12.0503 7.78961 12.2092 7.71436 12.375 7.71436Z" fill="white"/>
</svg>
