<svg width="24" height="29" viewBox="0 0 24 29" fill="none" xmlns="http://www.w3.org/2000/svg">
<path d="M14.1004 6.30658C14.32 6.30603 14.5329 6.40323 14.702 6.5813C14.7971 6.68157 14.8758 6.80472 14.9335 6.94369C14.9911 7.08266 15.0267 7.23472 15.038 7.39117C15.0494 7.54761 15.0363 7.70536 14.9996 7.85539C14.9629 8.00542 14.9033 8.14477 14.8242 8.26547L10.6133 14.6677L14.6738 21.0819C14.7518 21.204 14.8101 21.3446 14.8453 21.4955C14.8805 21.6464 14.8919 21.8047 14.8788 21.9612C14.8657 22.1177 14.8284 22.2694 14.769 22.4075C14.7096 22.5456 14.6293 22.6675 14.5328 22.766C14.4355 22.8748 14.3216 22.9568 14.1983 23.0069C14.0749 23.0571 13.9447 23.0743 13.8158 23.0575C13.687 23.0406 13.5622 22.9902 13.4495 22.9092C13.3367 22.8282 13.2383 22.7184 13.1605 22.5869L8.62067 15.4202C8.48242 15.2065 8.40685 14.9384 8.40685 14.6617C8.40685 14.3851 8.48242 14.117 8.62067 13.9032L13.3203 6.73658C13.4146 6.59203 13.5343 6.47776 13.6699 6.40305C13.8054 6.32834 13.9529 6.29529 14.1004 6.30658Z" fill="#130E0F"/>
</svg>
