<svg width="144" height="135" viewBox="0 0 144 135" fill="none" xmlns="http://www.w3.org/2000/svg">
<path d="M115.438 116.647H29.4565C18.9477 116.647 10.3496 108.612 10.3496 98.7914V36.2971C10.3496 26.4766 18.9477 18.4417 29.4565 18.4417H115.438C125.946 18.4417 134.545 26.4766 134.545 36.2971V98.7914C134.545 108.612 125.946 116.647 115.438 116.647Z" fill="#D2D5D6" stroke="#FAFAFA" stroke-width="2" stroke-miterlimit="10" stroke-linecap="round" stroke-linejoin="round"/>
<path d="M115.438 116.647H29.4565C18.9477 116.647 10.3496 108.612 10.3496 98.7914V36.2971C10.3496 26.4766 18.9477 18.4417 29.4565 18.4417H115.438C125.946 18.4417 134.545 26.4766 134.545 36.2971V98.7914C134.545 108.612 125.946 116.647 115.438 116.647Z" fill="#F0F0F0" stroke="#E6E6E6" stroke-width="2" stroke-miterlimit="10" stroke-linecap="round" stroke-linejoin="round"/>
<path d="M29.4565 116.647H115.438C125.946 116.647 134.545 108.612 134.545 98.7913V67.5442L115.438 49.6887L65.7597 92.5419L43.7867 72.0081L10.3496 100.577C11.7826 109.505 19.4254 116.647 29.4565 116.647Z" fill="#D6D6D6" stroke="#D4D4D4" stroke-width="2" stroke-miterlimit="10" stroke-linecap="round" stroke-linejoin="round"/>
<path d="M34.2331 54.1526C39.5094 54.1526 43.7866 50.1555 43.7866 45.2249C43.7866 40.2942 39.5094 36.2971 34.2331 36.2971C28.9569 36.2971 24.6797 40.2942 24.6797 45.2249C24.6797 50.1555 28.9569 54.1526 34.2331 54.1526Z" fill="#E6E6E6" stroke="#CCCCCC" stroke-width="2" stroke-miterlimit="10" stroke-linecap="round" stroke-linejoin="round"/>
</svg>
