<svg width="44" height="38" viewBox="0 0 44 38" fill="none" xmlns="http://www.w3.org/2000/svg">
<ellipse cx="22" cy="18.6667" rx="22" ry="18.5" fill="url(#paint0_linear_486_7477)"/>
<path d="M27.8636 10.7735L31.7785 14.6884C31.9435 14.8534 31.9435 15.1225 31.7785 15.2874L22.2994 24.7666L18.2716 25.2136C17.7334 25.2744 17.2777 24.8187 17.3384 24.2805L17.7855 20.2527L27.2646 10.7735C27.4296 10.6086 27.6987 10.6086 27.8636 10.7735ZM34.8949 9.7796L32.7768 7.66154C32.1171 7.00182 31.045 7.00182 30.381 7.66154L28.8445 9.198C28.6796 9.36293 28.6796 9.63203 28.8445 9.79696L32.7594 13.7119C32.9244 13.8768 33.1935 13.8768 33.3584 13.7119L34.8949 12.1754C35.5546 11.5114 35.5546 10.4393 34.8949 9.7796ZM27.0563 22.1885V26.6069H13.1674V12.718H23.1414C23.2803 12.718 23.4105 12.6615 23.5103 12.5661L25.2464 10.8299C25.5763 10.5001 25.3419 9.94019 24.8775 9.94019H12.473C11.3228 9.94019 10.3896 10.8733 10.3896 12.0235V27.3013C10.3896 28.4515 11.3228 29.3846 12.473 29.3846H27.7508C28.9009 29.3846 29.8341 28.4515 29.8341 27.3013V20.4523C29.8341 19.9879 29.2742 19.7579 28.9443 20.0834L27.2082 21.8195C27.1127 21.9194 27.0563 22.0496 27.0563 22.1885Z" fill="black"/>
<defs>
<linearGradient id="paint0_linear_486_7477" x1="22" y1="0.166748" x2="22" y2="37.1667" gradientUnits="userSpaceOnUse">
<stop stop-color="#FB793D"/>
<stop offset="1" stop-color="#FB793D" stop-opacity="0.19"/>
</linearGradient>
</defs>
</svg>
