<svg width="71" height="60" viewBox="0 0 71 60" fill="none" xmlns="http://www.w3.org/2000/svg">
<ellipse cx="35.5" cy="29.9318" rx="35" ry="29.4318" fill="url(#paint0_linear_486_5461)"/>
<path d="M15.5 43.5329C15.5 45.3624 17.4087 46.8466 19.7614 46.8466H51.0114C53.364 46.8466 55.2727 45.3624 55.2727 43.5329V24.755H15.5V43.5329ZM43.9091 30.0018C43.9091 29.5461 44.3885 29.1733 44.9744 29.1733H48.5256C49.1115 29.1733 49.5909 29.5461 49.5909 30.0018V32.7632C49.5909 33.2188 49.1115 33.5916 48.5256 33.5916H44.9744C44.3885 33.5916 43.9091 33.2188 43.9091 32.7632V30.0018ZM43.9091 38.8384C43.9091 38.3828 44.3885 38.01 44.9744 38.01H48.5256C49.1115 38.01 49.5909 38.3828 49.5909 38.8384V41.5999C49.5909 42.0555 49.1115 42.4283 48.5256 42.4283H44.9744C44.3885 42.4283 43.9091 42.0555 43.9091 41.5999V38.8384ZM32.5455 30.0018C32.5455 29.5461 33.0249 29.1733 33.6108 29.1733H37.1619C37.7479 29.1733 38.2273 29.5461 38.2273 30.0018V32.7632C38.2273 33.2188 37.7479 33.5916 37.1619 33.5916H33.6108C33.0249 33.5916 32.5455 33.2188 32.5455 32.7632V30.0018ZM32.5455 38.8384C32.5455 38.3828 33.0249 38.01 33.6108 38.01H37.1619C37.7479 38.01 38.2273 38.3828 38.2273 38.8384V41.5999C38.2273 42.0555 37.7479 42.4283 37.1619 42.4283H33.6108C33.0249 42.4283 32.5455 42.0555 32.5455 41.5999V38.8384ZM21.1818 30.0018C21.1818 29.5461 21.6612 29.1733 22.2472 29.1733H25.7983C26.3842 29.1733 26.8636 29.5461 26.8636 30.0018V32.7632C26.8636 33.2188 26.3842 33.5916 25.7983 33.5916H22.2472C21.6612 33.5916 21.1818 33.2188 21.1818 32.7632V30.0018ZM21.1818 38.8384C21.1818 38.3828 21.6612 38.01 22.2472 38.01H25.7983C26.3842 38.01 26.8636 38.3828 26.8636 38.8384V41.5999C26.8636 42.0555 26.3842 42.4283 25.7983 42.4283H22.2472C21.6612 42.4283 21.1818 42.0555 21.1818 41.5999V38.8384ZM51.0114 15.9183H46.75V12.6046C46.75 11.9971 46.1108 11.5 45.3295 11.5H42.4886C41.7074 11.5 41.0682 11.9971 41.0682 12.6046V15.9183H29.7045V12.6046C29.7045 11.9971 29.0653 11.5 28.2841 11.5H25.4432C24.6619 11.5 24.0227 11.9971 24.0227 12.6046V15.9183H19.7614C17.4087 15.9183 15.5 17.4026 15.5 19.2321V22.5458H55.2727V19.2321C55.2727 17.4026 53.364 15.9183 51.0114 15.9183Z" fill="black"/>
<defs>
<linearGradient id="paint0_linear_486_5461" x1="35.5" y1="0.5" x2="35.5" y2="59.3636" gradientUnits="userSpaceOnUse">
<stop stop-color="#FB793D"/>
<stop offset="1" stop-color="#FB793D" stop-opacity="0.19"/>
</linearGradient>
</defs>
</svg>
