<svg width="70" height="59" viewBox="0 0 70 59" fill="none" xmlns="http://www.w3.org/2000/svg">
<ellipse cx="35" cy="29.4318" rx="35" ry="29.4318" fill="url(#paint0_linear_486_7211)"/>
<path d="M53.6385 35.9772L44.938 32.6634C44.5664 32.5226 44.1533 32.4929 43.761 32.5789C43.3687 32.6648 43.0185 32.8616 42.7629 33.1397L38.9099 37.3234C32.8629 34.7896 27.9964 30.4647 25.1453 25.0906L29.8529 21.6664C30.1665 21.4397 30.3884 21.1284 30.4851 20.7796C30.5819 20.4308 30.5481 20.0635 30.3889 19.7333L26.6601 12.0011C26.4854 11.6452 26.1765 11.3545 25.7865 11.1794C25.3965 11.0042 24.95 10.9554 24.5239 11.0415L16.4449 12.6984C16.0341 12.7827 15.6676 12.9883 15.4051 13.2815C15.1427 13.5748 14.9999 13.9385 15 14.3132C15 32.0213 31.1502 46.3466 51.0447 46.3466C51.4664 46.3469 51.8758 46.22 52.206 45.9868C52.5361 45.7536 52.7675 45.4277 52.8624 45.0625L54.7268 37.8826C54.823 37.5021 54.767 37.1037 54.5684 36.7559C54.3697 36.4081 54.0409 36.1328 53.6385 35.9772Z" fill="black"/>
<defs>
<linearGradient id="paint0_linear_486_7211" x1="35" y1="0" x2="35" y2="58.8636" gradientUnits="userSpaceOnUse">
<stop stop-color="#FB793D"/>
<stop offset="1" stop-color="#FB793D" stop-opacity="0.19"/>
</linearGradient>
</defs>
</svg>
