<svg width="99" height="92" viewBox="0 0 99 92" fill="none" xmlns="http://www.w3.org/2000/svg">
<ellipse cx="49.5" cy="46" rx="49" ry="46" fill="#5488A1"/>
<path d="M65.6071 43.25H63.4107V37.0625C63.4107 29.8609 57.1692 24 49.5 24C41.8308 24 35.5893 29.8609 35.5893 37.0625V43.25H33.3929C30.9676 43.25 29 45.0977 29 47.375V63.875C29 66.1523 30.9676 68 33.3929 68H65.6071C68.0324 68 70 66.1523 70 63.875V47.375C70 45.0977 68.0324 43.25 65.6071 43.25ZM56.0893 43.25H42.9107V37.0625C42.9107 33.6508 45.8667 30.875 49.5 30.875C53.1333 30.875 56.0893 33.6508 56.0893 37.0625V43.25Z" fill="#F7F7F7"/>
</svg>
