<svg width="98" height="93" viewBox="0 0 98 93" fill="none" xmlns="http://www.w3.org/2000/svg">
<ellipse cx="49" cy="46.5" rx="49" ry="46" fill="#5488A1"/>
<path d="M47.5182 53.9214C49.0296 54.5714 50.4096 55.4357 51.6516 56.5107C52.8936 57.5821 53.9549 58.8321 54.8387 60.2464C56.6414 63.1002 57.6123 66.4776 57.625 69.9393V71.5H54.75V69.9357C54.7562 68.0886 54.4238 66.2587 53.7722 64.5528C53.1206 62.8469 52.1629 61.2992 50.955 60C49.7694 58.7296 48.3752 57.712 46.8446 57C45.2539 56.2592 43.5415 55.8765 41.8109 55.875C40.1116 55.8683 38.4281 56.2296 36.8587 56.9379C35.2892 57.6461 33.8653 58.6871 32.67 60C31.5016 61.289 30.5655 62.8044 29.91 64.4679C29.2332 66.1607 28.8915 67.9857 28.8751 69.9357V71.5H26.0001V69.9357C25.9916 66.4716 26.9645 63.0887 28.7863 60.2464C30.601 57.4007 33.149 55.2014 36.1102 53.925C35.4375 53.4226 34.8249 52.8311 34.2866 52.1643C33.7547 51.5078 33.2949 50.7863 32.9165 50.0143C32.5395 49.2429 32.2526 48.4235 32.0622 47.575C31.868 46.7106 31.7633 45.8254 31.75 44.9357C31.75 43.425 32.0129 42.0071 32.5386 40.6893C33.5666 38.0783 35.4797 35.9975 37.8812 34.8786C39.1201 34.3053 40.4522 34.0077 41.7987 34.0034C43.1452 33.9991 44.4789 34.2882 45.7209 34.8536C48.1236 35.9718 50.038 38.0526 51.0667 40.6643C51.9175 42.8389 52.0985 45.2544 51.5826 47.55C51.3855 48.3964 51.0963 49.2107 50.7086 49.9929C50.3234 50.767 49.8641 51.4948 49.3385 52.1643C48.8127 52.8321 48.2049 53.4143 47.5182 53.9214ZM41.8109 52.75C42.7999 52.75 43.7297 52.5464 44.5972 52.1429C46.317 51.3485 47.6859 49.8594 48.4152 47.9893C48.8062 47.0286 49 46.0107 49 44.9393C49.0042 43.9166 48.8194 42.9034 48.4565 41.9598C48.0936 41.0163 47.5599 40.1615 46.8873 39.4464C46.222 38.7413 45.4465 38.1705 44.5972 37.7607C43.7208 37.3352 42.7707 37.1185 41.8109 37.125C40.8252 37.125 39.8953 37.3286 39.0279 37.7321C37.2986 38.5339 35.9212 40.031 35.1836 41.9107C34.8123 42.8536 34.625 43.8643 34.625 44.9393C34.625 46.0107 34.8123 47.0214 35.1836 47.9643C35.5615 48.9071 36.0708 49.7393 36.7148 50.4536C37.3814 51.1859 38.1759 51.7662 39.0515 52.1605C39.9272 52.5548 40.8664 52.7552 41.8142 52.75H41.8109ZM72 21.5V46.5H66.25L57.625 55.875V46.5H54.75V43.375H60.5V48.3321L65.0606 43.375H69.125V24.625H40.375V30.2393C39.8931 30.3055 39.4132 30.3877 38.9359 30.4857C38.4465 30.5867 37.9661 30.7337 37.5 30.925V21.5H72Z" fill="#F7F7F7"/>
</svg>
