<svg width="105" height="99" viewBox="0 0 105 99" fill="none" xmlns="http://www.w3.org/2000/svg">
<path d="M49.2454 0.857422C22.3715 0.857422 0.597656 20.6155 0.597656 45.0016C0.597656 69.3876 22.3715 89.1457 49.2454 89.1457C76.1194 89.1457 97.8932 69.3876 97.8932 45.0016C97.8932 20.6155 76.1194 0.857422 49.2454 0.857422ZM49.2454 17.9455C58.7788 17.9455 66.5075 24.9587 66.5075 33.6095C66.5075 42.2604 58.7788 49.2736 49.2454 49.2736C39.712 49.2736 31.9833 42.2604 31.9833 33.6095C31.9833 24.9587 39.712 17.9455 49.2454 17.9455ZM49.2454 79.1777C37.7308 79.1777 27.4128 74.4429 20.5079 67.038C24.1957 60.7368 31.4144 56.3936 39.8297 56.3936C40.3005 56.3936 40.7713 56.4648 41.2225 56.5894C43.7725 57.337 46.4403 57.8176 49.2454 57.8176C52.0505 57.8176 54.7379 57.337 57.2684 56.5894C57.7195 56.4648 58.1903 56.3936 58.6611 56.3936C67.0764 56.3936 74.2951 60.7368 77.9829 67.038C71.0781 74.4429 60.76 79.1777 49.2454 79.1777Z" fill="#214151"/>
<path d="M103.902 82.2731C103.902 91.1137 96.0221 98.3577 86.202 98.3577C76.3818 98.3577 68.502 91.1137 68.502 82.2731C68.502 73.4325 76.3818 66.1885 86.202 66.1885C96.0221 66.1885 103.902 73.4325 103.902 82.2731Z" fill="#F0F0F0" stroke="#214151"/>
<path d="M97.2102 76.01H94.0655L93.3164 73.7534C93.2646 73.599 93.1698 73.4655 93.0448 73.3712C92.9198 73.2769 92.7708 73.2264 92.6181 73.2266H85.524C85.2119 73.2266 84.9321 73.4378 84.828 73.7534L84.0765 76.01H80.9318C79.9098 76.01 79.082 76.8997 79.082 77.9982V89.3307C79.082 90.4292 79.9098 91.3189 80.9318 91.3189H97.2102C98.2323 91.3189 99.06 90.4292 99.06 89.3307V77.9982C99.06 76.8997 98.2323 76.01 97.2102 76.01ZM97.3952 89.3307C97.3952 89.4401 97.312 89.5295 97.2102 89.5295H80.9318C80.8301 89.5295 80.7469 89.4401 80.7469 89.3307V77.9982C80.7469 77.8888 80.8301 77.7993 80.9318 77.7993H85.2489L85.6443 76.6114L86.1738 75.0159H91.966L92.4955 76.6114L92.8909 77.7993H97.2102C97.312 77.7993 97.3952 77.8888 97.3952 77.9982V89.3307ZM89.071 79.3899C87.027 79.3899 85.3714 81.1693 85.3714 83.3662C85.3714 85.5631 87.027 87.3425 89.071 87.3425C91.1151 87.3425 92.7707 85.5631 92.7707 83.3662C92.7707 81.1693 91.1151 79.3899 89.071 79.3899ZM89.071 85.752C87.8455 85.752 86.8513 84.6834 86.8513 83.3662C86.8513 82.049 87.8455 80.9804 89.071 80.9804C90.2965 80.9804 91.2908 82.049 91.2908 83.3662C91.2908 84.6834 90.2965 85.752 89.071 85.752Z" fill="#214151"/>
</svg>
