<svg width="44" height="38" viewBox="0 0 44 38" fill="none" xmlns="http://www.w3.org/2000/svg">
<ellipse cx="22" cy="18.6667" rx="22" ry="18.5" fill="url(#paint0_linear_486_7458)"/>
<path d="M33 17.3334C33 16.4309 32.5054 15.6513 31.7778 15.2281V9.38935C31.7778 9.05515 31.5112 8.16675 30.5556 8.16675C30.2836 8.16675 30.0136 8.25765 29.7924 8.43487L26.5448 11.0332C24.9135 12.3372 22.8655 13.0556 20.7778 13.0556H13.4444C12.0943 13.0556 11 14.1499 11 15.5001V19.1667C11 20.5169 12.0943 21.6112 13.4444 21.6112H14.7316C14.6785 22.0115 14.6483 22.4186 14.6483 22.8334C14.6483 24.3524 15.002 25.7878 15.6246 27.0707C15.8228 27.479 16.2556 27.7223 16.7093 27.7223H19.5464C20.5414 27.7223 21.1387 26.5826 20.5356 25.7912C19.9092 24.9692 19.5368 23.9441 19.5368 22.8334C19.5368 22.4091 19.5987 22.0012 19.7053 21.6112H20.7778C22.8655 21.6112 24.9135 22.3296 26.5444 23.6336L29.792 26.232C30.0087 26.4053 30.2778 26.4998 30.5552 26.5001C31.507 26.5001 31.7774 25.63 31.7774 25.2779V19.4391C32.5054 19.0155 33 18.2359 33 17.3334ZM29.3333 22.7349L28.071 21.725C26.0085 20.075 23.4178 19.1667 20.7778 19.1667V15.5001C23.4178 15.5001 26.0085 14.5918 28.071 12.9418L29.3333 11.932V22.7349Z" fill="black"/>
<defs>
<linearGradient id="paint0_linear_486_7458" x1="22" y1="0.166748" x2="22" y2="37.1667" gradientUnits="userSpaceOnUse">
<stop stop-color="#FB793D"/>
<stop offset="1" stop-color="#FB793D" stop-opacity="0.19"/>
</linearGradient>
</defs>
</svg>
