<svg width="170" height="171" viewBox="0 0 170 171" fill="none" xmlns="http://www.w3.org/2000/svg">
<circle cx="85" cy="85.5" r="85" fill="#FF1F00"/>
<path d="M122.488 98.716L95.2616 61.616C94.1607 60.2009 92.6439 59.0363 90.851 58.2296C89.0581 57.4228 87.0469 57 85.0028 57C82.9587 57 80.9475 57.4228 79.1546 58.2296C77.3617 59.0363 75.8449 60.2009 74.744 61.616L47.5172 98.716C46.5554 100.033 46.0326 101.535 46.0015 103.071C45.9703 104.607 46.4319 106.123 47.3397 107.466C48.3893 108.978 49.9085 110.233 51.7421 111.104C53.5757 111.975 55.658 112.431 57.776 112.424H112.23C114.334 112.443 116.407 112.005 118.239 111.155C120.071 110.305 121.598 109.073 122.666 107.583C123.6 106.226 124.077 104.688 124.045 103.129C124.014 101.571 123.477 100.047 122.488 98.716ZM85.0028 100.758C84.3007 100.758 83.6144 100.587 83.0307 100.266C82.4469 99.9456 81.9919 99.4901 81.7232 98.9571C81.4546 98.4242 81.3843 97.8377 81.5212 97.272C81.6582 96.7062 81.9963 96.1865 82.4927 95.7786C82.9892 95.3707 83.6217 95.0929 84.3103 94.9804C84.9989 94.8678 85.7126 94.9256 86.3612 95.1463C87.0099 95.3671 87.5643 95.7409 87.9543 96.2206C88.3444 96.7002 88.5526 97.2641 88.5526 97.841C88.5526 98.6145 88.1786 99.3564 87.5129 99.9034C86.8472 100.45 85.9443 100.758 85.0028 100.758ZM88.5526 89.091C88.5526 89.8645 88.1786 90.6064 87.5129 91.1534C86.8472 91.7004 85.9443 92.0077 85.0028 92.0077C84.0613 92.0077 83.1584 91.7004 82.4927 91.1534C81.827 90.6064 81.453 89.8645 81.453 89.091V77.4243C81.453 76.6508 81.827 75.9089 82.4927 75.3619C83.1584 74.8149 84.0613 74.5077 85.0028 74.5077C85.9443 74.5077 86.8472 74.8149 87.5129 75.3619C88.1786 75.9089 88.5526 76.6508 88.5526 77.4243V89.091Z" fill="white"/>
</svg>
