<svg width="489" height="38" viewBox="0 0 489 38" fill="none" xmlns="http://www.w3.org/2000/svg">
<rect x="0.5" y="0.5" width="488" height="37" rx="9.5" fill="white" stroke="#75BEE0"/>
<path d="M455.829 18.3992C455.828 18.1796 455.945 17.9668 456.158 17.7977C456.279 17.7025 456.426 17.6238 456.593 17.5662C456.76 17.5085 456.942 17.473 457.13 17.4616C457.318 17.4503 457.507 17.4633 457.687 17.5C457.867 17.5367 458.035 17.5963 458.18 17.6755L465.863 21.8863L473.561 17.8259C473.708 17.7478 473.876 17.6895 474.057 17.6543C474.239 17.6191 474.428 17.6078 474.616 17.6209C474.804 17.634 474.986 17.6713 475.152 17.7306C475.318 17.79 475.464 17.8703 475.582 17.9669C475.713 18.0641 475.811 18.178 475.871 18.3014C475.931 18.4247 475.952 18.5549 475.932 18.6838C475.912 18.8127 475.851 18.9374 475.754 19.0502C475.657 19.1629 475.525 19.2613 475.367 19.3391L466.766 23.879C466.51 24.0172 466.188 24.0928 465.856 24.0928C465.524 24.0928 465.202 24.0172 464.946 23.879L456.345 19.1794C456.171 19.0851 456.034 18.9653 455.944 18.8297C455.855 18.6942 455.815 18.5467 455.829 18.3992Z" fill="#231F20"/>
</svg>
