<svg width="71" height="60" viewBox="0 0 71 60" fill="none" xmlns="http://www.w3.org/2000/svg">
<ellipse cx="35.5" cy="29.9318" rx="35" ry="29.4318" fill="url(#paint0_linear_486_5443)"/>
<path d="M44.8283 17.3745L51.0566 23.6028C51.319 23.8652 51.319 24.2933 51.0566 24.5557L35.9761 39.6362L29.5683 40.3474C28.712 40.4441 27.987 39.7191 28.0837 38.8628L28.7949 32.455L43.8754 17.3745C44.1378 17.1121 44.5659 17.1121 44.8283 17.3745ZM56.0144 15.7933L52.6447 12.4236C51.5952 11.3741 49.8896 11.3741 48.8332 12.4236L46.3888 14.868C46.1264 15.1304 46.1264 15.5585 46.3888 15.8209L52.6171 22.0492C52.8795 22.3116 53.3076 22.3116 53.57 22.0492L56.0144 19.6048C57.0639 18.5484 57.0639 16.8428 56.0144 15.7933ZM43.544 35.5346V42.5639H21.448V20.468H37.3157C37.5366 20.468 37.7438 20.3782 37.9026 20.2263L40.6646 17.4643C41.1894 16.9395 40.8165 16.0488 40.0777 16.0488H20.3432C18.5134 16.0488 17.0288 17.5333 17.0288 19.3632V43.6687C17.0288 45.4985 18.5134 46.9831 20.3432 46.9831H44.6488C46.4786 46.9831 47.9632 45.4985 47.9632 43.6687V32.7726C47.9632 32.0338 47.0724 31.6678 46.5476 32.1857L43.7856 34.9477C43.6337 35.1065 43.544 35.3137 43.544 35.5346Z" fill="black"/>
<defs>
<linearGradient id="paint0_linear_486_5443" x1="35.5" y1="0.5" x2="35.5" y2="59.3636" gradientUnits="userSpaceOnUse">
<stop stop-color="#FB793D"/>
<stop offset="1" stop-color="#FB793D" stop-opacity="0.19"/>
</linearGradient>
</defs>
</svg>
