<svg width="72" height="65" viewBox="0 0 72 65" fill="none" xmlns="http://www.w3.org/2000/svg">
<path d="M0.173828 10.5024C0.173828 4.9796 4.65098 0.502441 10.1738 0.502441H61.8248C67.3476 0.502441 71.8248 4.97959 71.8248 10.5024V54.7276C71.8248 60.2504 67.3476 64.7276 61.8248 64.7276H10.1738C4.65099 64.7276 0.173828 60.2504 0.173828 54.7276V10.5024Z" fill="#4E7E95"/>
<path d="M48.2469 23.7329H42.7634V21.1707C42.7634 20.0381 42.282 18.952 41.4251 18.1511C40.5681 17.3503 39.4058 16.9004 38.1939 16.9004H32.7104C31.4985 16.9004 30.3362 17.3503 29.4792 18.1511C28.6222 18.952 28.1408 20.0381 28.1408 21.1707V23.7329H22.6573C21.203 23.7329 19.8083 24.2727 18.7799 25.2337C17.7516 26.1947 17.1738 27.4981 17.1738 28.8572V42.5221C17.1738 43.8812 17.7516 45.1846 18.7799 46.1456C19.8083 47.1066 21.203 47.6465 22.6573 47.6465H48.2469C49.7013 47.6465 51.096 47.1066 52.1244 46.1456C53.1527 45.1846 53.7304 43.8812 53.7304 42.5221V28.8572C53.7304 27.4981 53.1527 26.1947 52.1244 25.2337C51.096 24.2727 49.7013 23.7329 48.2469 23.7329ZM31.7965 21.1707C31.7965 20.9442 31.8928 20.7269 32.0641 20.5668C32.2355 20.4066 32.468 20.3166 32.7104 20.3166H38.1939C38.4363 20.3166 38.6687 20.4066 38.8401 20.5668C39.0115 20.7269 39.1078 20.9442 39.1078 21.1707V23.7329H31.7965V21.1707ZM35.4521 41.6681C34.1868 41.6681 32.95 41.3174 31.8979 40.6605C30.8459 40.0036 30.0259 39.0699 29.5417 37.9775C29.0575 36.8851 28.9308 35.683 29.1776 34.5233C29.4245 33.3636 30.0338 32.2984 30.9285 31.4623C31.8232 30.6262 32.9631 30.0568 34.2041 29.8261C35.445 29.5954 36.7313 29.7138 37.9003 30.1663C39.0693 30.6188 40.0684 31.3851 40.7714 32.3682C41.4743 33.3514 41.8495 34.5072 41.8495 35.6897C41.8495 37.2752 41.1755 38.7959 39.9758 39.917C38.776 41.0382 37.1488 41.6681 35.4521 41.6681Z" fill="white"/>
</svg>
