<svg width="45" height="38" viewBox="0 0 45 38" fill="none" xmlns="http://www.w3.org/2000/svg">
<ellipse cx="22.5" cy="18.6667" rx="22" ry="18.5" fill="url(#paint0_linear_486_7471)"/>
<path d="M13.5 26.8096C13.5 27.8743 14.3638 28.7382 15.4286 28.7382H29.5714C30.6362 28.7382 31.5 27.8743 31.5 26.8096V15.881H13.5V26.8096ZM26.3571 18.9346C26.3571 18.6694 26.5741 18.4525 26.8393 18.4525H28.4464C28.7116 18.4525 28.9286 18.6694 28.9286 18.9346V20.5417C28.9286 20.8069 28.7116 21.0239 28.4464 21.0239H26.8393C26.5741 21.0239 26.3571 20.8069 26.3571 20.5417V18.9346ZM26.3571 24.0775C26.3571 23.8123 26.5741 23.5953 26.8393 23.5953H28.4464C28.7116 23.5953 28.9286 23.8123 28.9286 24.0775V25.6846C28.9286 25.9498 28.7116 26.1667 28.4464 26.1667H26.8393C26.5741 26.1667 26.3571 25.9498 26.3571 25.6846V24.0775ZM21.2143 18.9346C21.2143 18.6694 21.4313 18.4525 21.6964 18.4525H23.3036C23.5687 18.4525 23.7857 18.6694 23.7857 18.9346V20.5417C23.7857 20.8069 23.5687 21.0239 23.3036 21.0239H21.6964C21.4313 21.0239 21.2143 20.8069 21.2143 20.5417V18.9346ZM21.2143 24.0775C21.2143 23.8123 21.4313 23.5953 21.6964 23.5953H23.3036C23.5687 23.5953 23.7857 23.8123 23.7857 24.0775V25.6846C23.7857 25.9498 23.5687 26.1667 23.3036 26.1667H21.6964C21.4313 26.1667 21.2143 25.9498 21.2143 25.6846V24.0775ZM16.0714 18.9346C16.0714 18.6694 16.2884 18.4525 16.5536 18.4525H18.1607C18.4259 18.4525 18.6429 18.6694 18.6429 18.9346V20.5417C18.6429 20.8069 18.4259 21.0239 18.1607 21.0239H16.5536C16.2884 21.0239 16.0714 20.8069 16.0714 20.5417V18.9346ZM16.0714 24.0775C16.0714 23.8123 16.2884 23.5953 16.5536 23.5953H18.1607C18.4259 23.5953 18.6429 23.8123 18.6429 24.0775V25.6846C18.6429 25.9498 18.4259 26.1667 18.1607 26.1667H16.5536C16.2884 26.1667 16.0714 25.9498 16.0714 25.6846V24.0775ZM29.5714 10.7382H27.6429V8.80961C27.6429 8.45603 27.3536 8.16675 27 8.16675H25.7143C25.3607 8.16675 25.0714 8.45603 25.0714 8.80961V10.7382H19.9286V8.80961C19.9286 8.45603 19.6393 8.16675 19.2857 8.16675H18C17.6464 8.16675 17.3571 8.45603 17.3571 8.80961V10.7382H15.4286C14.3638 10.7382 13.5 11.602 13.5 12.6667V14.5953H31.5V12.6667C31.5 11.602 30.6362 10.7382 29.5714 10.7382Z" fill="black"/>
<defs>
<linearGradient id="paint0_linear_486_7471" x1="22.5" y1="0.166748" x2="22.5" y2="37.1667" gradientUnits="userSpaceOnUse">
<stop stop-color="#FB793D"/>
<stop offset="1" stop-color="#FB793D" stop-opacity="0.19"/>
</linearGradient>
</defs>
</svg>
