<svg width="45" height="38" viewBox="0 0 45 38" fill="none" xmlns="http://www.w3.org/2000/svg">
<ellipse cx="22.5" cy="18.6667" rx="22" ry="18.5" fill="url(#paint0_linear_486_7464)"/>
<path d="M17.8894 24.4049C18.2436 24.4049 18.5407 24.2907 18.7807 24.0621C19.0198 23.8343 19.1394 23.5518 19.1394 23.2145C19.1394 22.8772 19.0198 22.5942 18.7807 22.3657C18.5407 22.1379 18.2436 22.024 17.8894 22.024C17.5352 22.024 17.2382 22.1379 16.9982 22.3657C16.759 22.5942 16.6394 22.8772 16.6394 23.2145C16.6394 23.5518 16.759 23.8343 16.9982 24.0621C17.2382 24.2907 17.5352 24.4049 17.8894 24.4049ZM17.8894 19.643C18.2436 19.643 18.5407 19.5288 18.7807 19.3002C19.0198 19.0724 19.1394 18.7899 19.1394 18.4526C19.1394 18.1153 19.0198 17.8323 18.7807 17.6038C18.5407 17.376 18.2436 17.2621 17.8894 17.2621C17.5352 17.2621 17.2382 17.376 16.9982 17.6038C16.759 17.8323 16.6394 18.1153 16.6394 18.4526C16.6394 18.7899 16.759 19.0724 16.9982 19.3002C17.2382 19.5288 17.5352 19.643 17.8894 19.643ZM17.8894 14.8811C18.2436 14.8811 18.5407 14.7669 18.7807 14.5383C19.0198 14.3105 19.1394 14.028 19.1394 13.6907C19.1394 13.3534 19.0198 13.0704 18.7807 12.8419C18.5407 12.6141 18.2436 12.5002 17.8894 12.5002C17.5352 12.5002 17.2382 12.6141 16.9982 12.8419C16.759 13.0704 16.6394 13.3534 16.6394 13.6907C16.6394 14.028 16.759 14.3105 16.9982 14.5383C17.2382 14.7669 17.5352 14.8811 17.8894 14.8811ZM21.6394 24.4049H29.1394V22.024H21.6394V24.4049ZM21.6394 19.643H29.1394V17.2621H21.6394V19.643ZM21.6394 14.8811H29.1394V12.5002H21.6394V14.8811ZM14.1394 29.1669C13.4519 29.1669 12.8632 28.9339 12.3732 28.468C11.884 28.0014 11.6394 27.4407 11.6394 26.7859V10.1192C11.6394 9.46447 11.884 8.90376 12.3732 8.43709C12.8632 7.97122 13.4519 7.73828 14.1394 7.73828H31.6394C32.3269 7.73828 32.9157 7.97122 33.4057 8.43709C33.8948 8.90376 34.1394 9.46447 34.1394 10.1192V26.7859C34.1394 27.4407 33.8948 28.0014 33.4057 28.468C32.9157 28.9339 32.3269 29.1669 31.6394 29.1669H14.1394ZM14.1394 26.7859H31.6394V10.1192H14.1394V26.7859ZM14.1394 10.1192V26.7859V10.1192Z" fill="#1A141F"/>
<defs>
<linearGradient id="paint0_linear_486_7464" x1="22.5" y1="0.166748" x2="22.5" y2="37.1667" gradientUnits="userSpaceOnUse">
<stop stop-color="#FB793D"/>
<stop offset="1" stop-color="#FB793D" stop-opacity="0.19"/>
</linearGradient>
</defs>
</svg>
