<svg width="70" height="60" viewBox="0 0 70 60" fill="none" xmlns="http://www.w3.org/2000/svg">
<ellipse cx="35" cy="30.2955" rx="35" ry="29.4318" fill="url(#paint0_linear_486_7216)"/>
<path d="M54.0192 23.5354C54.3222 23.2501 54.7727 23.517 54.7727 23.968V42.792C54.7727 45.2312 53.1026 47.2103 51.044 47.2103H18.7287C16.6701 47.2103 15 45.2312 15 42.792V23.9772C15 23.517 15.4428 23.2593 15.7535 23.5446C17.4936 25.1462 19.8007 27.1805 27.7242 34.0013C29.3632 35.4189 32.1287 38.4012 34.8864 38.3828C37.6596 38.4104 40.4794 35.3636 42.0563 34.0013C49.9798 27.1805 52.2792 25.137 54.0192 23.5354ZM34.8864 35.4281C36.6886 35.4649 39.2831 32.7403 40.5882 31.6173C50.8964 22.753 51.681 21.9798 54.0581 19.7706C54.5086 19.3564 54.7727 18.7121 54.7727 18.0309V16.282C54.7727 13.8427 53.1026 11.8636 51.044 11.8636H18.7287C16.6701 11.8636 15 13.8427 15 16.282V18.0309C15 18.7121 15.2641 19.3472 15.7147 19.7706C18.0917 21.9706 18.8763 22.753 29.1846 31.6173C30.4896 32.7403 33.0842 35.4649 34.8864 35.4281Z" fill="black"/>
<defs>
<linearGradient id="paint0_linear_486_7216" x1="35" y1="0.863647" x2="35" y2="59.7273" gradientUnits="userSpaceOnUse">
<stop stop-color="#FB793D"/>
<stop offset="1" stop-color="#FB793D" stop-opacity="0.19"/>
</linearGradient>
</defs>
</svg>
