<svg width="71" height="60" viewBox="0 0 71 60" fill="none" xmlns="http://www.w3.org/2000/svg">
<ellipse cx="35.5" cy="29.9318" rx="35" ry="29.4318" fill="url(#paint0_linear_486_5469)"/>
<path d="M55.2727 28.2052C55.2727 26.5739 54.3785 25.1648 53.0631 24.3999V13.8463C53.0631 13.2423 52.5812 11.6365 50.8535 11.6365C50.3619 11.6365 49.8737 11.8008 49.4739 12.1211L43.6026 16.8177C40.6535 19.1746 36.951 20.4731 33.1768 20.4731H19.9192C17.4783 20.4731 15.5 22.451 15.5 24.8915V31.519C15.5 33.9594 17.4783 35.9373 19.9192 35.9373H22.2462C22.1502 36.6608 22.0956 37.3967 22.0956 38.1465C22.0956 40.892 22.735 43.4864 23.8606 45.8053C24.2189 46.5433 25.0013 46.9831 25.8216 46.9831H30.9506C32.7493 46.9831 33.8293 44.9231 32.739 43.4926C31.6066 42.007 30.9333 40.154 30.9333 38.1465C30.9333 37.3795 31.0452 36.6421 31.2378 35.9373H33.1768C36.951 35.9373 40.6535 37.2359 43.6019 39.5928L49.4732 44.2893C49.8648 44.6026 50.3513 44.7735 50.8528 44.7739C52.5736 44.7739 53.0624 43.2013 53.0624 42.5648V32.0112C54.3785 31.2456 55.2727 29.8365 55.2727 28.2052ZM48.6439 37.9683L46.3618 36.143C42.6331 33.1606 37.9495 31.519 33.1768 31.519V24.8915C37.9495 24.8915 42.6331 23.2498 46.3618 20.2674L48.6439 18.4421V37.9683Z" fill="black"/>
<defs>
<linearGradient id="paint0_linear_486_5469" x1="35.5" y1="0.5" x2="35.5" y2="59.3636" gradientUnits="userSpaceOnUse">
<stop stop-color="#FB793D"/>
<stop offset="1" stop-color="#FB793D" stop-opacity="0.19"/>
</linearGradient>
</defs>
</svg>
