<svg width="71" height="60" viewBox="0 0 71 60" fill="none" xmlns="http://www.w3.org/2000/svg">
<ellipse cx="35.5" cy="29.9318" rx="35" ry="29.4318" fill="url(#paint0_linear_486_5451)"/>
<path d="M28.2222 38.4259C28.7731 38.4259 29.2353 38.2481 29.6086 37.8926C29.9806 37.5383 30.1667 37.0988 30.1667 36.5741C30.1667 36.0494 29.9806 35.6093 29.6086 35.2537C29.2353 34.8994 28.7731 34.7222 28.2222 34.7222C27.6713 34.7222 27.2092 34.8994 26.8358 35.2537C26.4638 35.6093 26.2778 36.0494 26.2778 36.5741C26.2778 37.0988 26.4638 37.5383 26.8358 37.8926C27.2092 38.2481 27.6713 38.4259 28.2222 38.4259ZM28.2222 31.0185C28.7731 31.0185 29.2353 30.8407 29.6086 30.4852C29.9806 30.1309 30.1667 29.6914 30.1667 29.1667C30.1667 28.642 29.9806 28.2019 29.6086 27.8463C29.2353 27.492 28.7731 27.3148 28.2222 27.3148C27.6713 27.3148 27.2092 27.492 26.8358 27.8463C26.4638 28.2019 26.2778 28.642 26.2778 29.1667C26.2778 29.6914 26.4638 30.1309 26.8358 30.4852C27.2092 30.8407 27.6713 31.0185 28.2222 31.0185ZM28.2222 23.6111C28.7731 23.6111 29.2353 23.4333 29.6086 23.0778C29.9806 22.7235 30.1667 22.284 30.1667 21.7593C30.1667 21.2346 29.9806 20.7944 29.6086 20.4389C29.2353 20.0846 28.7731 19.9074 28.2222 19.9074C27.6713 19.9074 27.2092 20.0846 26.8358 20.4389C26.4638 20.7944 26.2778 21.2346 26.2778 21.7593C26.2778 22.284 26.4638 22.7235 26.8358 23.0778C27.2092 23.4333 27.6713 23.6111 28.2222 23.6111ZM34.0556 38.4259H45.7222V34.7222H34.0556V38.4259ZM34.0556 31.0185H45.7222V27.3148H34.0556V31.0185ZM34.0556 23.6111H45.7222V19.9074H34.0556V23.6111ZM22.3889 45.8333C21.3194 45.8333 20.4036 45.471 19.6414 44.7463C18.8805 44.0204 18.5 43.1481 18.5 42.1296V16.2037C18.5 15.1852 18.8805 14.313 19.6414 13.587C20.4036 12.8623 21.3194 12.5 22.3889 12.5H49.6111C50.6806 12.5 51.5964 12.8623 52.3586 13.587C53.1195 14.313 53.5 15.1852 53.5 16.2037V42.1296C53.5 43.1481 53.1195 44.0204 52.3586 44.7463C51.5964 45.471 50.6806 45.8333 49.6111 45.8333H22.3889ZM22.3889 42.1296H49.6111V16.2037H22.3889V42.1296ZM22.3889 16.2037V42.1296V16.2037Z" fill="#1A141F"/>
<defs>
<linearGradient id="paint0_linear_486_5451" x1="35.5" y1="0.5" x2="35.5" y2="59.3636" gradientUnits="userSpaceOnUse">
<stop stop-color="#FB793D"/>
<stop offset="1" stop-color="#FB793D" stop-opacity="0.19"/>
</linearGradient>
</defs>
</svg>
