<svg width="25" height="26" viewBox="0 0 25 26" fill="none" xmlns="http://www.w3.org/2000/svg">
<g clip-path="url(#clip0_1179_15946)">
<path d="M24.9913 12.8654C24.9913 13.7718 24.3403 14.4818 23.6024 14.4818H22.2135L22.2439 22.5485C22.2439 22.6845 22.2352 22.8204 22.2222 22.9564V23.7671C22.2222 24.8799 21.4453 25.7812 20.4861 25.7812H19.7917C19.7439 25.7812 19.6962 25.7812 19.6484 25.7762C19.5877 25.7812 19.5269 25.7812 19.4661 25.7812H18.0556H17.0139C16.0547 25.7812 15.2778 24.8799 15.2778 23.7671V22.5586V19.3359C15.2778 18.4447 14.6571 17.7246 13.8889 17.7246H11.1111C10.3429 17.7246 9.72222 18.4447 9.72222 19.3359V22.5586V23.7671C9.72222 24.8799 8.94531 25.7812 7.98611 25.7812H6.94445H5.5599C5.49479 25.7812 5.42969 25.7762 5.36458 25.7712C5.3125 25.7762 5.26042 25.7812 5.20833 25.7812H4.51389C3.55469 25.7812 2.77778 24.8799 2.77778 23.7671V18.1274C2.77778 18.0821 2.77778 18.0318 2.78212 17.9865V14.4818H1.38889C0.607639 14.4818 0 13.7769 0 12.8654C0 12.4123 0.130208 12.0094 0.434028 11.657L11.5625 0.402832C11.8663 0.050354 12.2135 0 12.5174 0C12.8212 0 13.1684 0.100708 13.4288 0.352478L24.5139 11.657C24.8611 12.0094 25.0347 12.4123 24.9913 12.8654Z" fill="white"/>
</g>
<defs>
<clipPath id="clip0_1179_15946">
<rect width="25" height="25.7812" fill="white"/>
</clipPath>
</defs>
</svg>
