<svg width="26" height="26" viewBox="0 0 26 26" fill="none" xmlns="http://www.w3.org/2000/svg">
<path d="M17.4641 7.66283C16.7331 3.16092 15.009 0 13.0025 0C10.9961 0 9.27193 3.16092 8.54094 7.66283H17.4641ZM8.16284 12.5025C8.16284 13.6217 8.22333 14.6955 8.3292 15.729H17.6708C17.7767 14.6955 17.8372 13.6217 17.8372 12.5025C17.8372 11.3833 17.7767 10.3095 17.6708 9.27606H8.3292C8.22333 10.3095 8.16284 11.3833 8.16284 12.5025ZM24.5321 7.66283C23.0902 4.23977 20.1713 1.59306 16.5667 0.524299C17.7968 2.22827 18.6438 4.79431 19.0874 7.66283H24.5321ZM9.43325 0.524299C5.83374 1.59306 2.90976 4.23977 1.47298 7.66283H6.91762C7.35622 4.79431 8.20317 2.22827 9.43325 0.524299ZM25.0715 9.27606H19.2891C19.3949 10.3347 19.4554 11.4186 19.4554 12.5025C19.4554 13.5864 19.3949 14.6703 19.2891 15.729H25.0664C25.3437 14.6955 25.5 13.6217 25.5 12.5025C25.5 11.3833 25.3437 10.3095 25.0715 9.27606ZM6.54961 12.5025C6.54961 11.4186 6.6101 10.3347 6.71597 9.27606H0.933555C0.661323 10.3095 0.5 11.3833 0.5 12.5025C0.5 13.6217 0.661323 14.6955 0.933555 15.729H6.71093C6.6101 14.6703 6.54961 13.5864 6.54961 12.5025ZM8.54094 17.3422C9.27193 21.8441 10.9961 25.005 13.0025 25.005C15.009 25.005 16.7331 21.8441 17.4641 17.3422H8.54094ZM16.5718 24.4807C20.1713 23.412 23.0953 20.7653 24.5371 17.3422H19.0925C18.6488 20.2107 17.8019 22.7768 16.5718 24.4807ZM1.47298 17.3422C2.9148 20.7653 5.83374 23.412 9.43829 24.4807C8.20821 22.7768 7.36126 20.2107 6.91762 17.3422H1.47298Z" fill="black"/>
</svg>
