<svg width="25" height="26" viewBox="0 0 25 26" fill="none" xmlns="http://www.w3.org/2000/svg">
<path d="M10.6771 3.625C6.51852 3.625 3.125 7.01852 3.125 11.1771C3.125 15.3356 6.51852 18.7292 10.6771 18.7292C12.3819 18.7292 13.9526 18.1526 15.2191 17.1931L20.0968 22.0698C20.1928 22.1698 20.3078 22.2496 20.435 22.3046C20.5622 22.3596 20.6991 22.3886 20.8377 22.39C20.9763 22.3915 21.1138 22.3652 21.2421 22.3128C21.3704 22.2604 21.487 22.183 21.585 22.085C21.683 21.987 21.7604 21.8704 21.8128 21.7421C21.8652 21.6138 21.8915 21.4763 21.89 21.3377C21.8886 21.1991 21.8596 21.0622 21.8046 20.935C21.7496 20.8078 21.6698 20.6928 21.5698 20.5968L16.6931 15.7191C17.6526 14.4526 18.2292 12.8819 18.2292 11.1771C18.2292 7.01852 14.8356 3.625 10.6771 3.625ZM10.6771 5.70833C13.7097 5.70833 16.1458 8.14444 16.1458 11.1771C16.1458 12.6332 15.5802 13.9482 14.6606 14.9257C14.5711 14.9905 14.4925 15.0691 14.4277 15.1586C13.4501 16.0794 12.1342 16.6458 10.6771 16.6458C7.64444 16.6458 5.20833 14.2097 5.20833 11.1771C5.20833 8.14444 7.64444 5.70833 10.6771 5.70833Z" fill="#1A141F"/>
</svg>
