<svg width="32" height="21" viewBox="0 0 32 21" fill="none" xmlns="http://www.w3.org/2000/svg">
<path d="M31.2733 9.71505C28.3584 4.0277 22.5877 0.179688 15.9802 0.179688C9.37259 0.179688 3.60031 4.03039 0.687023 9.71559C0.564064 9.95882 0.5 10.2275 0.5 10.5001C0.5 10.7726 0.564064 11.0413 0.687023 11.2846C3.60192 16.9719 9.37259 20.8199 15.9802 20.8199C22.5877 20.8199 28.36 16.9692 31.2733 11.284C31.3963 11.0408 31.4603 10.7721 31.4603 10.4995C31.4603 10.227 31.3963 9.95828 31.2733 9.71505ZM15.9802 18.2399C14.4493 18.2399 12.9528 17.786 11.68 16.9355C10.4071 16.085 9.41508 14.8761 8.82925 13.4618C8.24342 12.0475 8.09014 10.4912 8.38879 8.9898C8.68744 7.48837 9.42462 6.10921 10.5071 5.02674C11.5896 3.94427 12.9687 3.2071 14.4701 2.90844C15.9716 2.60979 17.5279 2.76307 18.9422 3.3489C20.3565 3.93473 21.5653 4.9268 22.4158 6.19965C23.2663 7.4725 23.7203 8.96897 23.7203 10.4998C23.7208 11.5164 23.5209 12.5231 23.1321 13.4624C22.7433 14.4017 22.1732 15.2552 21.4543 15.974C20.7355 16.6928 19.882 17.2629 18.9428 17.6517C18.0035 18.0405 16.9967 18.2404 15.9802 18.2399ZM15.9802 5.33975C15.5196 5.34619 15.062 5.41471 14.6197 5.54347C14.9843 6.03887 15.1592 6.64852 15.1128 7.26185C15.0664 7.87517 14.8018 8.45156 14.3668 8.88649C13.9319 9.32141 13.3555 9.58607 12.7422 9.63247C12.1289 9.67887 11.5192 9.50393 11.0238 9.13939C10.7417 10.1787 10.7926 11.2803 11.1694 12.2892C11.5462 13.298 12.2299 14.1633 13.1242 14.7633C14.0185 15.3633 15.0784 15.6677 16.1548 15.6336C17.2312 15.5996 18.2698 15.229 19.1245 14.5737C19.9792 13.9185 20.6069 13.0118 20.9192 11.9812C21.2316 10.9505 21.2129 9.84792 20.8657 8.82848C20.5186 7.80904 19.8605 6.92413 18.9841 6.29829C18.1077 5.67246 17.0571 5.33722 15.9802 5.33975Z" fill="black"/>
</svg>
