<svg width="25" height="27" viewBox="0 0 25 27" fill="none" xmlns="http://www.w3.org/2000/svg">
<path d="M25 12.3965C25 11.2066 24.4379 10.1789 23.6111 9.62097V1.92335C23.6111 1.48276 23.3082 0.311523 22.2222 0.311523C21.9132 0.311523 21.6063 0.431366 21.355 0.665009L17.6645 4.09059C15.8108 5.80968 13.4835 6.75684 11.1111 6.75684H2.77778C1.24349 6.75684 0 8.19948 0 9.97949V14.8135C0 16.5935 1.24349 18.0361 2.77778 18.0361H4.24045C4.18012 18.5638 4.14583 19.1006 4.14583 19.6475C4.14583 21.65 4.54774 23.5423 5.25521 25.2337C5.48047 25.772 5.97222 26.0928 6.48785 26.0928H9.71181C10.8424 26.0928 11.5213 24.5902 10.8359 23.5469C10.1241 22.4633 9.70095 21.1118 9.70095 19.6475C9.70095 19.088 9.77127 18.5502 9.89236 18.0361H11.1111C13.4835 18.0361 15.8108 18.9833 17.6641 20.7024L21.3546 24.128C21.6007 24.3565 21.9065 24.4811 22.2218 24.4814C23.3034 24.4814 23.6107 23.3344 23.6107 22.8701V15.1725C24.4379 14.6141 25 13.5863 25 12.3965ZM20.8333 19.5175L19.3989 18.1862C17.0551 16.0109 14.1111 14.8135 11.1111 14.8135V9.97949C14.1111 9.97949 17.0551 8.78207 19.3989 6.60678L20.8333 5.27542V19.5175Z" fill="#FB793D"/>
</svg>
