<svg width="31" height="31" viewBox="0 0 31 31" fill="none" xmlns="http://www.w3.org/2000/svg">
<path d="M27.2857 13.625H25.6786V9.40625C25.6786 4.49609 21.1116 0.5 15.5 0.5C9.88839 0.5 5.32143 4.49609 5.32143 9.40625V13.625H3.71429C1.93973 13.625 0.5 14.8848 0.5 16.4375V27.6875C0.5 29.2402 1.93973 30.5 3.71429 30.5H27.2857C29.0603 30.5 30.5 29.2402 30.5 27.6875V16.4375C30.5 14.8848 29.0603 13.625 27.2857 13.625ZM20.3214 13.625H10.6786V9.40625C10.6786 7.08008 12.8415 5.1875 15.5 5.1875C18.1585 5.1875 20.3214 7.08008 20.3214 9.40625V13.625Z" fill="black"/>
</svg>
