<svg width="29" height="25" viewBox="0 0 29 25" fill="none" xmlns="http://www.w3.org/2000/svg">
<path d="M1.8597 4.52342H27.995C28.5502 4.52342 29.0002 4.07341 29.0002 3.51822V1.00521C29.0002 0.450018 28.5502 0 27.995 0H1.8597C1.30451 0 0.854492 0.450018 0.854492 1.00521V3.51822C0.854492 4.07341 1.30451 4.52342 1.8597 4.52342ZM1.8597 14.5755H27.995C28.5502 14.5755 29.0002 14.1255 29.0002 13.5703V11.0573C29.0002 10.5021 28.5502 10.0521 27.995 10.0521H1.8597C1.30451 10.0521 0.854492 10.5021 0.854492 11.0573V13.5703C0.854492 14.1255 1.30451 14.5755 1.8597 14.5755ZM1.8597 24.6275H27.995C28.5502 24.6275 29.0002 24.1775 29.0002 23.6223V21.1093C29.0002 20.5541 28.5502 20.1041 27.995 20.1041H1.8597C1.30451 20.1041 0.854492 20.5541 0.854492 21.1093V23.6223C0.854492 24.1775 1.30451 24.6275 1.8597 24.6275Z" fill="white"/>
</svg>
