<svg width="25" height="22" viewBox="0 0 25 22" fill="none" xmlns="http://www.w3.org/2000/svg">
<g id="&#240;&#159;&#166;&#134; icon &#34;Users&#34;">
<path id="Vector" d="M3.75 9.76742C5.12891 9.76742 6.25 8.42418 6.25 6.77203C6.25 5.11989 5.12891 3.77664 3.75 3.77664C2.37109 3.77664 1.25 5.11989 1.25 6.77203C1.25 8.42418 2.37109 9.76742 3.75 9.76742ZM21.25 9.76742C22.6289 9.76742 23.75 8.42418 23.75 6.77203C23.75 5.11989 22.6289 3.77664 21.25 3.77664C19.8711 3.77664 18.75 5.11989 18.75 6.77203C18.75 8.42418 19.8711 9.76742 21.25 9.76742ZM22.5 11.2651H20C19.3125 11.2651 18.6914 11.5974 18.2383 12.1357C19.8125 13.17 20.9297 15.0374 21.1719 17.2559H23.75C24.4414 17.2559 25 16.5866 25 15.7582V14.2605C25 12.6084 23.8789 11.2651 22.5 11.2651ZM12.5 11.2651C14.918 11.2651 16.875 8.92029 16.875 6.02319C16.875 3.12608 14.918 0.78125 12.5 0.78125C10.082 0.78125 8.125 3.12608 8.125 6.02319C8.125 8.92029 10.082 11.2651 12.5 11.2651ZM15.5 12.7628H15.1758C14.3633 13.2308 13.4609 13.5117 12.5 13.5117C11.5391 13.5117 10.6406 13.2308 9.82422 12.7628H9.5C7.01562 12.7628 5 15.1779 5 18.1545V19.5024C5 20.7427 5.83984 21.749 6.875 21.749H18.125C19.1602 21.749 20 20.7427 20 19.5024V18.1545C20 15.1779 17.9844 12.7628 15.5 12.7628ZM6.76172 12.1357C6.30859 11.5974 5.6875 11.2651 5 11.2651H2.5C1.12109 11.2651 0 12.6084 0 14.2605V15.7582C0 16.5866 0.558594 17.2559 1.25 17.2559H3.82422C4.07031 15.0374 5.1875 13.17 6.76172 12.1357Z" fill="#FB793D"/>
</g>
</svg>
