<svg width="12" height="12" viewBox="0 0 12 12" fill="none" xmlns="http://www.w3.org/2000/svg">
<g id="icons8-info 1" clip-path="url(#clip0_1359_23633)">
<path id="Vector" d="M6 0C2.68555 0 0 2.68555 0 6C0 9.31445 2.68555 12 6 12C9.31445 12 12 9.31445 12 6C12 2.68555 9.31445 0 6 0ZM6 1C8.76172 1 11 3.23828 11 6C11 8.76172 8.76172 11 6 11C3.23828 11 1 8.76172 1 6C1 3.23828 3.23828 1 6 1ZM6 2.90625C5.9082 2.90625 5.83203 2.9043 5.75 2.92188C5.66797 2.93945 5.5918 2.98438 5.53125 3.03125C5.4707 3.07812 5.42578 3.14258 5.39062 3.21875C5.35547 3.29492 5.34375 3.38477 5.34375 3.5C5.34375 3.61328 5.35547 3.70312 5.39062 3.78125C5.42578 3.85938 5.4707 3.92188 5.53125 3.96875C5.5918 4.01562 5.66797 4.04297 5.75 4.0625C5.83203 4.08203 5.9082 4.09375 6 4.09375C6.08984 4.09375 6.18555 4.08203 6.26562 4.0625C6.3457 4.04297 6.4082 4.01562 6.46875 3.96875C6.5293 3.92188 6.57422 3.85938 6.60938 3.78125C6.64453 3.70508 6.67188 3.61328 6.67188 3.5C6.67188 3.38477 6.64453 3.29492 6.60938 3.21875C6.57422 3.14258 6.5293 3.07812 6.46875 3.03125C6.4082 2.98438 6.3457 2.93945 6.26562 2.92188C6.18555 2.9043 6.08984 2.90625 6 2.90625ZM5.39062 4.57812V9.0625H6.60938V4.57812H5.39062Z" fill="white"/>
</g>
<defs>
<clipPath id="clip0_1359_23633">
<rect width="12" height="12" fill="white"/>
</clipPath>
</defs>
</svg>
