<svg width="31" height="21" viewBox="0 0 31 21" fill="none" xmlns="http://www.w3.org/2000/svg">
<path d="M29.8867 7.10417C30.1152 6.94271 30.4551 7.09375 30.4551 7.34896V18C30.4551 19.3802 29.1953 20.5 27.6426 20.5H3.26758C1.71484 20.5 0.455078 19.3802 0.455078 18V7.35417C0.455078 7.09375 0.789062 6.94792 1.02344 7.10937C2.33594 8.01562 4.07617 9.16667 10.0527 13.026C11.2891 13.8281 13.375 15.5156 15.4551 15.5052C17.5469 15.5208 19.6738 13.7969 20.8633 13.026C26.8398 9.16667 28.5742 8.01042 29.8867 7.10417ZM15.4551 13.8333C16.8145 13.8542 18.7715 12.3125 19.7559 11.6771C27.5312 6.66146 28.123 6.22396 29.916 4.97396C30.2559 4.73958 30.4551 4.375 30.4551 3.98958V3C30.4551 1.61979 29.1953 0.5 27.6426 0.5H3.26758C1.71484 0.5 0.455078 1.61979 0.455078 3V3.98958C0.455078 4.375 0.654297 4.73437 0.994141 4.97396C2.78711 6.21875 3.37891 6.66146 11.1543 11.6771C12.1387 12.3125 14.0957 13.8542 15.4551 13.8333Z" fill="black"/>
</svg>
