<svg width="31" height="31" viewBox="0 0 31 31" fill="none" xmlns="http://www.w3.org/2000/svg">
<path d="M15.5 15.5C16.1875 15.5 16.7762 15.255 17.2663 14.765C17.7554 14.2758 18 13.6875 18 13C18 12.3125 17.7554 11.7238 17.2663 11.2337C16.7762 10.7446 16.1875 10.5 15.5 10.5C14.8125 10.5 14.2242 10.7446 13.735 11.2337C13.245 11.7238 13 12.3125 13 13C13 13.6875 13.245 14.2758 13.735 14.765C14.2242 15.255 14.8125 15.5 15.5 15.5ZM15.5 24.6875C18.0417 22.3542 19.9271 20.2342 21.1562 18.3275C22.3854 16.4217 23 14.7292 23 13.25C23 10.9792 22.2758 9.11958 20.8275 7.67125C19.38 6.22375 17.6042 5.5 15.5 5.5C13.3958 5.5 11.6196 6.22375 10.1712 7.67125C8.72375 9.11958 8 10.9792 8 13.25C8 14.7292 8.61458 16.4217 9.84375 18.3275C11.0729 20.2342 12.9583 22.3542 15.5 24.6875ZM15.5 27.5312C15.3333 27.5312 15.1667 27.5 15 27.4375C14.8333 27.375 14.6875 27.2917 14.5625 27.1875C11.5208 24.5 9.25 22.0054 7.75 19.7038C6.25 17.4012 5.5 15.25 5.5 13.25C5.5 10.125 6.50542 7.63542 8.51625 5.78125C10.5263 3.92708 12.8542 3 15.5 3C18.1458 3 20.4738 3.92708 22.4837 5.78125C24.4946 7.63542 25.5 10.125 25.5 13.25C25.5 15.25 24.75 17.4012 23.25 19.7038C21.75 22.0054 19.4792 24.5 16.4375 27.1875C16.3125 27.2917 16.1667 27.375 16 27.4375C15.8333 27.5 15.6667 27.5312 15.5 27.5312Z" fill="white"/>
</svg>
