<svg width="19" height="19" viewBox="0 0 19 19" fill="none" xmlns="http://www.w3.org/2000/svg">
<path d="M9.33344 1.61426C5.05566 1.61426 1.55566 5.16884 1.55566 9.54676C1.55566 13.5051 4.40233 16.7905 8.12011 17.3843V11.8426H6.14455V9.54676H8.12011V7.79718C8.12011 5.81009 9.279 4.71759 11.0601 4.71759C11.9079 4.71759 12.7946 4.86801 12.7946 4.86801V6.82342H11.8146C10.8501 6.82342 10.5468 7.43301 10.5468 8.05843V9.54676H12.709L12.359 11.8426H10.5468V17.3843C12.3796 17.0896 14.0485 16.1378 15.2523 14.7006C16.4561 13.2633 17.1154 11.4354 17.1112 9.54676C17.1112 5.16884 13.6112 1.61426 9.33344 1.61426Z" fill="#1A141F"/>
</svg>
