<svg width="20" height="19" viewBox="0 0 20 19" fill="none" xmlns="http://www.w3.org/2000/svg">
<path d="M9.83344 1.61426C5.55566 1.61426 2.05566 5.16884 2.05566 9.54676C2.05566 13.5051 4.90233 16.7905 8.62011 17.3843V11.8426H6.64455V9.54676H8.62011V7.79718C8.62011 5.81009 9.779 4.71759 11.5601 4.71759C12.4079 4.71759 13.2946 4.86801 13.2946 4.86801V6.82342H12.3146C11.3501 6.82342 11.0468 7.43301 11.0468 8.05843V9.54676H13.209L12.859 11.8426H11.0468V17.3843C12.8796 17.0896 14.5485 16.1378 15.7523 14.7006C16.9561 13.2633 17.6154 11.4354 17.6112 9.54676C17.6112 5.16884 14.1112 1.61426 9.83344 1.61426Z" fill="#1A141F"/>
</svg>
