<svg width="19" height="19" viewBox="0 0 19 19" fill="none" xmlns="http://www.w3.org/2000/svg">
<path d="M9.33344 1.61499C5.05566 1.61499 1.55566 5.16957 1.55566 9.54749C1.55566 13.5058 4.40233 16.7912 8.12011 17.385V11.8433H6.14455V9.54749H8.12011V7.79791C8.12011 5.81082 9.279 4.71832 11.0601 4.71832C11.9079 4.71832 12.7946 4.86874 12.7946 4.86874V6.82416H11.8146C10.8501 6.82416 10.5468 7.43374 10.5468 8.05916V9.54749H12.709L12.359 11.8433H10.5468V17.385C12.3796 17.0904 14.0485 16.1385 15.2523 14.7013C16.4561 13.2641 17.1154 11.4361 17.1112 9.54749C17.1112 5.16957 13.6112 1.61499 9.33344 1.61499Z" fill="#1A141F"/>
</svg>
