<svg width="21" height="20" viewBox="0 0 21 20" fill="none" xmlns="http://www.w3.org/2000/svg">
<path d="M10.6668 1.69995C6.0835 1.69995 2.3335 5.44162 2.3335 10.05C2.3335 14.2166 5.3835 17.6749 9.36683 18.2999V12.4666H7.25016V10.05H9.36683V8.20828C9.36683 6.11662 10.6085 4.96662 12.5168 4.96662C13.4252 4.96662 14.3752 5.12495 14.3752 5.12495V7.18328H13.3252C12.2918 7.18328 11.9668 7.82495 11.9668 8.48328V10.05H14.2835L13.9085 12.4666H11.9668V18.2999C13.9305 17.9898 15.7187 16.9879 17.0084 15.475C18.2982 13.9621 19.0046 12.038 19.0002 10.05C19.0002 5.44162 15.2502 1.69995 10.6668 1.69995Z" fill="white"/>
</svg>
