<svg width="20" height="20" viewBox="0 0 20 20" fill="none" xmlns="http://www.w3.org/2000/svg">
<path d="M9.83344 2.36499C5.55566 2.36499 2.05566 5.91957 2.05566 10.2975C2.05566 14.2558 4.90233 17.5412 8.62011 18.135V12.5933H6.64455V10.2975H8.62011V8.54791C8.62011 6.56082 9.779 5.46832 11.5601 5.46832C12.4079 5.46832 13.2946 5.61874 13.2946 5.61874V7.57416H12.3146C11.3501 7.57416 11.0468 8.18374 11.0468 8.80916V10.2975H13.209L12.859 12.5933H11.0468V18.135C12.8796 17.8404 14.5485 16.8885 15.7523 15.4513C16.9561 14.0141 17.6154 12.1861 17.6112 10.2975C17.6112 5.91957 14.1112 2.36499 9.83344 2.36499Z" fill="#1A141F"/>
</svg>
