<svg width="19" height="20" viewBox="0 0 19 20" fill="none" xmlns="http://www.w3.org/2000/svg">
<path d="M9.50019 2.33325C11.6134 2.33325 11.8771 2.34117 12.7062 2.38075C13.5345 2.42034 14.0984 2.55254 14.5946 2.74888C15.108 2.94996 15.5404 3.22229 15.9729 3.66167C16.3684 4.05742 16.6744 4.53613 16.8696 5.0645C17.0617 5.56879 17.1924 6.14354 17.2313 6.98667C17.2679 7.83059 17.278 8.09896 17.278 10.2499C17.278 12.4009 17.2702 12.6693 17.2313 13.5132C17.1924 14.3563 17.0617 14.9303 16.8696 15.4353C16.6749 15.964 16.3688 16.4428 15.9729 16.8382C15.5839 17.2406 15.1137 17.5521 14.5946 17.751C14.0992 17.9465 13.5345 18.0795 12.7062 18.1191C11.8771 18.1563 11.6134 18.1666 9.50019 18.1666C7.38697 18.1666 7.1233 18.1587 6.29419 18.1191C5.46586 18.0795 4.90197 17.9465 4.40575 17.751C3.88644 17.5526 3.41604 17.2411 3.02752 16.8382C2.63195 16.4425 2.32591 15.9637 2.13075 15.4353C1.93786 14.931 1.80797 14.3563 1.76908 13.5132C1.73252 12.6693 1.72241 12.4009 1.72241 10.2499C1.72241 8.09896 1.73019 7.83059 1.76908 6.98667C1.80797 6.14275 1.93786 5.56959 2.13075 5.0645C2.32537 4.53581 2.63148 4.05696 3.02752 3.66167C3.41616 3.25889 3.88652 2.94737 4.40575 2.74888C4.90197 2.55254 5.46508 2.42034 6.29419 2.38075C7.1233 2.34354 7.38697 2.33325 9.50019 2.33325ZM9.50019 6.29158C8.46879 6.29159 7.47964 6.70862 6.75033 7.45095C6.02102 8.19329 5.6113 9.2001 5.6113 10.2499C5.6113 11.2997 6.02102 12.3066 6.75033 13.0489C7.47964 13.7912 8.46879 14.2083 9.50019 14.2083C10.5316 14.2083 11.5207 13.7912 12.25 13.0489C12.9794 12.3066 13.3891 11.2997 13.3891 10.2499C13.3891 9.2001 12.9794 8.19329 12.25 7.45095C11.5207 6.70862 10.5316 6.29158 9.50019 6.29158ZM14.5557 6.09367C14.5557 5.83121 14.4533 5.57951 14.271 5.39393C14.0887 5.20834 13.8414 5.10409 13.5835 5.10409C13.3257 5.10409 13.0784 5.20834 12.8961 5.39393C12.7137 5.57951 12.6113 5.83121 12.6113 6.09367C12.6113 6.35612 12.7137 6.60783 12.8961 6.79341C13.0784 6.97899 13.3257 7.08325 13.5835 7.08325C13.8414 7.08325 14.0887 6.97899 14.271 6.79341C14.4533 6.60783 14.5557 6.35612 14.5557 6.09367ZM9.50019 7.87492C10.119 7.87492 10.7125 8.12514 11.1501 8.57054C11.5877 9.01594 11.8335 9.62003 11.8335 10.2499C11.8335 10.8798 11.5877 11.4839 11.1501 11.9293C10.7125 12.3747 10.119 12.6249 9.50019 12.6249C8.88135 12.6249 8.28786 12.3747 7.85027 11.9293C7.41269 11.4839 7.16686 10.8798 7.16686 10.2499C7.16686 9.62003 7.41269 9.01594 7.85027 8.57054C8.28786 8.12514 8.88135 7.87492 9.50019 7.87492Z" fill="#1A141F"/>
</svg>
