<svg width="19" height="19" viewBox="0 0 19 19" fill="none" xmlns="http://www.w3.org/2000/svg">
<path d="M9.49995 1.58252C11.6132 1.58252 11.8768 1.59044 12.7059 1.63002C13.5343 1.6696 14.0982 1.80181 14.5944 1.99814C15.1077 2.19923 15.5402 2.47156 15.9726 2.91094C16.3681 3.30669 16.6741 3.7854 16.8694 4.31377C17.0615 4.81806 17.1922 5.39281 17.2311 6.23594C17.2676 7.07985 17.2777 7.34823 17.2777 9.49919C17.2777 11.6501 17.2699 11.9185 17.2311 12.7624C17.1922 13.6056 17.0615 14.1795 16.8694 14.6846C16.6747 15.2133 16.3686 15.6921 15.9726 16.0874C15.5837 16.4899 15.1134 16.8013 14.5944 17.0002C14.0989 17.1958 13.5343 17.3288 12.7059 17.3684C11.8768 17.4056 11.6132 17.4159 9.49995 17.4159C7.38672 17.4159 7.12306 17.4079 6.29395 17.3684C5.46561 17.3288 4.90172 17.1958 4.4055 17.0002C3.8862 16.8019 3.4158 16.4903 3.02728 16.0874C2.63171 15.6917 2.32567 15.213 2.1305 14.6846C1.93761 14.1803 1.80772 13.6056 1.76883 12.7624C1.73228 11.9185 1.72217 11.6501 1.72217 9.49919C1.72217 7.34823 1.72995 7.07985 1.76883 6.23594C1.80772 5.39202 1.93761 4.81885 2.1305 4.31377C2.32513 3.78508 2.63124 3.30623 3.02728 2.91094C3.41591 2.50816 3.88628 2.19664 4.4055 1.99814C4.90172 1.80181 5.46483 1.6696 6.29395 1.63002C7.12306 1.59281 7.38672 1.58252 9.49995 1.58252ZM9.49995 5.54085C8.46855 5.54085 7.47939 5.95789 6.75009 6.70022C6.02078 7.44255 5.61106 8.44937 5.61106 9.49919C5.61106 10.549 6.02078 11.5558 6.75009 12.2982C7.47939 13.0405 8.46855 13.4575 9.49995 13.4575C10.5313 13.4575 11.5205 13.0405 12.2498 12.2982C12.9791 11.5558 13.3888 10.549 13.3888 9.49919C13.3888 8.44937 12.9791 7.44255 12.2498 6.70022C11.5205 5.95789 10.5313 5.54085 9.49995 5.54085ZM14.5555 5.34294C14.5555 5.08048 14.4531 4.82878 14.2707 4.64319C14.0884 4.45761 13.8411 4.35335 13.5833 4.35335C13.3254 4.35335 13.0781 4.45761 12.8958 4.64319C12.7135 4.82878 12.6111 5.08048 12.6111 5.34294C12.6111 5.60539 12.7135 5.85709 12.8958 6.04268C13.0781 6.22826 13.3254 6.33252 13.5833 6.33252C13.8411 6.33252 14.0884 6.22826 14.2707 6.04268C14.4531 5.85709 14.5555 5.60539 14.5555 5.34294ZM9.49995 7.12419C10.1188 7.12419 10.7123 7.37441 11.1499 7.81981C11.5874 8.26521 11.8333 8.8693 11.8333 9.49919C11.8333 10.1291 11.5874 10.7332 11.1499 11.1786C10.7123 11.624 10.1188 11.8742 9.49995 11.8742C8.88111 11.8742 8.28761 11.624 7.85003 11.1786C7.41245 10.7332 7.16661 10.1291 7.16661 9.49919C7.16661 8.8693 7.41245 8.26521 7.85003 7.81981C8.28761 7.37441 8.88111 7.12419 9.49995 7.12419Z" fill="#1A141F"/>
</svg>
