<svg width="21" height="20" viewBox="0 0 21 20" fill="none" xmlns="http://www.w3.org/2000/svg">
<path d="M10.6668 1.66663C12.931 1.66663 13.2135 1.67496 14.1018 1.71663C14.9893 1.75829 15.5935 1.89746 16.1252 2.10413C16.6752 2.31579 17.1385 2.60246 17.6018 3.06496C18.0256 3.48154 18.3535 3.98545 18.5627 4.54163C18.7685 5.07246 18.9085 5.67746 18.9502 6.56496C18.9893 7.45329 19.0002 7.73579 19.0002 9.99996C19.0002 12.2641 18.9918 12.5466 18.9502 13.435C18.9085 14.3225 18.7685 14.9266 18.5627 15.4583C18.3541 16.0148 18.0261 16.5188 17.6018 16.935C17.1851 17.3586 16.6813 17.6864 16.1252 17.8958C15.5943 18.1016 14.9893 18.2416 14.1018 18.2833C13.2135 18.3225 12.931 18.3333 10.6668 18.3333C8.40266 18.3333 8.12016 18.325 7.23183 18.2833C6.34433 18.2416 5.74016 18.1016 5.2085 17.8958C4.6521 17.687 4.1481 17.3591 3.73183 16.935C3.308 16.5184 2.98011 16.0145 2.771 15.4583C2.56433 14.9275 2.42516 14.3225 2.3835 13.435C2.34433 12.5466 2.3335 12.2641 2.3335 9.99996C2.3335 7.73579 2.34183 7.45329 2.3835 6.56496C2.42516 5.67663 2.56433 5.07329 2.771 4.54163C2.97953 3.98511 3.3075 3.48106 3.73183 3.06496C4.14822 2.64099 4.65219 2.31307 5.2085 2.10413C5.74016 1.89746 6.3435 1.75829 7.23183 1.71663C8.12016 1.67746 8.40266 1.66663 10.6668 1.66663ZM10.6668 5.83329C9.56176 5.83329 8.50195 6.27228 7.72055 7.05368C6.93915 7.83508 6.50016 8.89489 6.50016 9.99996C6.50016 11.105 6.93915 12.1648 7.72055 12.9462C8.50195 13.7276 9.56176 14.1666 10.6668 14.1666C11.7719 14.1666 12.8317 13.7276 13.6131 12.9462C14.3945 12.1648 14.8335 11.105 14.8335 9.99996C14.8335 8.89489 14.3945 7.83508 13.6131 7.05368C12.8317 6.27228 11.7719 5.83329 10.6668 5.83329ZM16.0835 5.62496C16.0835 5.34869 15.9738 5.08374 15.7784 4.88839C15.583 4.69304 15.3181 4.58329 15.0418 4.58329C14.7656 4.58329 14.5006 4.69304 14.3053 4.88839C14.1099 5.08374 14.0002 5.34869 14.0002 5.62496C14.0002 5.90123 14.1099 6.16618 14.3053 6.36153C14.5006 6.55688 14.7656 6.66663 15.0418 6.66663C15.3181 6.66663 15.583 6.55688 15.7784 6.36153C15.9738 6.16618 16.0835 5.90123 16.0835 5.62496ZM10.6668 7.49996C11.3299 7.49996 11.9658 7.76335 12.4346 8.23219C12.9034 8.70103 13.1668 9.33692 13.1668 9.99996C13.1668 10.663 12.9034 11.2989 12.4346 11.7677C11.9658 12.2366 11.3299 12.5 10.6668 12.5C10.0038 12.5 9.3679 12.2366 8.89906 11.7677C8.43022 11.2989 8.16683 10.663 8.16683 9.99996C8.16683 9.33692 8.43022 8.70103 8.89906 8.23219C9.3679 7.76335 10.0038 7.49996 10.6668 7.49996Z" fill="white"/>
</svg>
