<svg width="20" height="19" viewBox="0 0 20 19" fill="none" xmlns="http://www.w3.org/2000/svg">
<path d="M10.0002 1.58325C12.1134 1.58325 12.3771 1.59117 13.2062 1.63075C14.0345 1.67034 14.5984 1.80254 15.0946 1.99888C15.608 2.19996 16.0404 2.47229 16.4729 2.91167C16.8684 3.30742 17.1744 3.78613 17.3696 4.3145C17.5617 4.81879 17.6924 5.39354 17.7313 6.23667C17.7679 7.08059 17.778 7.34896 17.778 9.49992C17.778 11.6509 17.7702 11.9193 17.7313 12.7632C17.6924 13.6063 17.5617 14.1803 17.3696 14.6853C17.1749 15.214 16.8688 15.6928 16.4729 16.0882C16.0839 16.4906 15.6137 16.8021 15.0946 17.001C14.5992 17.1965 14.0345 17.3295 13.2062 17.3691C12.3771 17.4063 12.1134 17.4166 10.0002 17.4166C7.88697 17.4166 7.6233 17.4087 6.79419 17.3691C5.96586 17.3295 5.40197 17.1965 4.90575 17.001C4.38644 16.8026 3.91604 16.4911 3.52752 16.0882C3.13195 15.6925 2.82591 15.2137 2.63075 14.6853C2.43786 14.181 2.30797 13.6063 2.26908 12.7632C2.23252 11.9193 2.22241 11.6509 2.22241 9.49992C2.22241 7.34896 2.23019 7.08059 2.26908 6.23667C2.30797 5.39275 2.43786 4.81959 2.63075 4.3145C2.82537 3.78581 3.13148 3.30696 3.52752 2.91167C3.91616 2.50889 4.38652 2.19737 4.90575 1.99888C5.40197 1.80254 5.96508 1.67034 6.79419 1.63075C7.6233 1.59354 7.88697 1.58325 10.0002 1.58325ZM10.0002 5.54158C8.96879 5.54159 7.97964 5.95862 7.25033 6.70095C6.52102 7.44329 6.1113 8.4501 6.1113 9.49992C6.1113 10.5497 6.52102 11.5566 7.25033 12.2989C7.97964 13.0412 8.96879 13.4583 10.0002 13.4583C11.0316 13.4583 12.0207 13.0412 12.75 12.2989C13.4794 11.5566 13.8891 10.5497 13.8891 9.49992C13.8891 8.4501 13.4794 7.44329 12.75 6.70095C12.0207 5.95862 11.0316 5.54158 10.0002 5.54158ZM15.0557 5.34367C15.0557 5.08121 14.9533 4.82951 14.771 4.64393C14.5887 4.45834 14.3414 4.35409 14.0835 4.35409C13.8257 4.35409 13.5784 4.45834 13.3961 4.64393C13.2137 4.82951 13.1113 5.08121 13.1113 5.34367C13.1113 5.60612 13.2137 5.85783 13.3961 6.04341C13.5784 6.22899 13.8257 6.33325 14.0835 6.33325C14.3414 6.33325 14.5887 6.22899 14.771 6.04341C14.9533 5.85783 15.0557 5.60612 15.0557 5.34367ZM10.0002 7.12492C10.619 7.12492 11.2125 7.37514 11.6501 7.82054C12.0877 8.26594 12.3335 8.87003 12.3335 9.49992C12.3335 10.1298 12.0877 10.7339 11.6501 11.1793C11.2125 11.6247 10.619 11.8749 10.0002 11.8749C9.38135 11.8749 8.78786 11.6247 8.35027 11.1793C7.91269 10.7339 7.66686 10.1298 7.66686 9.49992C7.66686 8.87003 7.91269 8.26594 8.35027 7.82054C8.78786 7.37514 9.38135 7.12492 10.0002 7.12492Z" fill="#1A141F"/>
</svg>
