<svg width="20" height="19" viewBox="0 0 20 19" fill="none" xmlns="http://www.w3.org/2000/svg">
<path d="M10.0002 1.58252C12.1134 1.58252 12.3771 1.59044 13.2062 1.63002C14.0345 1.6696 14.5984 1.80181 15.0946 1.99814C15.608 2.19923 16.0404 2.47156 16.4729 2.91094C16.8684 3.30669 17.1744 3.7854 17.3696 4.31377C17.5617 4.81806 17.6924 5.39281 17.7313 6.23594C17.7679 7.07985 17.778 7.34823 17.778 9.49919C17.778 11.6501 17.7702 11.9185 17.7313 12.7624C17.6924 13.6056 17.5617 14.1795 17.3696 14.6846C17.1749 15.2133 16.8688 15.6921 16.4729 16.0874C16.0839 16.4899 15.6137 16.8013 15.0946 17.0002C14.5992 17.1958 14.0345 17.3288 13.2062 17.3684C12.3771 17.4056 12.1134 17.4159 10.0002 17.4159C7.88697 17.4159 7.6233 17.4079 6.79419 17.3684C5.96586 17.3288 5.40197 17.1958 4.90575 17.0002C4.38644 16.8019 3.91604 16.4903 3.52752 16.0874C3.13195 15.6917 2.82591 15.213 2.63075 14.6846C2.43786 14.1803 2.30797 13.6056 2.26908 12.7624C2.23252 11.9185 2.22241 11.6501 2.22241 9.49919C2.22241 7.34823 2.23019 7.07985 2.26908 6.23594C2.30797 5.39202 2.43786 4.81885 2.63075 4.31377C2.82537 3.78508 3.13148 3.30623 3.52752 2.91094C3.91616 2.50816 4.38652 2.19664 4.90575 1.99814C5.40197 1.80181 5.96508 1.6696 6.79419 1.63002C7.6233 1.59281 7.88697 1.58252 10.0002 1.58252ZM10.0002 5.54085C8.96879 5.54085 7.97964 5.95789 7.25033 6.70022C6.52102 7.44255 6.1113 8.44937 6.1113 9.49919C6.1113 10.549 6.52102 11.5558 7.25033 12.2982C7.97964 13.0405 8.96879 13.4575 10.0002 13.4575C11.0316 13.4575 12.0207 13.0405 12.75 12.2982C13.4794 11.5558 13.8891 10.549 13.8891 9.49919C13.8891 8.44937 13.4794 7.44255 12.75 6.70022C12.0207 5.95789 11.0316 5.54085 10.0002 5.54085ZM15.0557 5.34294C15.0557 5.08048 14.9533 4.82878 14.771 4.64319C14.5887 4.45761 14.3414 4.35335 14.0835 4.35335C13.8257 4.35335 13.5784 4.45761 13.3961 4.64319C13.2137 4.82878 13.1113 5.08048 13.1113 5.34294C13.1113 5.60539 13.2137 5.85709 13.3961 6.04268C13.5784 6.22826 13.8257 6.33252 14.0835 6.33252C14.3414 6.33252 14.5887 6.22826 14.771 6.04268C14.9533 5.85709 15.0557 5.60539 15.0557 5.34294ZM10.0002 7.12419C10.619 7.12419 11.2125 7.37441 11.6501 7.81981C12.0877 8.26521 12.3335 8.8693 12.3335 9.49919C12.3335 10.1291 12.0877 10.7332 11.6501 11.1786C11.2125 11.624 10.619 11.8742 10.0002 11.8742C9.38135 11.8742 8.78786 11.624 8.35027 11.1786C7.91269 10.7332 7.66686 10.1291 7.66686 9.49919C7.66686 8.8693 7.91269 8.26521 8.35027 7.81981C8.78786 7.37441 9.38135 7.12419 10.0002 7.12419Z" fill="#1A141F"/>
</svg>
