<svg width="403" height="307" viewBox="0 0 403 307" fill="none" xmlns="http://www.w3.org/2000/svg">
<g clip-path="url(#clip0_1332_15150)">
<path d="M322.533 73.5288H320.878V26.9554C320.878 23.4156 320.2 19.9104 318.882 16.6401C317.563 13.3697 315.631 10.3981 313.195 7.89508C310.759 5.39203 307.867 3.40651 304.684 2.05187C301.502 0.697229 298.09 3.34997e-06 294.646 0H198.618C191.66 -1.5786e-05 184.988 2.83991 180.068 7.89501C175.149 12.9501 172.385 19.8063 172.385 26.9553V282.461C172.385 289.61 175.149 296.466 180.068 301.521C184.988 306.576 191.66 309.416 198.618 309.416H294.645C301.603 309.416 308.275 306.576 313.195 301.521C318.115 296.466 320.878 289.61 320.878 282.461V106.681H322.533L322.533 73.5288Z" fill="#E6E6E6"/>
<path d="M315.294 27.1435V282.273C315.294 287.612 313.23 292.732 309.556 296.507C305.882 300.283 300.899 302.404 295.703 302.404H199.214C194.019 302.404 189.035 300.283 185.361 296.507C181.687 292.732 179.623 287.612 179.623 282.273V27.1435C179.623 21.8045 181.687 16.6842 185.361 12.9089C189.035 9.13364 194.019 7.01267 199.214 7.01257H210.92C210.345 8.46488 210.125 10.0402 210.282 11.5999C210.438 13.1596 210.965 14.6559 211.816 15.9572C212.668 17.2585 213.817 18.3249 215.164 19.0627C216.51 19.8004 218.012 20.1869 219.538 20.188H274.551C276.077 20.1869 277.58 19.8004 278.926 19.0627C280.273 18.3249 281.422 17.2585 282.273 15.9572C283.124 14.6559 283.651 13.1596 283.808 11.5999C283.964 10.0402 283.745 8.46488 283.17 7.01257H295.703C300.899 7.01267 305.882 9.13364 309.556 12.9089C313.23 16.6842 315.294 21.8045 315.294 27.1435Z" fill="white"/>
<path d="M61.4101 254.395C60.66 254.395 59.935 254.117 59.3688 253.611L54.7675 249.487C54.1484 248.93 53.769 248.144 53.7124 247.301C53.6559 246.458 53.9267 245.626 54.4657 244.987L87.9227 205.571C87.9891 205.49 88.0602 205.414 88.1358 205.343C88.6967 204.801 89.4335 204.494 90.2029 204.48C90.9723 204.465 91.7193 204.746 92.2989 205.266L96.9035 209.389C97.2105 209.664 97.4617 209.999 97.6428 210.374C97.8238 210.749 97.9311 211.158 97.9586 211.575L97.9587 211.576C97.9866 211.994 97.9341 212.414 97.804 212.811C97.6739 213.208 97.4688 213.574 97.2006 213.89L63.7483 253.305C63.4568 253.648 63.0973 253.922 62.694 254.11C62.2907 254.298 61.8529 254.395 61.4101 254.395Z" fill="#D2E2EA"/>
<path d="M122.875 213.388C122.552 213.388 122.232 213.337 121.924 213.239C121.535 213.112 121.175 212.907 120.863 212.637C120.552 212.366 120.296 212.035 120.109 211.662L117.312 206.084C116.994 205.454 116.89 204.732 117.018 204.034C117.146 203.336 117.498 202.702 118.018 202.234C118.207 202.058 118.419 201.908 118.646 201.789L163.887 177.823C164.618 177.437 165.469 177.364 166.252 177.621C167.036 177.878 167.688 178.444 168.067 179.194L170.864 184.772C171.24 185.524 171.31 186.398 171.06 187.203C170.809 188.008 170.259 188.678 169.529 189.068L124.29 213.033C123.852 213.266 123.367 213.388 122.875 213.388Z" fill="#D2E2EA"/>
<path d="M122.059 214.74C121.483 214.738 120.918 214.572 120.427 214.261C119.936 213.95 119.537 213.506 119.276 212.978L116.537 207.37C116.205 206.692 116.12 205.915 116.298 205.179C116.31 205.122 116.328 205.06 116.346 205.001L116.362 204.945C116.41 204.798 116.458 204.59 116.513 204.348L116.546 204.207C116.748 203.305 117 202.181 117.506 201.713C117.569 201.653 117.641 201.602 117.718 201.562L137.58 189.19C137.947 188.995 138.348 188.878 138.76 188.845C139.172 188.811 139.586 188.863 139.978 188.996C140.758 189.263 141.403 189.836 141.774 190.59L146.789 201.212C147.156 201.968 147.216 202.843 146.957 203.644C146.697 204.446 146.139 205.109 145.405 205.488L123.41 214.411C122.991 214.629 122.529 214.742 122.059 214.74Z" fill="#2F2E41"/>
<path d="M107.187 185.302C119.417 185.302 129.331 175.115 129.331 162.548C129.331 149.981 119.417 139.794 107.187 139.794C94.9572 139.794 85.043 149.981 85.043 162.548C85.043 175.115 94.9572 185.302 107.187 185.302Z" fill="#D2E2EA"/>
<path d="M101.628 309.796H95.5212C94.6984 309.795 93.9096 309.459 93.3279 308.861C92.7461 308.263 92.4189 307.453 92.418 306.607V253.459C92.4189 252.614 92.7461 251.803 93.3279 251.205C93.9096 250.608 94.6984 250.271 95.5212 250.27H101.628C102.013 250.269 102.394 250.344 102.751 250.49C103.312 250.711 103.797 251.096 104.147 251.598C104.498 252.099 104.697 252.695 104.722 253.311C104.73 253.36 104.733 253.41 104.732 253.459V306.607C104.731 307.453 104.403 308.263 103.822 308.861C103.24 309.459 102.451 309.795 101.628 309.796Z" fill="#D2E2EA"/>
<path d="M135.668 277.212C135.639 277.163 135.607 277.114 135.573 277.068C135.489 276.865 135.384 276.673 135.258 276.494L124.848 261.529L116.271 249.203H101.641L102.675 250.687L104.516 253.336L110.222 261.533L122.449 279.104L111.116 302.496C110.652 303.448 111.443 304.817 112.87 305.549L118.336 308.346C118.878 308.631 119.477 308.785 120.086 308.797C120.856 308.797 121.497 308.504 121.766 307.947L135.854 278.866C135.965 278.598 136.006 278.304 135.974 278.014C135.941 277.724 135.836 277.448 135.668 277.212Z" fill="#D2E2EA"/>
<path d="M85.877 228.63C85.0669 228.627 84.2902 228.298 83.7123 227.715L75.4261 219.549C74.9408 219.06 74.6269 218.42 74.5333 217.729C74.5105 217.586 74.4988 217.441 74.4982 217.296C74.4966 217.131 74.5087 216.967 74.5343 216.805C74.6273 216.134 74.9288 215.513 75.3939 215.033L93.0151 199.38C93.4926 198.874 94.7037 198.98 95.7721 199.072L95.9333 199.086C96.1302 199.108 96.328 199.119 96.526 199.12C96.5991 199.128 96.684 199.124 96.7622 199.129C97.5035 199.182 98.2021 199.505 98.7323 200.04L103.081 204.445C103.666 205.039 103.998 205.848 104.004 206.693C104.01 207.539 103.689 208.352 103.112 208.955L88.1216 227.656C87.8311 227.966 87.4824 228.212 87.0966 228.38C86.7108 228.547 86.2959 228.632 85.877 228.63Z" fill="#2F2E41"/>
<path d="M106.308 171.832L106.285 170.981C107.825 170.937 109.182 170.838 110.202 170.072C110.491 169.843 110.729 169.552 110.899 169.22C111.069 168.888 111.167 168.522 111.187 168.147C111.205 167.918 111.171 167.688 111.088 167.475C111.006 167.261 110.876 167.07 110.71 166.917C110.033 166.329 108.944 166.519 108.15 166.893L107.465 167.216L108.778 157.356L109.598 157.472L108.481 165.859C109.56 165.533 110.559 165.673 111.244 166.267C111.507 166.503 111.713 166.798 111.847 167.129C111.98 167.461 112.038 167.819 112.014 168.177C111.99 168.681 111.859 169.173 111.63 169.619C111.401 170.065 111.08 170.454 110.69 170.759C109.379 171.743 107.677 171.792 106.308 171.832Z" fill="#2F2E41"/>
<path d="M118.109 158.195H113.652V159.045H118.109V158.195Z" fill="#2F2E41"/>
<path d="M104.041 158.195H99.584V159.045H104.041V158.195Z" fill="#2F2E41"/>
<path d="M127.285 261.745H87.9785C86.4704 261.745 85.2891 259.256 85.2891 256.079V216.254C85.2902 211.374 86.8036 206.622 89.6098 202.685C92.416 198.749 96.3693 195.833 100.897 194.36C100.836 194.08 100.806 193.795 100.805 193.508C100.806 192.438 101.221 191.411 101.958 190.654C102.694 189.897 103.694 189.471 104.736 189.469H110.528C111.57 189.471 112.57 189.897 113.306 190.654C114.043 191.411 114.458 192.438 114.459 193.508C114.458 193.795 114.428 194.081 114.367 194.361C116.554 195.069 118.621 196.121 120.495 197.48C120.88 197.757 121.26 198.052 121.624 198.356C124.84 201.006 127.279 204.52 128.668 208.509C128.896 209.157 129.098 209.828 129.269 210.504L129.269 210.504C129.738 212.383 129.975 214.315 129.975 216.254V256.079C129.975 259.177 128.834 261.648 127.372 261.734C127.344 261.742 127.315 261.746 127.285 261.745Z" fill="#2F2E41"/>
<path d="M105.358 276.2H89.6347C88.9217 276.2 88.2381 275.908 87.7339 275.39C87.2297 274.872 86.9461 274.17 86.9453 273.437V260.682C86.9461 259.95 87.2297 259.247 87.7339 258.729C88.2381 258.211 88.9217 257.92 89.6347 257.919H105.358C106.071 257.92 106.754 258.211 107.258 258.729C107.763 259.247 108.046 259.95 108.047 260.682V273.437C108.046 274.17 107.763 274.872 107.258 275.39C106.754 275.908 106.071 276.2 105.358 276.2Z" fill="#2F2E41"/>
<path d="M115.048 276.489C114.499 276.489 113.963 276.316 113.512 275.994C113.06 275.673 112.716 275.217 112.524 274.688L108.201 262.732C107.953 262.045 107.981 261.285 108.278 260.619C108.575 259.953 109.117 259.435 109.785 259.179L124.523 253.552C125.192 253.298 125.932 253.326 126.58 253.632C127.228 253.937 127.732 254.494 127.981 255.18L132.304 267.136C132.552 267.823 132.524 268.583 132.227 269.249C131.93 269.915 131.388 270.433 130.72 270.689L115.982 276.316C115.683 276.43 115.367 276.489 115.048 276.489Z" fill="#2F2E41"/>
<path d="M96.7757 151.786C100.88 149.349 105.856 151.219 110.095 152.241C114.625 153.333 119.413 153.569 123.682 151.363C127.235 149.526 130.056 145.905 130.395 141.756C130.711 137.877 128.585 133.745 124.989 132.29C121.326 130.808 116.663 132.747 115.328 136.61L116.462 136.457C112.072 130.535 106.66 124.424 99.1086 123.27C95.7206 122.753 92.1046 123.224 89.2097 125.211C86.4963 127.075 84.7486 129.952 83.7181 133.085C82.5226 136.721 82.2098 140.613 81.9935 144.42C81.9469 145.24 83.1883 145.238 83.2347 144.42C83.5745 138.442 84.1258 131.231 88.8829 127.054C91.3522 124.885 94.6496 124.131 97.8332 124.392C101.215 124.671 104.35 126.111 107.069 128.149C110.326 130.591 112.962 133.825 115.39 137.101C115.455 137.205 115.547 137.289 115.655 137.341C115.764 137.393 115.885 137.413 116.005 137.397C116.124 137.381 116.236 137.33 116.328 137.251C116.42 137.171 116.488 137.066 116.525 136.949C117.597 133.848 121.36 132.402 124.288 133.382C127.6 134.49 129.431 138.349 129.153 141.756C128.835 145.657 125.93 148.938 122.57 150.499C118.523 152.381 114.089 151.921 109.901 150.882C105.453 149.779 100.428 148.143 96.1492 150.685C96.013 150.773 95.9156 150.912 95.8774 151.073C95.8392 151.234 95.8633 151.403 95.9446 151.546C96.0259 151.689 96.158 151.794 96.313 151.839C96.4681 151.883 96.634 151.865 96.7757 151.786Z" fill="#2F2E41"/>
<path d="M204.357 30.6752C202.619 30.6752 200.897 31.0271 199.291 31.7108C197.684 32.3945 196.225 33.3966 194.995 34.6599C193.766 35.9232 192.79 37.423 192.125 39.0736C191.46 40.7242 191.117 42.4934 191.117 44.28C191.117 46.0666 191.46 47.8357 192.125 49.4863C192.79 51.137 193.766 52.6367 194.995 53.9001C196.225 55.1634 197.684 56.1655 199.291 56.8493C200.897 57.533 202.619 57.8849 204.357 57.8849C207.869 57.8849 211.237 56.4515 213.72 53.9001C216.203 51.3487 217.598 47.8883 217.598 44.28C217.598 40.6718 216.203 37.2113 213.72 34.6599C211.237 32.1085 207.869 30.6752 204.357 30.6752Z" fill="#F2F2F2"/>
<path d="M300.489 55.7592H230.978C230.1 55.7592 229.258 55.4009 228.637 54.763C228.017 54.1252 227.668 53.2601 227.668 52.358C227.668 51.4559 228.017 50.5908 228.637 49.953C229.258 49.3151 230.1 48.9568 230.978 48.9568H300.489C301.367 48.9568 302.209 49.3151 302.83 49.953C303.451 50.5908 303.799 51.4559 303.799 52.358C303.799 53.2601 303.451 54.1252 302.83 54.763C302.209 55.4009 301.367 55.7592 300.489 55.7592Z" fill="#F2F2F2"/>
<path d="M252.907 41.304H230.978C230.1 41.304 229.258 40.9457 228.637 40.3078C228.017 39.67 227.668 38.8049 227.668 37.9028C227.668 37.0007 228.017 36.1356 228.637 35.4978C229.258 34.8599 230.1 34.5016 230.978 34.5016H252.907C253.785 34.5016 254.627 34.8599 255.248 35.4978C255.869 36.1356 256.217 37.0007 256.217 37.9028C256.217 38.8049 255.869 39.67 255.248 40.3078C254.627 40.9457 253.785 41.304 252.907 41.304Z" fill="#F2F2F2"/>
<path d="M204.357 87.6455C202.619 87.6455 200.897 87.9974 199.291 88.6811C197.684 89.3648 196.225 90.3669 194.995 91.6302C193.766 92.8936 192.79 94.3934 192.125 96.044C191.46 97.6946 191.117 99.4637 191.117 101.25C191.117 103.037 191.46 104.806 192.125 106.457C192.79 108.107 193.766 109.607 194.995 110.87C196.225 112.134 197.684 113.136 199.291 113.82C200.897 114.503 202.619 114.855 204.357 114.855C207.869 114.855 211.237 113.422 213.72 110.87C216.203 108.319 217.598 104.859 217.598 101.25C217.598 97.6421 216.203 94.1817 213.72 91.6303C211.237 89.0789 207.869 87.6455 204.357 87.6455Z" fill="#F2F2F2"/>
<path d="M300.489 112.73H230.978C230.1 112.73 229.258 112.371 228.637 111.733C228.017 111.096 227.668 110.23 227.668 109.328C227.668 108.426 228.017 107.561 228.637 106.923C229.258 106.285 230.1 105.927 230.978 105.927H300.489C301.367 105.927 302.209 106.285 302.83 106.923C303.451 107.561 303.799 108.426 303.799 109.328C303.799 110.23 303.451 111.096 302.83 111.733C302.209 112.371 301.367 112.73 300.489 112.73Z" fill="#F2F2F2"/>
<path d="M252.907 98.2744H230.978C230.1 98.2744 229.258 97.916 228.637 97.2782C228.017 96.6403 227.668 95.7752 227.668 94.8731C227.668 93.9711 228.017 93.106 228.637 92.4681C229.258 91.8303 230.1 91.4719 230.978 91.4719H252.907C253.785 91.4719 254.627 91.8303 255.248 92.4681C255.869 93.106 256.217 93.9711 256.217 94.8731C256.217 95.7752 255.869 96.6403 255.248 97.2782C254.627 97.916 253.785 98.2744 252.907 98.2744Z" fill="#F2F2F2"/>
<path d="M204.357 201.586C200.846 201.586 197.478 203.02 194.995 205.571C192.512 208.122 191.117 211.583 191.117 215.191C191.117 218.799 192.512 222.26 194.995 224.811C197.478 227.363 200.846 228.796 204.357 228.796C207.869 228.796 211.237 227.363 213.72 224.811C216.203 222.26 217.598 218.799 217.598 215.191C217.598 211.583 216.203 208.122 213.72 205.571C211.237 203.02 207.869 201.586 204.357 201.586Z" fill="#F2F2F2"/>
<path d="M300.489 226.67H230.978C230.1 226.67 229.258 226.312 228.637 225.674C228.017 225.036 227.668 224.171 227.668 223.269C227.668 222.367 228.017 221.502 228.637 220.864C229.258 220.226 230.1 219.868 230.978 219.868H300.489C301.367 219.868 302.209 220.226 302.83 220.864C303.451 221.502 303.799 222.367 303.799 223.269C303.799 224.171 303.451 225.036 302.83 225.674C302.209 226.312 301.367 226.67 300.489 226.67Z" fill="#F2F2F2"/>
<path d="M252.907 212.215H230.978C230.1 212.215 229.258 211.857 228.637 211.219C228.017 210.581 227.668 209.716 227.668 208.814C227.668 207.912 228.017 207.047 228.637 206.409C229.258 205.771 230.1 205.413 230.978 205.413H252.907C253.785 205.413 254.627 205.771 255.248 206.409C255.869 207.047 256.217 207.912 256.217 208.814C256.217 209.716 255.869 210.581 255.248 211.219C254.627 211.857 253.785 212.215 252.907 212.215Z" fill="#F2F2F2"/>
<path d="M204.357 258.557C202.619 258.557 200.897 258.909 199.291 259.592C197.684 260.276 196.225 261.278 194.995 262.541C193.766 263.805 192.79 265.304 192.125 266.955C191.46 268.606 191.117 270.375 191.117 272.161C191.117 273.948 191.46 275.717 192.125 277.368C192.79 279.018 193.766 280.518 194.995 281.782C196.225 283.045 197.684 284.047 199.291 284.731C200.897 285.414 202.619 285.766 204.357 285.766C207.869 285.766 211.237 284.333 213.72 281.782C216.203 279.23 217.598 275.77 217.598 272.161C217.598 268.553 216.203 265.093 213.72 262.541C211.237 259.99 207.869 258.557 204.357 258.557Z" fill="#F2F2F2"/>
<path d="M300.489 283.641H230.978C230.1 283.641 229.258 283.282 228.637 282.644C228.017 282.007 227.668 281.141 227.668 280.239C227.668 279.337 228.017 278.472 228.637 277.834C229.258 277.196 230.1 276.838 230.978 276.838H300.489C301.367 276.838 302.209 277.196 302.83 277.834C303.451 278.472 303.799 279.337 303.799 280.239C303.799 281.141 303.451 282.007 302.83 282.644C302.209 283.282 301.367 283.641 300.489 283.641Z" fill="#F2F2F2"/>
<path d="M252.907 269.185H230.978C230.1 269.185 229.258 268.827 228.637 268.189C228.017 267.551 227.668 266.686 227.668 265.784C227.668 264.882 228.017 264.017 228.637 263.379C229.258 262.741 230.1 262.383 230.978 262.383H252.907C253.785 262.383 254.627 262.741 255.248 263.379C255.869 264.017 256.217 264.882 256.217 265.784C256.217 266.686 255.869 267.551 255.248 268.189C254.627 268.827 253.785 269.185 252.907 269.185Z" fill="#F2F2F2"/>
<path d="M327.315 190.957H167.604C165.794 190.955 164.059 190.216 162.779 188.9C161.499 187.585 160.779 185.802 160.777 183.942V131.224C160.779 129.364 161.499 127.581 162.779 126.266C164.059 124.95 165.794 124.211 167.604 124.209H327.315C329.125 124.211 330.86 124.95 332.14 126.266C333.42 127.581 334.14 129.364 334.142 131.224V183.942C334.14 185.802 333.42 187.585 332.14 188.9C330.86 190.216 329.125 190.955 327.315 190.957Z" fill="white"/>
<path d="M204.357 143.978C200.846 143.978 197.478 145.412 194.995 147.963C192.512 150.514 191.117 153.975 191.117 157.583C191.117 161.191 192.512 164.652 194.995 167.203C197.478 169.755 200.846 171.188 204.357 171.188C207.869 171.188 211.237 169.755 213.72 167.203C216.203 164.652 217.598 161.191 217.598 157.583C217.598 153.975 216.203 150.514 213.72 147.963C211.237 145.412 207.869 143.978 204.357 143.978Z" fill="#4E7E95"/>
<path d="M300.489 169.062H230.978C230.1 169.062 229.258 168.704 228.637 168.066C228.017 167.428 227.668 166.563 227.668 165.661C227.668 164.759 228.017 163.894 228.637 163.256C229.258 162.618 230.1 162.26 230.978 162.26H300.489C301.367 162.26 302.209 162.618 302.83 163.256C303.451 163.894 303.799 164.759 303.799 165.661C303.799 166.563 303.451 167.428 302.83 168.066C302.209 168.704 301.367 169.062 300.489 169.062Z" fill="#CCCCCC"/>
<path d="M252.907 154.607H230.978C230.1 154.607 229.258 154.249 228.637 153.611C228.017 152.973 227.668 152.108 227.668 151.206C227.668 150.304 228.017 149.439 228.637 148.801C229.258 148.163 230.1 147.805 230.978 147.805H252.907C253.785 147.805 254.627 148.163 255.248 148.801C255.869 149.439 256.217 150.304 256.217 151.206C256.217 152.108 255.869 152.973 255.248 153.611C254.627 154.249 253.785 154.607 252.907 154.607Z" fill="#CCCCCC"/>
<path d="M327.315 190.957H167.604C165.794 190.955 164.059 190.216 162.779 188.9C161.499 187.585 160.779 185.802 160.777 183.942V131.224C160.779 129.364 161.499 127.581 162.779 126.266C164.059 124.95 165.794 124.211 167.604 124.209H327.315C329.125 124.211 330.86 124.95 332.14 126.266C333.42 127.581 334.14 129.364 334.142 131.224V183.942C334.14 185.802 333.42 187.585 332.14 188.9C330.86 190.216 329.125 190.955 327.315 190.957ZM167.604 124.634C165.904 124.636 164.274 125.331 163.072 126.566C161.869 127.801 161.193 129.476 161.191 131.224V183.942C161.193 185.69 161.869 187.365 163.072 188.6C164.274 189.835 165.904 190.53 167.604 190.532H327.315C329.015 190.53 330.645 189.835 331.848 188.6C333.05 187.365 333.726 185.69 333.728 183.942V131.224C333.726 129.476 333.05 127.801 331.848 126.566C330.645 125.331 329.015 124.636 327.315 124.634H167.604Z" fill="#3F3D56"/>
<path d="M203.101 163.233C202.753 163.234 202.413 163.118 202.135 162.903L202.117 162.89L198.476 160.028C198.136 159.759 197.914 159.363 197.858 158.926C197.802 158.489 197.917 158.047 198.178 157.698C198.439 157.348 198.824 157.119 199.249 157.061C199.674 157.003 200.105 157.121 200.445 157.389L202.804 159.247L208.377 151.776C208.506 151.603 208.667 151.458 208.851 151.349C209.035 151.239 209.238 151.169 209.448 151.14C209.659 151.111 209.873 151.126 210.078 151.182C210.283 151.238 210.476 151.336 210.644 151.469L210.645 151.469L210.61 151.518L210.646 151.469C210.986 151.738 211.208 152.134 211.264 152.571C211.32 153.008 211.205 153.45 210.945 153.8L204.39 162.583C204.238 162.785 204.043 162.949 203.82 163.062C203.597 163.174 203.351 163.232 203.103 163.231L203.101 163.233Z" fill="white"/>
</g>
<defs>
<clipPath id="clip0_1332_15150">
<rect width="403" height="310" fill="white"/>
</clipPath>
</defs>
</svg>
