<svg width="247" height="161" viewBox="0 0 247 161" fill="none" xmlns="http://www.w3.org/2000/svg">
<g clip-path="url(#clip0_949_10695)">
<path d="M247.001 66.124H246.584V54.2731C246.584 53.3723 246.412 52.4804 246.08 51.6482C245.748 50.8161 245.261 50.0599 244.646 49.423C244.032 48.7861 243.303 48.2809 242.501 47.9362C241.698 47.5915 240.838 47.4141 239.97 47.4141H215.759C214.89 47.4141 214.03 47.5915 213.227 47.9362C212.425 48.2809 211.696 48.7861 211.082 49.423C210.468 50.0599 209.98 50.8161 209.648 51.6482C209.316 52.4804 209.145 53.3723 209.145 54.2731V119.288C209.145 120.189 209.316 121.081 209.648 121.913C209.98 122.745 210.468 123.502 211.082 124.138C211.696 124.775 212.425 125.281 213.227 125.625C214.03 125.97 214.89 126.147 215.759 126.147H239.97C240.838 126.147 241.698 125.97 242.501 125.625C243.303 125.281 244.032 124.775 244.646 124.138C245.261 123.502 245.748 122.745 246.08 121.913C246.412 121.081 246.584 120.189 246.584 119.288V74.5598H247.001V66.124Z" fill="#3F3D56"/>
<path d="M245.176 54.6763V119.597C245.176 120.956 244.655 122.259 243.729 123.219C242.802 124.18 241.546 124.72 240.236 124.72H215.908C215.26 124.72 214.618 124.587 214.018 124.33C213.419 124.072 212.875 123.695 212.416 123.219C211.958 122.744 211.594 122.179 211.346 121.557C211.098 120.936 210.97 120.27 210.971 119.597V54.6763C210.971 53.3183 211.491 52.0158 212.417 51.0555C213.343 50.0952 214.599 49.5557 215.908 49.5557H218.86C218.715 49.9251 218.66 50.3259 218.699 50.7226C218.739 51.1193 218.872 51.4999 219.086 51.8309C219.301 52.1619 219.591 52.4332 219.93 52.6209C220.269 52.8086 220.648 52.907 221.033 52.9074H234.903C235.288 52.9081 235.667 52.8105 236.007 52.6231C236.347 52.4357 236.637 52.1644 236.852 51.833C237.067 51.5017 237.2 51.1205 237.239 50.7233C237.278 50.3261 237.222 49.9251 237.076 49.5557H240.236C241.546 49.5556 242.802 50.095 243.728 51.0553C244.655 52.0155 245.175 53.318 245.176 54.6763Z" fill="#D0CDE1"/>
<path d="M240.569 82.7935H212.289V90.7072H240.569V82.7935Z" fill="#F8DC81"/>
<path d="M241.692 89.3109H214.31C214.132 89.3107 213.96 89.2371 213.834 89.1062C213.708 88.9753 213.637 88.7978 213.637 88.6126V81.6299C213.637 81.4448 213.708 81.2673 213.834 81.1364C213.96 81.0055 214.132 80.9318 214.31 80.9316H241.692C241.871 80.9318 242.042 81.0055 242.168 81.1364C242.294 81.2673 242.365 81.4448 242.365 81.6299V88.6126C242.365 88.7978 242.294 88.9753 242.168 89.1062C242.042 89.2371 241.871 89.3107 241.692 89.3109ZM214.31 81.3972C214.251 81.3972 214.193 81.4218 214.151 81.4654C214.109 81.509 214.086 81.5682 214.086 81.6299V88.6126C214.086 88.6744 214.109 88.7335 214.151 88.7772C214.193 88.8208 214.251 88.8454 214.31 88.8454H241.692C241.752 88.8454 241.809 88.8208 241.851 88.7772C241.893 88.7335 241.917 88.6744 241.917 88.6126V81.6299C241.917 81.5682 241.893 81.509 241.851 81.4654C241.809 81.4218 241.752 81.3972 241.692 81.3972H214.31Z" fill="#3F3D56"/>
<path d="M219.023 87.2158H215.432V87.6813H219.023V87.2158Z" fill="#3F3D56"/>
<path d="M223.96 87.2158H220.369V87.6813H223.96V87.2158Z" fill="#3F3D56"/>
<path d="M228.9 87.2158H225.309V87.6813H228.9V87.2158Z" fill="#3F3D56"/>
<path d="M233.837 87.2158H230.246V87.6813H233.837V87.2158Z" fill="#3F3D56"/>
<path d="M238.775 87.2158H235.184V87.6813H238.775V87.2158Z" fill="#3F3D56"/>
<path opacity="0.1" d="M245.176 112.996V119.597C245.176 120.956 244.655 122.259 243.729 123.219C242.802 124.18 241.546 124.72 240.236 124.72H215.908C215.26 124.72 214.618 124.587 214.018 124.33C213.419 124.072 212.875 123.695 212.416 123.219C211.958 122.743 211.594 122.179 211.346 121.557C211.098 120.936 210.97 120.27 210.971 119.597V89.2314L245.176 112.996Z" fill="black"/>
<path d="M128.572 107H22.4102V161H128.572V107Z" fill="#D0CDE1"/>
<path opacity="0.1" d="M101.583 161H22.859C22.7401 160.999 22.6261 160.95 22.542 160.863C22.4579 160.776 22.4105 160.658 22.4102 160.534V107.466C22.4105 107.342 22.4579 107.224 22.542 107.137C22.6261 107.05 22.7401 107 22.859 107H23.8556L101.583 161Z" fill="black"/>
<path d="M236.081 114.216H71.5645V114.681H236.081V114.216Z" fill="#3F3D56"/>
<path d="M123.577 1.00499H76.5586V0H55.2385V1.00499H8.02616C7.60849 1.00499 7.19492 1.0903 6.80905 1.25606C6.42318 1.42181 6.07257 1.66476 5.77724 1.97103C5.4819 2.2773 5.24763 2.6409 5.0878 3.04107C4.92797 3.44123 4.8457 3.87012 4.8457 4.30326V71.0711C4.8457 71.9459 5.18078 72.7848 5.77723 73.4034C6.37368 74.0219 7.18265 74.3694 8.02616 74.3694H123.577C124.421 74.3694 125.23 74.0219 125.826 73.4034C126.423 72.7848 126.758 71.9459 126.758 71.0711V4.30326C126.758 3.87012 126.675 3.44123 126.516 3.04107C126.356 2.6409 126.121 2.2773 125.826 1.97103C125.531 1.66476 125.18 1.42181 124.794 1.25606C124.408 1.0903 123.995 1.00499 123.577 1.00499Z" fill="#3F3D56"/>
<path d="M122.493 6.83301H9.11133V73.1643H122.493V6.83301Z" fill="#D0CDE1"/>
<path d="M65.7039 5.02478C66.3462 5.02478 66.8668 4.48483 66.8668 3.81878C66.8668 3.15273 66.3462 2.61279 65.7039 2.61279C65.0617 2.61279 64.541 3.15273 64.541 3.81878C64.541 4.48483 65.0617 5.02478 65.7039 5.02478Z" fill="#F8DC81"/>
<path d="M42.8354 31.5866H40.1421C39.9636 31.5864 39.7924 31.5128 39.6662 31.3819C39.5399 31.251 39.4689 31.0735 39.4688 30.8883V28.0952C39.4689 27.9101 39.5399 27.7326 39.6662 27.6017C39.7924 27.4708 39.9636 27.3972 40.1421 27.397H42.8354C43.0139 27.3972 43.1851 27.4708 43.3113 27.6017C43.4375 27.7326 43.5085 27.9101 43.5087 28.0952V30.8883C43.5085 31.0735 43.4375 31.251 43.3113 31.3819C43.1851 31.5128 43.0139 31.5864 42.8354 31.5866ZM40.1421 27.8625C40.0826 27.8626 40.0255 27.8871 39.9835 27.9307C39.9414 27.9744 39.9177 28.0335 39.9176 28.0952V30.8883C39.9177 30.95 39.9414 31.0092 39.9835 31.0528C40.0255 31.0965 40.0826 31.121 40.1421 31.1211H42.8354C42.8949 31.121 42.9519 31.0965 42.994 31.0528C43.0361 31.0092 43.0598 30.95 43.0598 30.8883V28.0952C43.0598 28.0335 43.0361 27.9744 42.994 27.9307C42.9519 27.8871 42.8949 27.8626 42.8354 27.8625H40.1421Z" fill="#3F3D56"/>
<path d="M90.8664 31.1211H39.6934V31.5866H90.8664V31.1211Z" fill="#3F3D56"/>
<path d="M89.5185 43.9229H77.623V47.647H89.5185V43.9229Z" fill="#F8DC81"/>
<path d="M90.4171 46.716H79.4194C79.2409 46.7158 79.0698 46.6422 78.9435 46.5113C78.8173 46.3804 78.7463 46.2029 78.7461 46.0177V43.2246C78.7463 43.0395 78.8173 42.862 78.9435 42.7311C79.0698 42.6002 79.2409 42.5266 79.4194 42.5264H90.4171C90.5957 42.5266 90.7668 42.6002 90.893 42.7311C91.0193 42.862 91.0903 43.0395 91.0905 43.2246V46.0177C91.0903 46.2029 91.0193 46.3804 90.893 46.5113C90.7668 46.6422 90.5957 46.7158 90.4171 46.716ZM79.4194 42.9919C79.3599 42.992 79.3029 43.0165 79.2608 43.0601C79.2187 43.1038 79.1951 43.1629 79.195 43.2246V46.0177C79.1951 46.0794 79.2187 46.1386 79.2608 46.1822C79.3029 46.2259 79.3599 46.2504 79.4194 46.2505H90.4171C90.4766 46.2504 90.5337 46.2259 90.5758 46.1822C90.6178 46.1386 90.6415 46.0794 90.6416 46.0177V43.2246C90.6415 43.1629 90.6178 43.1038 90.5758 43.0601C90.5337 43.0165 90.4766 42.992 90.4171 42.9919H79.4194Z" fill="#3F3D56"/>
<path d="M180.419 48.1128H157.975V64.4058H180.419V48.1128Z" fill="#F8DC81"/>
<path d="M182.663 63.1254H161.117C160.878 63.1252 160.65 63.027 160.482 62.8524C160.314 62.6779 160.219 62.4412 160.219 62.1944V46.8324C160.219 46.5856 160.314 46.3489 160.482 46.1744C160.65 45.9998 160.878 45.9016 161.117 45.9014H182.663C182.901 45.9016 183.129 45.9998 183.298 46.1743C183.466 46.3489 183.561 46.5856 183.561 46.8324V62.1944C183.561 62.4412 183.466 62.6779 183.298 62.8524C183.129 63.027 182.901 63.1252 182.663 63.1254ZM161.117 46.8324V62.1944H182.664L182.663 46.8324H161.117Z" fill="#3F3D56"/>
<path d="M180.195 46.2507H179.297C179.297 44.2136 178.517 42.2599 177.128 40.8194C175.739 39.3789 173.855 38.5697 171.89 38.5697C169.926 38.5697 168.042 39.3789 166.653 40.8194C165.264 42.2599 164.484 44.2136 164.484 46.2507H163.586C163.586 43.9666 164.461 41.7761 166.018 40.1611C167.576 38.546 169.688 37.6387 171.89 37.6387C174.093 37.6387 176.205 38.546 177.762 40.1611C179.32 41.7761 180.195 43.9666 180.195 46.2507Z" fill="#3F3D56"/>
<path d="M174.135 52.6516C174.136 52.2463 174.034 51.8479 173.841 51.4958C173.647 51.1437 173.368 50.8502 173.031 50.6442C172.695 50.4382 172.312 50.327 171.921 50.3215C171.531 50.316 171.145 50.4164 170.803 50.6128C170.461 50.8093 170.175 51.0948 169.972 51.4413C169.769 51.7878 169.657 52.1833 169.647 52.5884C169.637 52.9936 169.729 53.3945 169.914 53.7515C170.099 54.1084 170.371 54.4091 170.703 54.6236V57.1219C170.703 57.2837 170.734 57.444 170.793 57.5935C170.853 57.743 170.94 57.8788 171.051 57.9932C171.161 58.1077 171.292 58.1984 171.436 58.2603C171.58 58.3223 171.735 58.3542 171.891 58.3542C172.206 58.3542 172.508 58.2243 172.731 57.9932C172.954 57.7621 173.079 57.4487 173.079 57.1219V54.6236C173.402 54.415 173.669 54.1245 173.854 53.7795C174.038 53.4344 174.135 53.0463 174.135 52.6516Z" fill="#3F3D56"/>
<path d="M67.4114 130.974H63.8203V131.44H67.4114V130.974Z" fill="#3F3D56"/>
<path d="M72.3489 130.974H68.7578V131.44H72.3489V130.974Z" fill="#3F3D56"/>
<path d="M77.2864 130.974H73.6953V131.44H77.2864V130.974Z" fill="#3F3D56"/>
<path d="M82.2259 130.974H78.6348V131.44H82.2259V130.974Z" fill="#3F3D56"/>
<path d="M87.1634 130.974H83.5723V131.44H87.1634V130.974Z" fill="#3F3D56"/>
<path d="M133.287 157.043H28.0228C27.7847 157.043 27.5565 156.945 27.3882 156.77C27.2199 156.596 27.1253 156.359 27.125 156.112V103.043C27.1253 102.796 27.2199 102.56 27.3882 102.385C27.5565 102.211 27.7847 102.113 28.0228 102.112H133.287C133.525 102.113 133.753 102.211 133.921 102.385C134.089 102.56 134.184 102.796 134.184 103.043V156.112C134.184 156.359 134.089 156.596 133.921 156.77C133.753 156.945 133.525 157.043 133.287 157.043ZM28.0228 103.043V156.112H133.287L133.287 103.043H28.0228Z" fill="#3F3D56"/>
<path d="M32.7353 110.957C33.4791 110.957 34.082 110.332 34.082 109.561C34.082 108.789 33.4791 108.164 32.7353 108.164C31.9916 108.164 31.3887 108.789 31.3887 109.561C31.3887 110.332 31.9916 110.957 32.7353 110.957Z" fill="#3F3D56"/>
<path d="M37.4482 110.957C38.192 110.957 38.7949 110.332 38.7949 109.561C38.7949 108.789 38.192 108.164 37.4482 108.164C36.7045 108.164 36.1016 108.789 36.1016 109.561C36.1016 110.332 36.7045 110.957 37.4482 110.957Z" fill="#3F3D56"/>
<path d="M42.1611 110.957C42.9049 110.957 43.5078 110.332 43.5078 109.561C43.5078 108.789 42.9049 108.164 42.1611 108.164C41.4174 108.164 40.8145 108.789 40.8145 109.561C40.8145 110.332 41.4174 110.957 42.1611 110.957Z" fill="#3F3D56"/>
<path d="M90.6411 134.233H60.3413C60.1628 134.232 59.9916 134.159 59.8654 134.028C59.7392 133.897 59.6682 133.72 59.668 133.534V125.621C59.6682 125.436 59.7392 125.258 59.8654 125.127C59.9916 124.996 60.1628 124.923 60.3413 124.922H90.6411C90.8197 124.923 90.9908 124.996 91.117 125.127C91.2433 125.258 91.3143 125.436 91.3145 125.621V133.534C91.3143 133.72 91.2433 133.897 91.117 134.028C90.9908 134.159 90.8197 134.232 90.6411 134.233ZM60.3413 125.388C60.2818 125.388 60.2247 125.412 60.1827 125.456C60.1406 125.5 60.1169 125.559 60.1169 125.621V133.534C60.1169 133.596 60.1406 133.655 60.1827 133.699C60.2247 133.743 60.2818 133.767 60.3413 133.767H90.6411C90.7007 133.767 90.7577 133.743 90.7998 133.699C90.8419 133.655 90.8655 133.596 90.8656 133.534V125.621C90.8655 125.559 90.8419 125.5 90.7998 125.456C90.7577 125.412 90.7007 125.388 90.6411 125.388H60.3413Z" fill="#3F3D56"/>
<path d="M98.2724 134.466C100.504 134.466 102.312 132.59 102.312 130.276C102.312 127.962 100.504 126.086 98.2724 126.086C96.0412 126.086 94.2324 127.962 94.2324 130.276C94.2324 132.59 96.0412 134.466 98.2724 134.466Z" fill="#F8DC81"/>
<path d="M99.6199 134C98.7765 134 97.952 133.741 97.2507 133.255C96.5494 132.769 96.0028 132.078 95.6801 131.27C95.3573 130.462 95.2729 129.573 95.4374 128.715C95.602 127.857 96.0081 127.069 96.6045 126.451C97.2009 125.832 97.9607 125.411 98.7879 125.24C99.6152 125.07 100.473 125.157 101.252 125.492C102.031 125.827 102.697 126.393 103.166 127.121C103.634 127.848 103.884 128.703 103.884 129.578C103.883 130.75 103.433 131.874 102.634 132.703C101.834 133.532 100.75 133.999 99.6199 134ZM99.6199 125.621C98.8653 125.621 98.1276 125.853 97.5001 126.288C96.8726 126.722 96.3836 127.34 96.0948 128.063C95.806 128.786 95.7304 129.582 95.8777 130.35C96.0249 131.117 96.3883 131.822 96.9219 132.376C97.4555 132.929 98.1354 133.306 98.8755 133.459C99.6157 133.611 100.383 133.533 101.08 133.233C101.777 132.934 102.373 132.427 102.792 131.776C103.212 131.125 103.435 130.36 103.435 129.578C103.434 128.529 103.032 127.523 102.317 126.781C101.601 126.039 100.631 125.622 99.6199 125.621Z" fill="#3F3D56"/>
<path d="M99.6787 131.229L97.5059 128.976L98.1406 128.317L99.5588 129.788L103.516 123.956L104.25 124.492L99.6787 131.229Z" fill="#3F3D56"/>
<path opacity="0.1" d="M97.3557 73.1644H9.11133V11.8584L97.3557 73.1644Z" fill="black"/>
<path d="M129.941 71.9575H118.875V71.1307C118.875 71.1092 118.871 71.0879 118.863 71.068C118.855 71.0481 118.844 71.03 118.829 71.0148C118.814 70.9996 118.797 70.9875 118.778 70.9793C118.759 70.971 118.738 70.9668 118.717 70.9668H114.923C114.903 70.9668 114.882 70.971 114.863 70.9793C114.844 70.9875 114.826 70.9996 114.812 71.0148C114.797 71.03 114.785 71.0481 114.777 71.068C114.769 71.0879 114.765 71.1092 114.765 71.1307V71.9575H112.394V71.1307C112.394 71.1092 112.39 71.0879 112.382 71.068C112.374 71.0481 112.363 71.03 112.348 71.0148C112.333 70.9996 112.316 70.9875 112.297 70.9793C112.277 70.971 112.257 70.9668 112.236 70.9668H108.442C108.421 70.9668 108.401 70.971 108.382 70.9793C108.363 70.9875 108.345 70.9996 108.33 71.0148C108.316 71.03 108.304 71.0481 108.296 71.068C108.288 71.0879 108.284 71.1092 108.284 71.1307V71.9575H105.913V71.1307C105.913 71.1092 105.909 71.0879 105.901 71.068C105.893 71.0481 105.881 71.03 105.867 71.0148C105.852 70.9996 105.835 70.9875 105.815 70.9793C105.796 70.971 105.776 70.9668 105.755 70.9668H101.961C101.94 70.9668 101.92 70.971 101.9 70.9793C101.881 70.9875 101.864 70.9996 101.849 71.0148C101.835 71.03 101.823 71.0481 101.815 71.068C101.807 71.0879 101.803 71.1092 101.803 71.1307V71.9575H99.4317V71.1307C99.4317 71.1092 99.4276 71.0879 99.4197 71.068C99.4117 71.0481 99.4001 71.03 99.3854 71.0148C99.3707 70.9996 99.3533 70.9875 99.3341 70.9793C99.3149 70.971 99.2944 70.9668 99.2736 70.9668H95.4797C95.459 70.9668 95.4384 70.971 95.4192 70.9793C95.4 70.9875 95.3826 70.9996 95.3679 71.0148C95.3533 71.03 95.3416 71.0481 95.3337 71.068C95.3257 71.0879 95.3216 71.1092 95.3216 71.1307V71.9575H92.9505V71.1307C92.9505 71.1092 92.9464 71.0879 92.9384 71.068C92.9305 71.0481 92.9188 71.03 92.9042 71.0148C92.8895 70.9996 92.8721 70.9875 92.8529 70.9793C92.8337 70.971 92.8131 70.9668 92.7924 70.9668H88.9985C88.9777 70.9668 88.9572 70.971 88.938 70.9793C88.9188 70.9875 88.9014 70.9996 88.8867 71.0148C88.872 71.03 88.8604 71.0481 88.8524 71.068C88.8445 71.0879 88.8404 71.1092 88.8404 71.1307V71.9575H86.4692V71.1307C86.4692 71.1092 86.4651 71.0879 86.4572 71.068C86.4492 71.0481 86.4376 71.03 86.4229 71.0148C86.4082 70.9996 86.3908 70.9875 86.3716 70.9793C86.3525 70.971 86.3319 70.9668 86.3111 70.9668H82.5172C82.4965 70.9668 82.4759 70.971 82.4567 70.9793C82.4376 70.9875 82.4201 70.9996 82.4055 71.0148C82.3908 71.03 82.3791 71.0481 82.3712 71.068C82.3633 71.0879 82.3592 71.1092 82.3592 71.1307V71.9575H79.988V71.1307C79.988 71.1092 79.9839 71.0879 79.976 71.068C79.968 71.0481 79.9564 71.03 79.9417 71.0148C79.927 70.9996 79.9096 70.9875 79.8904 70.9793C79.8712 70.971 79.8507 70.9668 79.8299 70.9668H50.111C50.0903 70.9668 50.0697 70.971 50.0505 70.9793C50.0314 70.9875 50.0139 70.9996 49.9993 71.0148C49.9846 71.03 49.9729 71.0481 49.965 71.068C49.9571 71.0879 49.953 71.1092 49.953 71.1307V71.9575H47.5818V71.1307C47.5818 71.1092 47.5777 71.0879 47.5697 71.068C47.5618 71.0481 47.5502 71.03 47.5355 71.0148C47.5208 70.9996 47.5034 70.9875 47.4842 70.9793C47.465 70.971 47.4445 70.9668 47.4237 70.9668H43.6298C43.609 70.9668 43.5885 70.971 43.5693 70.9793C43.5501 70.9875 43.5327 70.9996 43.518 71.0148C43.5033 71.03 43.4917 71.0481 43.4838 71.068C43.4758 71.0879 43.4717 71.1092 43.4717 71.1307V71.9575H41.1005V71.1307C41.1005 71.1092 41.0965 71.0879 41.0885 71.068C41.0806 71.0481 41.0689 71.03 41.0542 71.0148C41.0396 70.9996 41.0221 70.9875 41.003 70.9793C40.9838 70.971 40.9632 70.9668 40.9425 70.9668H37.1486C37.1278 70.9668 37.1073 70.971 37.0881 70.9793C37.0689 70.9875 37.0515 70.9996 37.0368 71.0148C37.0221 71.03 37.0105 71.0481 37.0025 71.068C36.9946 71.0879 36.9905 71.1092 36.9905 71.1307V71.9575H34.6193V71.1307C34.6193 71.1092 34.6152 71.0879 34.6073 71.068C34.5993 71.0481 34.5877 71.03 34.573 71.0148C34.5583 70.9996 34.5409 70.9875 34.5217 70.9793C34.5025 70.971 34.482 70.9668 34.4612 70.9668H30.6673C30.6466 70.9668 30.626 70.971 30.6068 70.9793C30.5877 70.9875 30.5702 70.9996 30.5556 71.0148C30.5409 71.03 30.5292 71.0481 30.5213 71.068C30.5133 71.0879 30.5093 71.1092 30.5093 71.1307V71.9575H28.1381V71.1307C28.1381 71.1092 28.134 71.0879 28.126 71.068C28.1181 71.0481 28.1064 71.03 28.0918 71.0148C28.0771 70.9996 28.0597 70.9875 28.0405 70.9793C28.0213 70.971 28.0007 70.9668 27.98 70.9668H24.1861C24.1653 70.9668 24.1448 70.971 24.1256 70.9793C24.1064 70.9875 24.089 70.9996 24.0743 71.0148C24.0596 71.03 24.048 71.0481 24.04 71.068C24.0321 71.0879 24.028 71.1092 24.028 71.1307V71.9575H21.6568V71.1307C21.6568 71.1092 21.6527 71.0879 21.6448 71.068C21.6369 71.0481 21.6252 71.03 21.6105 71.0148C21.5959 70.9996 21.5784 70.9875 21.5592 70.9793C21.5401 70.971 21.5195 70.9668 21.4988 70.9668H17.7048C17.6841 70.9668 17.6635 70.971 17.6444 70.9793C17.6252 70.9875 17.6077 70.9996 17.5931 71.0148C17.5784 71.03 17.5667 71.0481 17.5588 71.068C17.5509 71.0879 17.5468 71.1092 17.5468 71.1307V71.9575H15.1756V71.1307C15.1756 71.1092 15.1715 71.0879 15.1636 71.068C15.1556 71.0481 15.144 71.03 15.1293 71.0148C15.1146 70.9996 15.0972 70.9875 15.078 70.9793C15.0588 70.971 15.0383 70.9668 15.0175 70.9668H11.2236C11.2029 70.9668 11.1823 70.971 11.1631 70.9793C11.1439 70.9875 11.1265 70.9996 11.1118 71.0148C11.0972 71.03 11.0855 71.0481 11.0776 71.068C11.0696 71.0879 11.0655 71.1092 11.0655 71.1307V71.9575H3.7939C3.29567 71.9575 2.80233 72.0593 2.34203 72.257C1.88174 72.4547 1.4635 72.7446 1.11121 73.1099C0.758909 73.4752 0.479453 73.909 0.288792 74.3863C0.0981314 74.8637 -2.94743e-07 75.3753 0 75.892V77.671C2.38104e-06 78.7145 0.399716 79.7152 1.11121 80.4531C1.8227 81.1909 2.78769 81.6055 3.7939 81.6055H129.941C130.439 81.6055 130.933 81.5037 131.393 81.306C131.853 81.1082 132.271 80.8184 132.624 80.4531C132.976 80.0877 133.255 79.654 133.446 79.1767C133.637 78.6993 133.735 78.1877 133.735 77.671V75.892C133.735 75.3753 133.637 74.8637 133.446 74.3863C133.255 73.909 132.976 73.4752 132.624 73.1099C132.271 72.7445 131.853 72.4547 131.393 72.257C130.933 72.0593 130.439 71.9575 129.941 71.9575Z" fill="#3F3D56"/>
<path d="M95.3541 50.6727H36.1011C35.9225 50.6725 35.7514 50.5989 35.6252 50.468C35.4989 50.3371 35.4279 50.1596 35.4277 49.9745V24.3711C35.4279 24.186 35.4989 24.0085 35.6252 23.8776C35.7514 23.7467 35.9225 23.6731 36.1011 23.6729H95.3541C95.5326 23.6731 95.7038 23.7467 95.83 23.8776C95.9562 24.0085 96.0272 24.186 96.0274 24.3711V49.9745C96.0272 50.1596 95.9562 50.3371 95.83 50.468C95.7038 50.5989 95.5326 50.6725 95.3541 50.6727ZM36.1011 24.1384C36.0416 24.1384 35.9845 24.163 35.9424 24.2066C35.9004 24.2503 35.8767 24.3094 35.8766 24.3711V49.9745C35.8767 50.0362 35.9004 50.0953 35.9424 50.139C35.9845 50.1826 36.0416 50.2071 36.1011 50.2072H95.3541C95.4136 50.2071 95.4706 50.1826 95.5127 50.139C95.5548 50.0953 95.5785 50.0362 95.5785 49.9745V24.3711C95.5785 24.3094 95.5548 24.2503 95.5127 24.2066C95.4706 24.163 95.4136 24.1384 95.3541 24.1384H36.1011Z" fill="#3F3D56"/>
<path d="M42.8354 38.5695H40.1421C39.9636 38.5693 39.7924 38.4957 39.6662 38.3648C39.5399 38.2339 39.4689 38.0564 39.4688 37.8712V35.0782C39.4689 34.893 39.5399 34.7155 39.6662 34.5846C39.7924 34.4537 39.9636 34.3801 40.1421 34.3799H42.8354C43.0139 34.3801 43.1851 34.4537 43.3113 34.5846C43.4375 34.7155 43.5085 34.893 43.5087 35.0782V37.8712C43.5085 38.0564 43.4375 38.2339 43.3113 38.3648C43.1851 38.4957 43.0139 38.5693 42.8354 38.5695ZM40.1421 34.8454C40.0826 34.8455 40.0255 34.87 39.9835 34.9137C39.9414 34.9573 39.9177 35.0164 39.9176 35.0782V37.8712C39.9177 37.933 39.9414 37.9921 39.9835 38.0357C40.0255 38.0794 40.0826 38.1039 40.1421 38.104H42.8354C42.8949 38.1039 42.9519 38.0794 42.994 38.0357C43.0361 37.9921 43.0598 37.933 43.0598 37.8712V35.0782C43.0598 35.0164 43.0361 34.9573 42.994 34.9137C42.9519 34.87 42.8949 34.8455 42.8354 34.8454H40.1421Z" fill="#3F3D56"/>
<path d="M90.8664 38.104H39.6934V38.5695H90.8664V38.104Z" fill="#3F3D56"/>
<path d="M223.96 62.7764H59.4434V63.2419H223.96V62.7764Z" fill="#3F3D56"/>
<path d="M59.4449 66.0348C61.1803 66.0348 62.5871 64.5759 62.5871 62.7762C62.5871 60.9765 61.1803 59.5176 59.4449 59.5176C57.7095 59.5176 56.3027 60.9765 56.3027 62.7762C56.3027 64.5759 57.7095 66.0348 59.4449 66.0348Z" fill="#3F3D56"/>
<path d="M223.961 65.8023C225.325 65.8023 226.43 64.656 226.43 63.242C226.43 61.8279 225.325 60.6816 223.961 60.6816C222.598 60.6816 221.492 61.8279 221.492 63.242C221.492 64.656 222.598 65.8023 223.961 65.8023Z" fill="#3F3D56"/>
<path d="M236.08 117.242C237.444 117.242 238.549 116.095 238.549 114.681C238.549 113.267 237.444 112.121 236.08 112.121C234.717 112.121 233.611 113.267 233.611 114.681C233.611 116.095 234.717 117.242 236.08 117.242Z" fill="#3F3D56"/>
<path d="M72.2365 117.242C73.6 117.242 74.7053 116.095 74.7053 114.681C74.7053 113.267 73.6 112.121 72.2365 112.121C70.8729 112.121 69.7676 113.267 69.7676 114.681C69.7676 116.095 70.8729 117.242 72.2365 117.242Z" fill="#3F3D56"/>
</g>
<defs>
<clipPath id="clip0_949_10695">
<rect width="247" height="161" fill="white"/>
</clipPath>
</defs>
</svg>
