<svg width="70" height="80" viewBox="0 0 70 80" fill="none" xmlns="http://www.w3.org/2000/svg">
<g clip-path="url(#clip0_1232_15407)">
<path d="M45.003 59.2295C45.1601 59.314 45.3392 59.3479 45.5161 59.3265C45.6929 59.3051 45.859 59.2295 45.9917 59.1099C46.1245 58.9903 46.2175 58.8324 46.2582 58.6578C46.2989 58.4832 46.2853 58.3002 46.2192 58.1336C46.2369 58.045 46.2496 57.9813 46.2674 57.8927C46.6072 57.5732 47.0341 57.3633 47.4932 57.2897C47.9523 57.2162 48.4228 57.2823 48.8443 57.4798C49.2658 57.6772 49.6192 57.9969 49.8591 58.3979C50.099 58.7989 50.2145 59.2629 50.1909 59.7305C50.0833 62.3673 50.2126 65.2125 48.4723 67.3382C56.4155 60.8019 60.0373 49.6671 57.6115 39.6524C56.4212 37.9822 55.866 35.7634 56.3998 33.7528C57.0696 34.4088 58.3753 34.2326 58.1758 33.0969C58.0687 32.6481 57.958 32.2006 57.851 31.7518C62.426 29.9541 63.6204 36.8043 58.2011 39.5933C58.6407 41.4973 58.8815 43.4424 58.9195 45.3968C59.5313 43.6345 60.5498 42.0436 61.8913 40.7551C63.1901 39.5775 64.9074 38.8851 66.5051 38.095C68.4492 37.1311 70.6069 39.0421 69.8414 41.0821C68.5473 40.9153 67.6315 42.473 68.8059 43.3101C66.7432 46.7986 62.788 49.0159 58.7695 49.0511C58.3631 53.0316 57.1189 56.8791 55.1197 60.3373C57.6868 56.4065 62.6548 57.5382 66.581 57.3707C66.8415 57.3377 67.1059 57.3817 67.342 57.4973C67.5781 57.613 67.7757 57.7954 67.9106 58.0222C68.0455 58.249 68.112 58.5104 68.1019 58.7746C68.0918 59.0388 68.0055 59.2944 67.8537 59.51C67.3372 59.4795 66.8189 59.5007 66.3066 59.5734C66.0656 59.6093 65.8416 59.7195 65.6652 59.8887C65.4888 60.0579 65.3687 60.2779 65.3214 60.5185C65.274 60.7591 65.3017 61.0086 65.4007 61.2327C65.4997 61.4569 65.6651 61.6447 65.8743 61.7705C62.4301 64.9499 57.0933 65.6334 52.9048 63.6046C51.6664 65.1754 50.2693 66.6123 48.7359 67.8922L42.5088 64.9031C42.5194 64.8227 42.5334 64.7412 42.5463 64.6618C43.1054 64.975 43.7005 65.2181 44.3183 65.3856C43.654 62.8354 42.9137 61.3417 45.0028 59.2295H45.003Z" fill="#F2F2F2"/>
<path d="M34.0003 53.1969C33.8864 53.3349 33.7332 53.4343 33.5614 53.4816C33.3896 53.529 33.2075 53.522 33.0398 53.4616C32.872 53.4013 32.7268 53.2905 32.6237 53.1442C32.5206 52.9979 32.4646 52.8233 32.4634 52.6439C32.4138 52.5686 32.3782 52.5144 32.3286 52.4391C31.8942 52.2723 31.4202 52.24 30.9674 52.3463C30.5147 52.4525 30.1037 52.6925 29.7873 53.0355C29.4709 53.3785 29.2634 53.8088 29.1914 54.2713C29.1194 54.7338 29.1862 55.2074 29.3833 55.6314C30.4706 58.0326 31.4166 60.7167 33.8247 62.0243C24.0198 58.9881 16.4947 50.0515 14.9899 39.8551C15.4666 37.8562 15.1497 35.5905 13.9022 33.9311C13.5276 34.7931 12.2523 35.1259 12.0117 33.9983C11.9427 33.542 11.8777 33.0855 11.8087 32.6292C6.89822 32.702 8.35795 39.4999 14.4217 40.0244C14.7277 41.9547 15.2333 43.8476 15.9302 45.672C14.7035 44.2723 13.1643 43.1859 11.4393 42.502C9.79535 41.9048 7.94547 41.9158 6.16986 41.791C4.00828 41.6368 2.72581 44.2261 4.19888 45.8246C5.33499 45.1786 6.76661 46.2735 5.9925 47.4948C9.20957 49.9421 13.7031 50.4932 17.438 48.9994C19.3054 52.5315 21.899 55.6222 25.0458 58.0656C21.1959 55.4002 17.0188 58.3354 13.3199 59.6716C13.0663 59.74 12.8379 59.8811 12.6626 60.078C12.4872 60.2748 12.3726 60.5187 12.3326 60.78C12.2926 61.0413 12.329 61.3087 12.4373 61.5495C12.5456 61.7904 12.7212 61.9942 12.9426 62.1363C13.4096 61.9119 13.8975 61.7347 14.3991 61.6073C14.6358 61.5491 14.8845 61.566 15.1113 61.6557C15.338 61.7454 15.5316 61.9035 15.6656 62.1084C15.7996 62.3133 15.8674 62.5549 15.8597 62.8C15.852 63.0452 15.7691 63.282 15.6226 63.4779C20.0032 65.1143 25.2018 63.7201 28.321 60.2502C30.0563 61.2346 31.8884 62.0347 33.788 62.6376L38.4355 57.504C38.3955 57.4336 38.352 57.3634 38.3103 57.2948C37.9098 57.7972 37.4497 58.2483 36.9403 58.6381C36.6003 56.024 36.7264 54.3595 34.0005 53.1968L34.0003 53.1969Z" fill="#F2F2F2"/>
<path d="M35.1957 31.5047C35.373 31.4867 35.5404 31.4142 35.6754 31.2971C35.8103 31.1801 35.9063 31.0241 35.9503 30.8503C35.9943 30.6764 35.9841 30.4932 35.9212 30.3254C35.8583 30.1576 35.7457 30.0133 35.5986 29.9121C35.5642 29.8286 35.5396 29.7686 35.5052 29.6851C35.6104 29.2291 35.8485 28.8151 36.1889 28.4963C36.5293 28.1774 36.9566 27.9682 37.4158 27.8955C37.875 27.8227 38.3454 27.8897 38.7666 28.0879C39.1878 28.2861 39.5406 28.6064 39.7798 29.0079C41.1504 31.2571 42.8331 33.5465 42.5653 36.2882C45.5404 26.4025 42.3818 15.1256 34.8232 8.17383C32.9103 7.45563 31.2209 5.92548 30.5508 3.95669C31.4701 4.12521 32.4564 3.24581 31.662 2.41507C31.3246 2.10259 30.9849 1.79332 30.6476 1.48082C33.4501 -2.58019 38.2345 2.43579 35.2799 7.79378C36.6991 9.12753 37.9759 10.607 39.0895 12.2081C38.6217 10.4017 38.5864 8.50922 38.9865 6.68637C39.4127 4.97963 40.455 3.44059 41.3439 1.88772C42.4241 -0.00398289 45.2733 0.370942 45.7673 2.4942C44.6007 3.0824 44.7029 4.88968 46.1414 4.92521C46.3605 8.97924 44.3048 13.0405 40.9883 15.326C42.8549 18.8585 43.9523 22.7511 44.2075 26.7443C44.1621 22.0398 48.9129 20.1901 52.0794 17.8467C52.2774 17.673 52.5212 17.561 52.7813 17.5245C53.0413 17.488 53.3063 17.5285 53.5439 17.641C53.7815 17.7535 53.9814 17.9332 54.1193 18.1582C54.2572 18.3832 54.327 18.6438 54.3204 18.9081C53.8747 19.1727 53.4563 19.4813 53.0712 19.8293C52.891 19.9944 52.766 20.2116 52.7133 20.4511C52.6606 20.6906 52.6827 20.9406 52.7766 21.167C52.8705 21.3933 53.0317 21.5849 53.2379 21.7154C53.4442 21.8459 53.6855 21.9089 53.9288 21.8959C52.8301 26.469 48.7782 30.0327 44.1778 30.7001C44.0194 32.6994 43.6552 34.6767 43.091 36.6001L36.2666 37.615C36.2309 37.5423 36.1973 37.4667 36.1641 37.3936C36.8017 37.3397 37.4302 37.2073 38.0358 36.9995C36.0724 35.2555 34.6308 34.4311 35.1956 31.5048L35.1957 31.5047Z" fill="#F2F2F2"/>
<path d="M42.0601 29.3012C38.9532 29.3012 37.268 28.9189 36.6795 28.1028C36.1602 27.3827 36.5083 26.4327 36.9114 25.3326C37.2012 24.5419 37.5295 23.6458 37.5295 22.7588C37.5295 18.4449 39.7017 16.2576 43.9857 16.2576C46.1171 16.2576 48.4057 17.3977 50.1076 19.3076C51.6549 21.0438 52.4256 23.1218 52.2224 25.0087C52.0556 26.5562 51.3404 27.5738 49.9713 28.2115L49.8913 28.2488L49.8685 28.1629C49.7503 27.7188 49.5502 27.301 49.2787 26.9313C49.2523 27.5116 49.107 28.0802 48.852 28.6012L48.8374 28.6309L48.8058 28.64C47.2563 29.0845 45.4174 29.2049 43.9885 29.2601C43.293 29.2873 42.6502 29.3011 42.0601 29.3012Z" fill="#2F2E41"/>
<path d="M42.9064 35.3118C42.7873 34.9593 42.5865 34.6405 42.3205 34.3818C42.0546 34.1231 41.7312 33.9321 41.3773 33.8244C41.0233 33.7168 40.649 33.6957 40.2853 33.763C39.9217 33.8302 39.5792 33.9838 39.2862 34.211L29.0668 40.3637L25.8689 32.5064C26.1391 32.1073 26.2768 31.6323 26.2623 31.1496C26.2478 30.6668 26.0818 30.2011 25.7882 29.8192C25.4946 29.4373 25.0884 29.1588 24.628 29.0237C24.1675 28.8887 23.6763 28.9039 23.225 29.0673C22.7736 29.2306 22.3853 29.5338 22.1156 29.9331C21.8459 30.3325 21.7087 30.8077 21.7238 31.2904C21.7388 31.7731 21.9053 32.2387 22.1993 32.6202C22.4934 33.0018 22.8998 33.2798 23.3605 33.4144C23.5576 35.6801 24.6529 45.8073 28.4635 45.4392C31.6665 45.1298 39.6208 39.7953 42.0914 37.9457C42.4867 37.6501 42.7786 37.2358 42.925 36.7624C43.0715 36.2891 43.065 35.7811 42.9064 35.3118Z" fill="#FAE4E4"/>
<path d="M50.608 80H41.7134L40.2218 72.5736L39.738 80H31.4756C31.4788 74.168 31.7804 68.34 32.3794 62.5392L32.4818 62.188L32.6436 61.626L32.746 61.2733L34.4558 55.3609L34.5909 54.8916H44.8865C45.479 55.452 46.0255 56.0598 46.5206 56.709C46.6883 56.9242 46.8634 57.1573 47.043 57.4084C47.1677 57.5863 47.2968 57.7731 47.426 57.9689C48.5732 59.6887 49.4307 61.5874 49.9639 63.5884V63.5899C50.0544 63.9321 50.1346 64.2823 50.2043 64.6405V64.642C50.2667 64.9604 50.3216 65.2832 50.3646 65.6135C50.3973 65.8541 50.4255 66.0977 50.4462 66.3443C50.57 67.7105 50.5266 69.0868 50.3171 70.4424L50.608 80Z" fill="#2F2E41"/>
<path d="M3.44807 12.094C4.02571 11.8689 4.36788 11.3583 4.21233 10.9537C4.05678 10.549 3.46241 10.4035 2.88477 10.6287C2.30713 10.8538 1.96497 11.3644 2.12052 11.7691C2.27607 12.1737 2.87043 12.3192 3.44807 12.094Z" fill="#E6E6E6"/>
<path d="M10.7215 11.1545C11.2991 10.9293 11.6413 10.4187 11.4858 10.0141C11.3302 9.60943 10.7358 9.46393 10.1582 9.6891C9.58057 9.91427 9.2384 10.4248 9.39395 10.8295C9.5495 11.2341 10.1439 11.3796 10.7215 11.1545Z" fill="#3F3D56"/>
<path d="M2.81721 18.3424C3.39485 18.1173 3.73703 17.6067 3.58148 17.2021C3.42593 16.7974 2.83156 16.6519 2.25392 16.8771C1.67628 17.1023 1.33411 17.6128 1.48966 18.0175C1.64521 18.4221 2.23958 18.5676 2.81721 18.3424Z" fill="#FCDEE4"/>
<path d="M0.713572 21.0986C0.978574 21.0355 1.12031 20.6733 1.03015 20.2897C0.93998 19.9061 0.652056 19.6463 0.387054 19.7095C0.122052 19.7726 -0.0196797 20.1348 0.0704856 20.5184C0.160651 20.902 0.44857 21.1618 0.713572 21.0986Z" fill="#E6E6E6"/>
<path d="M0.670603 25.765C0.935605 25.7019 1.07734 25.3397 0.987172 24.9561C0.897007 24.5725 0.609087 24.3127 0.344085 24.3759C0.0790836 24.439 -0.0626485 24.8012 0.0275169 25.1848C0.117682 25.5684 0.405602 25.8282 0.670603 25.765Z" fill="#3F3D56"/>
<path d="M7.05341 16.0999C7.31842 16.0367 7.46015 15.6745 7.36998 15.2909C7.27982 14.9073 6.9919 14.6475 6.7269 14.7107C6.4619 14.7739 6.32016 15.136 6.41033 15.5196C6.50049 15.9033 6.78841 16.163 7.05341 16.0999Z" fill="#E6E6E6"/>
<path d="M3.22334 15.1632C3.48834 15.1001 3.63007 14.7379 3.53991 14.3543C3.44974 13.9707 3.16182 13.7109 2.89682 13.7741C2.63182 13.8372 2.49009 14.1994 2.58025 14.583C2.67042 14.9666 2.95834 15.2264 3.22334 15.1632Z" fill="#FCDEE4"/>
<path d="M7.28291 10.8662C7.54791 10.8031 7.68964 10.4409 7.59948 10.0573C7.50931 9.67367 7.22139 9.4139 6.95639 9.47707C6.69139 9.54023 6.54966 9.9024 6.63982 10.286C6.72999 10.6696 7.01791 10.9294 7.28291 10.8662Z" fill="#3F3D56"/>
<path d="M9.17081 43.1631C9.45011 42.8326 9.29416 42.2371 8.82249 41.8328C8.35082 41.4285 7.74204 41.3686 7.46274 41.699C7.18345 42.0294 7.3394 42.625 7.81107 43.0293C8.28274 43.4336 8.89151 43.4935 9.17081 43.1631Z" fill="#E6E6E6"/>
<path d="M4.88761 37.17C5.1669 36.8396 5.01095 36.244 4.53928 35.8397C4.06761 35.4354 3.45883 35.3755 3.17954 35.7059C2.90024 36.0363 3.05619 36.6319 3.52786 37.0362C3.99953 37.4405 4.60831 37.5004 4.88761 37.17Z" fill="#3F3D56"/>
<path d="M14.9276 40.7464C15.2069 40.416 15.051 39.8204 14.5793 39.4161C14.1077 39.0118 13.4989 38.9519 13.2196 39.2824C12.9403 39.6128 13.0962 40.2084 13.5679 40.6127C14.0396 41.017 14.6484 41.0768 14.9276 40.7464Z" fill="#FCDEE4"/>
<path d="M17.788 40.8126C18.0801 40.5501 18.1698 40.1715 17.9885 39.9669C17.8072 39.7623 17.4234 39.8092 17.1314 40.0717C16.8393 40.3342 16.7495 40.7128 16.9309 40.9174C17.1122 41.122 17.496 41.0751 17.788 40.8126Z" fill="#E6E6E6"/>
<path d="M21.8837 38.629C22.1758 38.3665 22.2655 37.9879 22.0842 37.7833C21.9029 37.5787 21.5191 37.6256 21.2271 37.8881C20.935 38.1506 20.8452 38.5293 21.0266 38.7338C21.2079 38.9384 21.5917 38.8915 21.8837 38.629Z" fill="#3F3D56"/>
<path d="M10.4042 37.5786C10.6963 37.3161 10.786 36.9374 10.6047 36.7329C10.4234 36.5283 10.0396 36.5752 9.74756 36.8377C9.45551 37.1002 9.36575 37.4788 9.54709 37.6834C9.72843 37.888 10.1122 37.8411 10.4042 37.5786Z" fill="#E6E6E6"/>
<path d="M11.4101 41.4165C11.7022 41.154 11.7919 40.7753 11.6106 40.5707C11.4292 40.3662 11.0455 40.4131 10.7534 40.6756C10.4614 40.9381 10.3716 41.3167 10.5529 41.5213C10.7343 41.7259 11.118 41.679 11.4101 41.4165Z" fill="#FCDEE4"/>
<path d="M5.72455 39.8673C6.01661 39.6048 6.10636 39.2261 5.92502 39.0215C5.74368 38.817 5.35993 38.8639 5.06787 39.1264C4.77582 39.3889 4.68606 39.7675 4.8674 39.9721C5.04874 40.1767 5.4325 40.1298 5.72455 39.8673Z" fill="#3F3D56"/>
<path d="M37.9469 4.7262C38.3335 4.53471 38.4254 3.92573 38.152 3.36602C37.8787 2.80631 37.3436 2.50781 36.9569 2.6993C36.5703 2.89079 36.4784 3.49976 36.7518 4.05947C37.0251 4.61918 37.5602 4.91769 37.9469 4.7262Z" fill="#E6E6E6"/>
<path d="M39.5142 11.9396C39.9009 11.7481 39.9928 11.1391 39.7194 10.5794C39.446 10.0197 38.911 9.72119 38.5243 9.91268C38.1377 10.1042 38.0458 10.7131 38.3192 11.2728C38.5925 11.8326 39.1276 12.1311 39.5142 11.9396Z" fill="#3F3D56"/>
<path d="M31.7105 4.64099C32.0972 4.4495 32.189 3.84053 31.9157 3.28082C31.6423 2.72111 31.1073 2.4226 30.7206 2.61409C30.334 2.80558 30.2421 3.41455 30.5155 3.97427C30.7888 4.53398 31.3239 4.83248 31.7105 4.64099Z" fill="#FCDEE4"/>
<path d="M28.4333 2.35177C28.8049 2.22772 29.0367 1.91614 28.951 1.65585C28.8653 1.39555 28.4946 1.28511 28.123 1.40916C27.7514 1.53322 27.5197 1.8448 27.6054 2.1051C27.6911 2.36539 28.0618 2.47583 28.4333 2.35177Z" fill="#E6E6E6"/>
<path d="M23.8132 2.71725C24.1848 2.59319 24.4165 2.28162 24.3308 2.02132C24.2451 1.76103 23.8744 1.65059 23.5029 1.77464C23.1313 1.8987 22.8996 2.21028 22.9853 2.47057C23.071 2.73087 23.4416 2.84131 23.8132 2.71725Z" fill="#3F3D56"/>
<path d="M33.9333 8.27365C34.3049 8.14959 34.5367 7.83801 34.451 7.57772C34.3653 7.31742 33.9946 7.20698 33.623 7.33104C33.2514 7.4551 33.0197 7.76668 33.1054 8.02697C33.1911 8.28726 33.5618 8.39771 33.9333 8.27365Z" fill="#E6E6E6"/>
<path d="M34.5242 4.34908C34.8957 4.22503 35.1275 3.91345 35.0418 3.65315C34.9561 3.39286 34.5854 3.28242 34.2138 3.40648C33.8422 3.53053 33.6105 3.84211 33.6962 4.10241C33.7819 4.3627 34.1526 4.47314 34.5242 4.34908Z" fill="#FCDEE4"/>
<path d="M39.1306 8.04525C39.5022 7.92119 39.7339 7.60962 39.6482 7.34932C39.5625 7.08903 39.1918 6.97859 38.8203 7.10264C38.4487 7.2267 38.2169 7.53828 38.3026 7.79857C38.3883 8.05887 38.759 8.16931 39.1306 8.04525Z" fill="#3F3D56"/>
<path d="M40.5575 30.5022L45.4576 30.248L47.7336 33.8695C47.7336 33.8695 52.0159 34.5905 51.7191 39.6719C51.4223 44.7534 46.5088 49.2124 46.5088 49.2124L46.7188 51.8586L46.3541 52.9082L46.4008 53.4975L46.8985 54.1217L46.9497 54.7671L46.5088 55.7884L47.1084 56.7663L34.5027 55.5364L34.0418 53.8455L34.7142 52.9375L34.3386 51.7531L34.9033 50.614L35.1977 46.9955C35.1977 46.9955 31.9764 42.1222 35.6744 38.4517L37.1585 35.9109L38.8192 33.8707L40.5575 30.5022Z" fill="#4E7E95"/>
<path d="M42.993 29.4796C45.8606 29.4796 48.1853 27.1387 48.1853 24.251C48.1853 21.3634 45.8606 19.0225 42.993 19.0225C40.1254 19.0225 37.8008 21.3634 37.8008 24.251C37.8008 27.1387 40.1254 29.4796 42.993 29.4796Z" fill="#FAE4E4"/>
<path d="M42.2982 23.9341C41.8507 23.9341 41.4036 23.9214 40.9566 23.896L40.8768 23.8915L40.8873 23.8116C40.9531 23.3125 40.916 22.8052 40.7784 22.3212C40.5447 22.8723 40.1969 23.3668 39.7583 23.7719L39.7336 23.7948L39.7002 23.7911C38.4864 23.6574 37.2836 23.4365 36.101 23.1301L36.0557 23.1184L36.0467 23.0723C35.9584 22.6356 35.9126 22.1912 35.9102 21.7455C35.9102 20.3531 36.4114 19.1813 37.3217 18.4458C38.3124 17.6452 39.7327 17.3989 41.3222 17.7521H46.4047C46.9635 17.7527 47.4992 17.9765 47.8943 18.3744C48.2894 18.7722 48.5116 19.3117 48.5123 19.8743V23.1154L48.4568 23.13C46.4465 23.662 44.3767 23.9323 42.2982 23.9341Z" fill="#2F2E41"/>
<path d="M6.86914 18.1183C6.64161 18.2021 6.45639 18.3733 6.3541 18.5945C6.25181 18.8156 6.24081 19.0686 6.32351 19.2979L11.8065 34.4479C11.8897 34.6771 12.0598 34.8636 12.2794 34.9666C12.499 35.0696 12.7502 35.0807 12.9779 34.9974L34.2584 27.1877C34.4859 27.1039 34.6712 26.9326 34.7735 26.7115C34.8757 26.4903 34.8867 26.2373 34.804 26.008L29.321 10.858C29.2378 10.6289 29.0678 10.4423 28.8482 10.3393C28.6285 10.2363 28.3773 10.2252 28.1496 10.3085L6.86914 18.1183Z" fill="#CCCCCC"/>
<path d="M26.3383 29.259L13.3125 34.0394C13.0674 34.129 12.797 34.1171 12.5607 34.0062C12.3243 33.8953 12.1413 33.6946 12.0517 33.448L7.07868 19.707C6.98967 19.4602 7.0015 19.188 7.1116 18.9499C7.22169 18.7119 7.42104 18.5276 7.66593 18.4374L27.7439 11.069C27.989 10.9793 28.2594 10.9912 28.4957 11.1021C28.7321 11.213 28.9151 11.4137 29.0047 11.6603L31.4076 18.2998C32.1759 20.4302 32.0737 22.7804 31.1233 24.8349C30.173 26.8895 28.4521 28.4805 26.3383 29.259Z" fill="white"/>
<path d="M16.965 19.3324L13.8696 20.4684C13.8308 20.4826 13.7896 20.489 13.7483 20.4872C13.707 20.4854 13.6665 20.4754 13.629 20.4579C13.5916 20.4403 13.5579 20.4155 13.53 20.3848C13.5021 20.3542 13.4804 20.3183 13.4663 20.2792C13.4521 20.2401 13.4458 20.1986 13.4476 20.157C13.4493 20.1154 13.4592 20.0746 13.4767 20.0369C13.4941 19.9992 13.5188 19.9653 13.5492 19.9372C13.5797 19.9091 13.6153 19.8873 13.6542 19.873L16.7495 18.737C16.8279 18.7083 16.9145 18.712 16.9901 18.7475C17.0657 18.783 17.1243 18.8473 17.1529 18.9262C17.1814 19.0052 17.1777 19.0923 17.1425 19.1685C17.1072 19.2446 17.0434 19.3036 16.965 19.3324Z" fill="#4E7E95"/>
<path d="M24.3446 18.0033L14.3104 21.6858C14.2716 21.7001 14.2303 21.7065 14.189 21.7048C14.1477 21.703 14.1071 21.693 14.0696 21.6755C14.0321 21.6579 13.9985 21.6331 13.9705 21.6024C13.9425 21.5718 13.9209 21.5358 13.9067 21.4967C13.8926 21.4576 13.8862 21.416 13.888 21.3744C13.8898 21.3328 13.8997 21.292 13.9172 21.2543C13.9347 21.2165 13.9594 21.1826 13.9899 21.1545C14.0204 21.1264 14.0561 21.1046 14.0949 21.0904L24.1292 17.4079C24.168 17.3937 24.2092 17.3873 24.2505 17.3891C24.2918 17.3909 24.3323 17.4009 24.3697 17.4184C24.4072 17.436 24.4408 17.4608 24.4688 17.4915C24.4967 17.5221 24.5183 17.558 24.5325 17.5971C24.5466 17.6362 24.553 17.6777 24.5512 17.7193C24.5494 17.7609 24.5395 17.8017 24.5221 17.8394C24.5046 17.8771 24.48 17.911 24.4495 17.9391C24.4191 17.9672 24.3834 17.989 24.3446 18.0033Z" fill="#4E7E95"/>
<path d="M24.8501 19.4007L14.8159 23.0832C14.7771 23.0974 14.7359 23.1039 14.6946 23.1021C14.6533 23.1003 14.6128 23.0903 14.5753 23.0727C14.5379 23.0552 14.5042 23.0303 14.4763 22.9997C14.4484 22.969 14.4267 22.9331 14.4126 22.894C14.3984 22.8549 14.3921 22.8134 14.3938 22.7719C14.3956 22.7303 14.4055 22.6895 14.423 22.6518C14.4404 22.6141 14.4651 22.5802 14.4955 22.552C14.526 22.5239 14.5616 22.5021 14.6004 22.4879L24.6347 18.8054C24.713 18.7767 24.7995 18.7806 24.875 18.8161C24.9506 18.8516 25.0091 18.9158 25.0376 18.9947C25.0662 19.0736 25.0625 19.1607 25.0273 19.2368C24.9921 19.3129 24.9284 19.3719 24.8501 19.4007Z" fill="#4E7E95"/>
<path d="M25.3563 20.7982L15.3221 24.4807C15.2833 24.495 15.242 24.5014 15.2007 24.4997C15.1594 24.4979 15.1189 24.488 15.0814 24.4704C15.0439 24.4529 15.0102 24.428 14.9822 24.3974C14.9543 24.3667 14.9326 24.3307 14.9184 24.2916C14.9043 24.2525 14.8979 24.211 14.8997 24.1694C14.9015 24.1278 14.9114 24.0869 14.9289 24.0492C14.9464 24.0115 14.9711 23.9776 15.0016 23.9495C15.0321 23.9213 15.0678 23.8996 15.1067 23.8854L25.1409 20.2029C25.1797 20.1886 25.2209 20.1822 25.2622 20.184C25.3035 20.1858 25.344 20.1958 25.3814 20.2133C25.4189 20.2309 25.4525 20.2557 25.4805 20.2864C25.5084 20.3171 25.5301 20.353 25.5442 20.3921C25.5583 20.4311 25.5647 20.4727 25.5629 20.5142C25.5611 20.5558 25.5512 20.5966 25.5338 20.6343C25.5164 20.672 25.4917 20.7059 25.4613 20.734C25.4308 20.7621 25.3952 20.7839 25.3563 20.7982Z" fill="#4E7E95"/>
<path d="M25.8618 22.1957L15.8276 25.8781C15.7492 25.9069 15.6627 25.9031 15.587 25.8677C15.5114 25.8322 15.4529 25.7679 15.4243 25.689C15.3957 25.61 15.3995 25.5229 15.4347 25.4467C15.4699 25.3705 15.5338 25.3116 15.6122 25.2828L25.6464 21.6003C25.6852 21.5861 25.7264 21.5797 25.7677 21.5815C25.809 21.5833 25.8495 21.5932 25.8869 21.6108C25.9244 21.6284 25.9581 21.6532 25.986 21.6839C26.0139 21.7145 26.0356 21.7504 26.0497 21.7895C26.0639 21.8286 26.0702 21.8701 26.0684 21.9117C26.0666 21.9532 26.0567 21.9941 26.0393 22.0318C26.0219 22.0695 25.9972 22.1034 25.9668 22.1315C25.9363 22.1596 25.9007 22.1814 25.8618 22.1957Z" fill="#4E7E95"/>
<path d="M57.7002 26.0768L52.2063 39.3155C51.9719 39.8757 51.5282 40.3206 50.9709 40.5543C50.4136 40.7879 49.7874 40.7915 49.2275 40.5644C48.9378 40.4469 48.675 40.2712 48.4549 40.048C48.2349 39.8248 48.0623 39.5589 47.9477 39.2664C47.833 38.9739 47.7788 38.6609 47.7882 38.3466C47.7975 38.0322 47.8704 37.7231 48.0023 37.4381L54.1277 23.8625L57.5044 15.4555C57.2126 15.1624 57.0175 14.786 56.9455 14.3774C56.8736 13.9688 56.9283 13.5478 57.1022 13.1715C57.2762 12.7953 57.5609 12.4822 57.9177 12.2746C58.2746 12.067 58.6862 11.975 59.0968 12.0112C59.5073 12.0475 59.8968 12.21 60.2124 12.4769C60.528 12.7438 60.7543 13.1021 60.8606 13.503C60.967 13.9039 60.9482 14.3281 60.8068 14.7179C60.6654 15.1077 60.4083 15.4442 60.0703 15.6818L57.7002 26.0768Z" fill="#FAE4E4"/>
</g>
<defs>
<clipPath id="clip0_1232_15407">
<rect width="70" height="80" fill="white"/>
</clipPath>
</defs>
</svg>
