<svg width="387" height="290" viewBox="0 0 387 290" fill="none" xmlns="http://www.w3.org/2000/svg">
<g clip-path="url(#clip0_486_7428)">
<path d="M369.857 289.614L369.341 289.451C369.228 289.415 357.958 285.755 352.678 277.458C347.398 269.16 349.984 259.17 350.01 259.07L350.132 258.615L350.647 258.779C350.76 258.815 362.031 262.474 367.31 270.772C372.59 279.069 370.005 289.06 369.978 289.159L369.857 289.614ZM353.524 277.072C357.987 284.087 366.893 287.683 369.15 288.504C369.579 286.455 370.925 278.167 366.465 271.158C362.006 264.15 353.096 260.548 350.838 259.726C350.409 261.776 349.064 270.064 353.524 277.072Z" fill="#3F3D56"/>
<path d="M356.713 274.547C366.201 279.385 369.855 288.993 369.855 288.993C369.855 288.993 358.126 290.759 348.638 285.921C339.15 281.084 335.496 271.475 335.496 271.475C335.496 271.475 347.225 269.71 356.713 274.547Z" fill="#FB793D" fill-opacity="0.7"/>
<path d="M203.963 155.42C204.423 154.817 205.028 154.303 205.738 153.913C206.449 153.522 207.249 153.263 208.085 153.152C208.922 153.042 209.777 153.082 210.594 153.271C211.411 153.46 212.172 153.794 212.826 154.249C213.033 154.394 213.227 154.551 213.408 154.719L237.036 151.804L238.351 136.747C238.452 135.591 239.09 134.518 240.125 133.761C241.16 133.005 242.507 132.627 243.87 132.713C245.234 132.798 246.501 133.339 247.394 134.216C248.286 135.093 248.731 136.235 248.631 137.39C248.628 137.417 248.626 137.444 248.623 137.47L246.319 158.599L246.308 158.646C246.008 159.458 245.408 160.166 244.595 160.666C243.782 161.166 242.801 161.431 241.797 161.421L214.005 161.014C213.897 161.154 213.781 161.288 213.656 161.418C213.119 161.972 212.449 162.424 211.691 162.744C210.933 163.064 210.103 163.245 209.257 163.274C208.411 163.303 207.567 163.181 206.78 162.915C205.994 162.648 205.282 162.244 204.693 161.729C204.573 161.625 204.46 161.517 204.353 161.407C203.552 160.571 203.083 159.542 203.013 158.467C202.943 157.392 203.276 156.325 203.963 155.42Z" fill="#FFB7B7"/>
<path d="M251.601 283.801L244.862 283.801L241.656 261.773L251.602 261.773L251.601 283.801Z" fill="#FFB7B7"/>
<path d="M253.32 289.338L231.59 289.337V289.104C231.59 287.203 232.481 285.38 234.067 284.036C235.653 282.692 237.805 281.937 240.048 281.937H240.048L253.32 281.937L253.32 289.338Z" fill="#2F2E41"/>
<path d="M298.692 278.624L292.314 280.467L280.887 260.496L290.301 257.775L298.692 278.624Z" fill="#FFB7B7"/>
<path d="M302.428 283.393L281.861 289.337L281.772 289.117C281.048 287.318 281.197 285.349 282.186 283.643C283.175 281.937 284.924 280.633 287.047 280.019L287.047 280.019L299.609 276.389L302.428 283.393Z" fill="#2F2E41"/>
<path d="M259.022 91.1961C259.022 91.1961 252.314 89.3188 248.002 96.8279C243.69 104.337 236.982 112.597 236.982 112.597L240.815 113.348C240.815 113.348 241.774 108.091 244.169 107.341L243.211 114.099C243.211 114.099 271.958 121.983 284.894 113.348L284.415 110.72C284.415 110.72 286.331 111.095 286.331 113.348L287.769 112.221C287.769 112.221 286.331 109.969 282.019 106.965C279.189 104.994 278.217 101.243 277.882 98.898C277.617 96.9127 276.613 95.0506 275.014 93.5819C272.149 90.9794 266.927 88.2133 259.022 91.1961Z" fill="#2F2E41"/>
<path d="M261.494 117.431C268.26 117.431 273.745 112.783 273.745 107.049C273.745 101.315 268.26 96.6672 261.494 96.6672C254.728 96.6672 249.243 101.315 249.243 107.049C249.243 112.783 254.728 117.431 261.494 117.431Z" fill="#FFB7B7"/>
<path d="M245.159 125.98L242.932 125.351C242.932 125.351 238.477 126.924 238.477 129.756C238.477 132.587 237.734 143.913 237.734 143.913L247.758 144.857L245.159 125.98Z" fill="#CBCBCB"/>
<path d="M285.027 187.863C284.103 186.986 283.582 185.856 283.557 184.681C283.533 183.505 284.008 182.361 284.895 181.457L278.641 137.078C278.58 136.031 279.011 135.007 279.841 134.229C280.67 133.452 281.829 132.985 283.063 132.931C284.298 132.877 285.508 133.241 286.427 133.942C287.346 134.643 287.899 135.624 287.965 136.671C287.966 136.685 287.967 136.7 287.967 136.714L293.561 181.14C293.764 181.313 293.951 181.498 294.121 181.695C294.569 182.221 294.891 182.816 295.068 183.448C295.246 184.079 295.274 184.734 295.153 185.374C295.031 186.015 294.762 186.629 294.361 187.182C293.959 187.734 293.433 188.214 292.813 188.594C292.748 188.634 292.683 188.672 292.617 188.709C291.898 189.112 291.084 189.375 290.231 189.48C289.379 189.584 288.509 189.527 287.686 189.313C286.657 189.049 285.736 188.547 285.027 187.863Z" fill="#FFB7B7"/>
<path d="M279.3 143.913L289.324 142.969C289.324 142.969 288.581 131.643 288.581 128.812C288.581 125.98 284.126 124.407 284.126 124.407L281.899 125.036L279.3 143.913Z" fill="#CBCBCB"/>
<path d="M246.644 159.627C246.644 159.627 238.106 172.857 238.106 188.902C238.106 204.947 237.363 278.565 237.363 278.565C237.363 278.565 248.501 282.969 255.183 277.621L261.123 196.138L284.511 276.048C284.511 276.048 295.649 277.936 300.846 274.789L290.823 219.104C290.823 219.104 286.739 166.879 275.602 163.104C264.464 159.329 246.644 159.627 246.644 159.627Z" fill="#2F2E41"/>
<path d="M248.256 107.115C252.593 104.455 256.103 101.392 258.426 97.7473C258.426 97.7473 266.385 105.242 271.249 105.616C276.113 105.991 271.691 96.6231 271.691 96.6231L262.847 94.7495L254.446 95.4989L247.813 99.2461L248.256 107.115Z" fill="#2F2E41"/>
<path d="M273.746 122.52C273.746 122.52 274.099 122.359 252.957 123.012L244.108 125.077L242.932 125.351C242.932 125.351 244.046 144.228 247.016 147.688C249.986 151.149 249.243 153.037 248.501 153.351C247.758 153.666 245.902 153.037 247.016 154.61C248.13 156.183 249.615 155.239 248.13 156.183C246.645 157.126 245.902 160.587 245.902 160.587L278.572 164.362C278.572 164.362 279.685 152.093 282.655 145.801C285.625 139.509 286.368 136.992 286.368 136.992L284.14 124.407L273.746 122.52Z" fill="#CBCBCB"/>
<path d="M211.634 68.8564H209.755V25.2425C209.755 18.5478 206.617 12.1273 201.031 7.39338C195.445 2.65949 187.868 1.07916e-05 179.968 0L70.9315 0C63.0315 -1.83456e-05 55.4551 2.65943 49.869 7.39331C44.2828 12.1272 41.1446 18.5477 41.1445 25.2424V264.512C41.1445 271.206 44.2828 277.627 49.8689 282.361C55.455 287.095 63.0314 289.754 70.9314 289.754H179.968C183.88 289.754 187.753 289.101 191.367 287.833C194.981 286.564 198.265 284.705 201.031 282.361C203.797 280.017 205.991 277.234 207.488 274.172C208.985 271.109 209.755 267.827 209.755 264.512V99.9015H211.634L211.634 68.8564Z" fill="#3F3D56"/>
<path d="M203.416 25.4199V264.337C203.418 266.81 202.846 269.26 201.732 271.546C200.617 273.832 198.982 275.91 196.92 277.66C194.858 279.411 192.409 280.8 189.714 281.748C187.018 282.697 184.129 283.186 181.21 283.189H71.6101C65.7144 283.192 60.0585 281.211 55.8867 277.68C51.7149 274.15 49.3689 269.36 49.3648 264.364V25.4199C49.3627 22.946 49.9356 20.496 51.0509 18.2098C52.1661 15.9236 53.8018 13.8459 55.8646 12.0953C57.9273 10.3448 60.3768 8.95574 63.073 8.00742C65.7692 7.0591 68.6595 6.57011 71.5787 6.56837H84.9006C84.2461 7.92822 83.9962 9.40362 84.1731 10.8646C84.35 12.3255 84.9482 13.7272 85.915 14.9461C86.8818 16.1649 88.1875 17.1636 89.717 17.8541C91.2465 18.5445 92.953 18.9056 94.686 18.9055H157.153C158.886 18.9056 160.593 18.5445 162.122 17.8541C163.652 17.1636 164.958 16.1649 165.924 14.9461C166.891 13.7272 167.489 12.3255 167.666 10.8646C167.843 9.40362 167.593 7.92822 166.939 6.56837H181.17C187.065 6.56389 192.72 8.54394 196.892 12.0729C201.064 15.6019 203.41 20.3908 203.416 25.3861V25.4199L203.416 25.4199Z" fill="white"/>
<path d="M203.416 60.767V52.6291H188.882V7.73214C186.413 6.95956 183.802 6.5655 181.17 6.56838H179.279V52.6291H128.863V18.9055H119.26V52.6291H77.0068V6.56842H71.6101C70.1985 6.56655 68.7899 6.67964 67.4039 6.90614V52.6291H49.3647V60.767H67.4039V79.5902L49.365 88.4157V97.815L67.4039 88.9895V144.994H49.3647V153.132H67.4039V234.105H49.3647V242.243H67.4039V282.851C68.7899 283.077 70.1985 283.19 71.6101 283.189H77.0068V242.243H119.26V283.189H128.863V242.243H179.279V283.189H181.17C183.802 283.191 186.413 282.797 188.882 282.025V242.243H203.416V234.105H188.882V198.705H203.286V190.567H188.882V153.132H203.416V144.994H188.882V95.3532H203.416V87.2152H188.882V60.767L203.416 60.767ZM105.879 60.767L105.878 60.7671L77.0071 74.8945L77.0068 74.8946V60.767H105.879ZM77.0068 84.2899L77.0071 84.2898L119.26 63.6155V144.994H77.0068V84.2899ZM77.0068 234.105V153.132H119.26V234.105H77.0068ZM179.279 234.105H128.863V198.705H179.279V234.105ZM179.279 190.567H128.863V153.132H179.279V190.567ZM179.279 144.994H128.863V95.3531H179.279V144.994ZM179.279 87.2152H128.863V60.767H179.279V87.2152Z" fill="#E5E5E5"/>
<path d="M211.448 87.3658C211.448 113.209 156.231 170.78 156.231 170.78C156.231 170.78 101.014 113.209 101.014 87.3658C101.014 74.9555 106.832 63.0535 117.187 54.2781C127.542 45.5027 141.587 40.5728 156.231 40.5728C170.876 40.5728 184.92 45.5027 195.276 54.2781C205.631 63.0535 211.448 74.9555 211.448 87.3658Z" fill="#FB793D" fill-opacity="0.7"/>
<path d="M188.882 85.3313C188.882 90.8037 186.967 96.1532 183.379 100.703C179.792 105.253 174.692 108.8 168.726 110.894C162.76 112.988 156.195 113.536 149.862 112.469C143.528 111.401 137.711 108.766 133.145 104.896C128.578 101.027 125.469 96.0965 124.209 90.7292C122.949 85.362 123.596 79.7987 126.067 74.7428C128.538 69.687 132.723 65.3657 138.092 62.3254C143.462 59.2851 149.774 57.6624 156.232 57.6624C160.517 57.6607 164.762 58.3744 168.722 59.7627C172.682 61.151 176.281 63.1867 179.313 65.7537C182.344 68.3206 184.75 71.3685 186.392 74.7233C188.034 78.078 188.88 81.674 188.882 85.3059V85.3313Z" fill="white"/>
<path d="M156.118 96.2535C162.836 96.2535 168.282 91.6385 168.282 85.9455C168.282 80.2525 162.836 75.6375 156.118 75.6375C149.4 75.6375 143.955 80.2525 143.955 85.9455C143.955 91.6385 149.4 96.2535 156.118 96.2535Z" fill="#FB793D" fill-opacity="0.7"/>
<path d="M173.771 109.489C168.528 112.314 162.442 113.815 156.229 113.814C150.015 113.813 143.93 112.311 138.687 109.484C139.777 106.255 142.079 103.413 145.245 101.391C148.41 99.3687 152.267 98.2749 156.231 98.2754C160.195 98.2759 164.052 99.3705 167.216 101.394C170.381 103.417 172.682 106.258 173.771 109.489Z" fill="#FB793D" fill-opacity="0.7"/>
<path d="M156.231 204.552C164.452 204.552 171.116 198.904 171.116 191.938C171.116 184.972 164.452 179.324 156.231 179.324C148.011 179.324 141.347 184.972 141.347 191.938C141.347 198.904 148.011 204.552 156.231 204.552Z" fill="#FB793D" fill-opacity="0.7"/>
<path d="M386.52 290H0.480149C0.352805 290 0.230678 289.957 0.140632 289.881C0.050587 289.804 0 289.701 0 289.593C0 289.485 0.050587 289.382 0.140632 289.305C0.230678 289.229 0.352805 289.186 0.480149 289.186H386.52C386.647 289.186 386.769 289.229 386.859 289.305C386.949 289.382 387 289.485 387 289.593C387 289.701 386.949 289.804 386.859 289.881C386.769 289.957 386.647 290 386.52 290Z" fill="#CBCBCB"/>
</g>
<defs>
<clipPath id="clip0_486_7428">
<rect width="387" height="290" fill="white"/>
</clipPath>
</defs>
</svg>
