<svg width="358" height="258" viewBox="0 0 358 258" fill="none" xmlns="http://www.w3.org/2000/svg">
<g clip-path="url(#clip0_561_4100)">
<path d="M128.415 148.406C140.684 125.093 164.086 107.192 188.86 108.916C170.586 130.382 159.93 158.139 158.778 187.275C158.371 198.513 159.002 211.058 152.094 219.473C147.796 224.71 141.226 227.245 134.767 227.777C128.307 228.309 121.849 227.049 115.475 225.793L113.929 226.306C113.341 199.497 116.146 171.719 128.415 148.406Z" fill="#FB793D" fill-opacity="0.6"/>
<path d="M188.897 109.478C170.577 119.004 154.956 134.915 145.367 154.319C143.293 158.514 141.528 162.965 140.758 167.67C139.988 172.378 140.526 176.859 142.015 181.331C143.376 185.418 145.206 189.43 145.623 193.803C146.063 198.414 144.493 202.724 141.666 206.146C138.207 210.331 133.563 212.925 128.939 215.291C123.805 217.919 118.434 220.559 114.798 225.463C114.357 226.057 113.53 225.283 113.97 224.69C120.296 216.16 131.125 214.556 138.634 207.684C142.138 204.478 144.769 200.111 144.603 194.995C144.458 190.521 142.574 186.383 141.163 182.257C139.681 177.924 138.942 173.568 139.474 168.949C140.017 164.224 141.625 159.69 143.59 155.456C148.021 145.907 154.085 137.141 161.032 129.563C169.016 120.852 178.32 113.681 188.543 108.359C189.176 108.03 189.526 109.151 188.897 109.478Z" fill="white"/>
<path d="M148.176 147.834C145.367 145.616 143.38 142.391 142.569 138.737C141.758 135.082 142.177 131.235 143.749 127.882C144.07 127.205 145.059 127.711 144.738 128.389C143.268 131.508 142.879 135.092 143.64 138.493C144.402 141.895 146.264 144.891 148.89 146.939C149.461 147.385 148.743 148.278 148.176 147.834Z" fill="white"/>
<path d="M141.072 179.356C148.109 178.246 154.501 174.31 158.972 168.335C159.414 167.743 160.242 168.516 159.8 169.108C155.137 175.316 148.478 179.397 141.152 180.535C140.454 180.643 140.378 179.464 141.072 179.356V179.356Z" fill="white"/>
<path d="M169.556 122.306C170.477 123.409 171.638 124.248 172.933 124.746C174.228 125.245 175.618 125.389 176.977 125.164C177.674 125.047 177.749 126.226 177.057 126.343C175.554 126.584 174.02 126.423 172.588 125.875C171.155 125.328 169.869 124.409 168.841 123.201C168.736 123.096 168.671 122.951 168.66 122.796C168.65 122.641 168.694 122.488 168.785 122.367C168.88 122.249 169.014 122.177 169.159 122.165C169.303 122.154 169.446 122.205 169.556 122.306Z" fill="white"/>
<path d="M238.153 182.461C237.719 182.548 237.286 182.634 236.849 182.73C231.032 183.929 225.315 185.636 219.754 187.835C219.321 187.998 218.885 188.169 218.458 188.345C205.112 193.797 192.819 201.878 182.204 212.177C177.984 216.28 174.058 220.723 170.462 225.469C165.496 232.024 160.593 239.557 154.104 243.831C153.431 244.285 152.733 244.694 152.014 245.055L114.628 228.304C114.561 228.219 114.49 228.144 114.422 228.06L112.901 227.465C113.071 227.206 113.252 226.942 113.421 226.683C113.519 226.532 113.625 226.386 113.723 226.235C113.791 226.136 113.859 226.037 113.915 225.943C113.938 225.91 113.961 225.877 113.98 225.853C114.036 225.759 114.097 225.679 114.149 225.594C115.158 224.113 116.178 222.637 117.209 221.166C117.213 221.157 117.213 221.157 117.225 221.151C125.109 209.965 133.928 199.391 143.952 190.6C144.254 190.335 144.558 190.061 144.877 189.805C149.416 185.869 154.245 182.34 159.316 179.254C162.097 177.574 164.956 176.047 167.881 174.679C175.444 171.161 183.472 168.949 191.671 168.125C208.017 166.485 224.666 170.511 237.202 181.603C237.523 181.887 237.836 182.168 238.153 182.461Z" fill="#FB793D" fill-opacity="0.6"/>
<path d="M237.872 182.936C217.934 178.628 196.594 181.172 178.122 190.429C174.129 192.43 170.239 194.835 167.001 198.092C163.762 201.35 161.694 205.278 160.391 209.816C159.199 213.965 158.425 218.358 156.32 222.121C154.102 226.089 150.445 228.509 146.281 229.402C141.187 230.495 136.033 229.546 131.022 228.428C125.459 227.186 119.698 225.802 114.062 227.352C113.379 227.54 113.15 226.384 113.831 226.197C123.637 223.5 133.177 229.262 143.003 228.659C147.588 228.378 152.122 226.603 154.842 222.409C157.219 218.743 158.021 214.213 159.195 210.001C160.426 205.578 162.264 201.62 165.263 198.277C168.33 194.858 172.141 192.283 176.07 190.181C184.93 185.438 194.658 182.383 204.428 180.85C215.658 179.088 227.084 179.413 238.212 181.812C238.901 181.961 238.556 183.084 237.872 182.936V182.936Z" fill="white"/>
<path d="M183.979 187.078C182.973 183.48 183.184 179.613 184.574 176.168C185.963 172.722 188.442 169.922 191.566 168.268C192.199 167.936 192.707 168.983 192.073 169.316C189.161 170.851 186.853 173.459 185.565 176.67C184.277 179.881 184.094 183.484 185.049 186.828C185.256 187.555 184.185 187.8 183.979 187.078Z" fill="white"/>
<path d="M160.738 207.626C166.977 211.316 174.273 212.331 181.173 210.468C181.856 210.283 182.087 211.438 181.404 211.623C174.22 213.548 166.629 212.475 160.145 208.62C159.528 208.252 160.124 207.26 160.738 207.626Z" fill="white"/>
<path d="M215.279 180.6C215.4 182.08 215.859 183.504 216.615 184.745C217.371 185.985 218.401 187.004 219.611 187.708C220.233 188.068 219.636 189.058 219.018 188.702C217.684 187.916 216.548 186.79 215.71 185.421C214.872 184.053 214.357 182.483 214.21 180.85C214.184 180.697 214.213 180.539 214.291 180.409C214.368 180.278 214.489 180.185 214.629 180.147C214.771 180.115 214.918 180.145 215.04 180.229C215.162 180.314 215.248 180.447 215.279 180.6Z" fill="white"/>
<path d="M166.935 210.097C161.699 182.75 155.154 173.633 155.154 173.633L152.654 171.538L149.647 169.015L149.661 168.691L148.948 168.429L148.781 168.289L148.506 168.061L148.462 168.112L148.369 168.216L134.763 163.221L117.501 156.887L109.508 145.664C108.206 143.836 106.53 142.359 104.612 141.348C102.693 140.337 100.583 139.82 98.4484 139.837L72.9207 140.041C69.4691 140.068 66.1518 141.49 63.6211 144.025L46.8422 160.837L20.6974 174.326L20.6532 174.278L20.3787 174.49L16.3391 176.576L16.5058 177.514L14.0055 179.462C14.0055 179.462 7.46072 187.946 2.22488 213.392C0.892941 219.867 0.237312 233.756 0.000665027 250.87C-0.0112217 251.736 0.136347 252.596 0.434786 253.399C0.733226 254.203 1.17658 254.935 1.73908 255.551C2.30158 256.168 2.97199 256.658 3.71134 256.993C4.4507 257.327 5.24423 257.5 6.04581 257.5H145.691V257.5H163.12C163.921 257.5 164.714 257.327 165.453 256.993C166.192 256.659 166.862 256.17 167.424 255.554C167.987 254.937 168.43 254.207 168.729 253.404C169.028 252.601 169.176 251.742 169.165 250.877C168.934 232.254 168.279 217.118 166.935 210.097Z" fill="#3F3D56"/>
<path d="M184.852 24.3486C179.419 24.3486 174.208 26.68 170.367 30.8299C166.525 34.9797 164.367 40.6082 164.367 46.477C164.367 52.3458 166.525 57.9742 170.367 62.1241C174.208 66.2739 179.419 68.6053 184.852 68.6053H337.515C342.948 68.6053 348.158 66.2739 352 62.1241C355.842 57.9742 358 52.3458 358 46.477C358 40.6082 355.842 34.9797 352 30.8299C348.158 26.68 342.948 24.3486 337.515 24.3486H184.852Z" fill="#E5E5E5"/>
<path d="M184.852 28.827C180.518 28.827 176.362 30.6865 173.298 33.9965C170.234 37.3065 168.512 41.7959 168.512 46.477C168.512 51.158 170.234 55.6474 173.298 58.9574C176.362 62.2674 180.518 64.1269 184.852 64.1269H337.515C341.848 64.1269 346.004 62.2674 349.068 58.9574C352.133 55.6474 353.854 51.158 353.854 46.477C353.854 41.7959 352.133 37.3065 349.068 33.9965C346.004 30.6865 341.848 28.827 337.515 28.827H184.852Z" fill="white"/>
<path d="M89.6935 129.477C108.164 129.477 123.137 113.303 123.137 93.3508C123.137 73.3987 108.164 57.2244 89.6935 57.2244C71.223 57.2244 56.2498 73.3987 56.2498 93.3508C56.2498 113.303 71.223 129.477 89.6935 129.477Z" fill="#9E616A"/>
<path d="M81.1379 127.708C80.995 127.368 80.8525 127.027 80.7104 126.685C80.7652 126.687 80.8194 126.696 80.8742 126.697L81.1379 127.708Z" fill="#2F2E41"/>
<path d="M55.3197 58.8672C57.0112 57.4097 58.9881 56.0685 61.1508 56.1439C63.3134 56.2192 65.5064 58.3291 65.0584 60.6158C69.0306 53.0183 75.3533 47.175 82.9166 44.1115C90.4799 41.048 98.8004 40.96 106.418 43.8631C111.793 45.9115 117.064 50.0097 118.298 56.0204C118.615 57.5633 118.683 59.2552 119.575 60.5081C120.7 62.0878 122.851 62.4452 124.623 61.8894C124.641 61.8839 124.658 61.8783 124.676 61.8726C124.975 61.7622 125.298 61.7513 125.603 61.8414C125.908 61.9315 126.181 62.1184 126.387 62.3779C126.593 62.6374 126.722 62.9577 126.757 63.2971C126.792 63.6366 126.732 63.9797 126.585 64.2821L125.064 67.346C126.982 67.8076 128.974 67.7619 130.871 67.2126C131.186 67.1233 131.519 67.1416 131.824 67.2648C132.129 67.388 132.392 67.6103 132.575 67.901C132.759 68.1917 132.855 68.5367 132.85 68.8886C132.845 69.2405 132.739 69.5821 132.547 69.8666C127.533 77.3039 119.154 82.1066 110.605 82.0501C104.528 82.0101 98.3891 79.7478 92.4752 81.2573C90.1873 81.8413 88.0495 82.9711 86.2186 84.5639C84.3877 86.1568 82.9102 88.1722 81.8944 90.4623C80.8787 92.7525 80.3504 95.2592 80.3485 97.7986C80.3465 100.338 80.8709 102.846 81.8832 105.138C80.0664 102.991 76.5544 103.499 74.696 105.604C72.8376 107.709 72.3565 110.85 72.5438 113.751C72.8301 118.189 74.4397 122.371 76.1366 126.44C61.91 125.957 48.4539 115.176 43.9246 100.596C39.3763 85.9542 44.1431 68.4983 55.3197 58.8672Z" fill="#2F2E41"/>
<path opacity="0.2" d="M32.9174 201.841L42.2976 256.971L47.9259 257.5L32.9174 201.841Z" fill="black"/>
<path opacity="0.2" d="M136.242 197.683L126.862 256.931L121.234 257.5L136.242 197.683Z" fill="black"/>
<path d="M63.3202 40.3134C61.5217 41.1247 59.645 40.2356 58.858 38.1996C58.0589 36.1324 58.8052 34.034 60.6326 33.2097C62.4601 32.3854 64.3033 33.2766 65.1153 35.3771C65.9151 37.4461 65.1769 39.476 63.3202 40.3134ZM59.875 29.1409L58.445 29.7859C58.0877 29.9451 57.6882 29.9537 57.3253 29.81C56.9625 29.6662 56.6629 29.3806 56.4856 29.0096L56.4149 28.8602C54.8762 25.8626 54.7 22.2195 55.894 18.0377C57.0001 14.2864 57.4596 11.6481 56.5356 9.258C55.4674 6.49458 53.1864 5.62893 50.2775 6.88292C49.1493 7.3918 48.7903 7.38369 47.9025 8.33508C47.7093 8.54454 47.4791 8.70986 47.2256 8.82115C46.9721 8.93245 46.7004 8.98745 46.4267 8.98288C46.1622 8.97952 45.901 8.91864 45.6587 8.80388C45.4164 8.68912 45.198 8.52283 45.0165 8.31493C44.6668 7.91427 44.4709 7.3852 44.4683 6.83455C44.4657 6.2839 44.6567 5.75272 45.0026 5.34826C46.4949 3.66081 48.2948 2.32582 50.2888 1.42753C56.5386 -1.39154 59.6849 2.77042 61.1246 6.49498C62.5329 10.138 61.7407 13.5182 60.4679 17.8958C59.4013 21.5333 59.4634 24.2287 60.675 26.9087C60.7625 27.1113 60.8112 27.3309 60.8181 27.5544C60.825 27.7778 60.7901 28.0005 60.7154 28.2089C60.6407 28.4174 60.5277 28.6074 60.3833 28.7676C60.2389 28.9277 60.066 29.0547 59.875 29.1409L59.875 29.1409Z" fill="#FB793D" fill-opacity="0.6"/>
<path d="M218.573 57.0307H188.199C188.102 57.0314 188.007 57.0115 187.917 56.9721C187.828 56.9327 187.747 56.8746 187.678 56.8011C187.61 56.7277 187.555 56.6403 187.518 56.5441C187.481 56.4478 187.462 56.3446 187.462 56.2404C187.462 56.1361 187.481 56.0329 187.518 55.9367C187.555 55.8405 187.61 55.7531 187.678 55.6797C187.747 55.6062 187.828 55.5481 187.917 55.5087C188.007 55.4693 188.102 55.4494 188.199 55.4501H218.573C218.766 55.4515 218.951 55.5354 219.087 55.6834C219.223 55.8315 219.3 56.0317 219.3 56.2404C219.3 56.4491 219.223 56.6493 219.087 56.7973C218.951 56.9454 218.766 57.0293 218.573 57.0307Z" fill="#FB793D" fill-opacity="0.6"/>
<path d="M257.105 57.2941H226.73C226.634 57.2948 226.538 57.2749 226.449 57.2355C226.359 57.1961 226.278 57.1379 226.21 57.0645C226.141 56.991 226.087 56.9037 226.05 56.8074C226.013 56.7112 225.994 56.608 225.994 56.5038C225.994 56.3995 226.013 56.2963 226.05 56.2001C226.087 56.1038 226.141 56.0165 226.21 55.943C226.278 55.8696 226.359 55.8115 226.449 55.7721C226.538 55.7327 226.634 55.7127 226.73 55.7135H257.105C257.201 55.7127 257.297 55.7327 257.386 55.7721C257.475 55.8115 257.557 55.8696 257.625 55.943C257.694 56.0165 257.748 56.1038 257.785 56.2001C257.822 56.2963 257.841 56.3995 257.841 56.5038C257.841 56.608 257.822 56.7112 257.785 56.8074C257.748 56.9037 257.694 56.991 257.625 57.0645C257.557 57.1379 257.475 57.1961 257.386 57.2355C257.297 57.2749 257.201 57.2948 257.105 57.2941Z" fill="#FB793D" fill-opacity="0.6"/>
<path d="M295.636 57.5575H265.262C265.069 57.5561 264.884 57.4722 264.748 57.3242C264.612 57.1761 264.535 56.9759 264.535 56.7672C264.535 56.5586 264.612 56.3584 264.748 56.2103C264.884 56.0622 265.069 55.9784 265.262 55.9769H295.636C295.733 55.9762 295.828 55.9962 295.918 56.0356C296.007 56.075 296.088 56.1331 296.157 56.2065C296.225 56.28 296.279 56.3673 296.317 56.4636C296.354 56.5598 296.373 56.663 296.373 56.7672C296.373 56.8715 296.354 56.9747 296.317 57.0709C296.279 57.1672 296.225 57.2545 296.157 57.328C296.088 57.4014 296.007 57.4595 295.918 57.4989C295.828 57.5383 295.733 57.5583 295.636 57.5575H295.636Z" fill="#FB793D" fill-opacity="0.6"/>
<path d="M334.168 57.821H303.794C303.6 57.8195 303.416 57.7356 303.279 57.5876C303.143 57.4395 303.067 57.2393 303.067 57.0306C303.067 56.822 303.143 56.6218 303.279 56.4737C303.416 56.3257 303.6 56.2418 303.794 56.2404H334.168C334.361 56.2418 334.546 56.3257 334.682 56.4737C334.818 56.6218 334.894 56.822 334.894 57.0306C334.894 57.2393 334.818 57.4395 334.682 57.5876C334.546 57.7356 334.361 57.8195 334.168 57.821Z" fill="#FB793D" fill-opacity="0.6"/>
<path d="M203.319 49.7575C206.437 49.7575 208.964 47.0272 208.964 43.6593C208.964 40.2914 206.437 37.5612 203.319 37.5612C200.201 37.5612 197.674 40.2914 197.674 43.6593C197.674 47.0272 200.201 49.7575 203.319 49.7575Z" fill="#FB793D" fill-opacity="0.6"/>
<path d="M242.083 49.7575C245.201 49.7575 247.729 47.0272 247.729 43.6593C247.729 40.2914 245.201 37.5612 242.083 37.5612C238.966 37.5612 236.438 40.2914 236.438 43.6593C236.438 47.0272 238.966 49.7575 242.083 49.7575Z" fill="#FB793D" fill-opacity="0.6"/>
<path d="M280.848 49.7575C283.965 49.7575 286.493 47.0272 286.493 43.6593C286.493 40.2914 283.965 37.5612 280.848 37.5612C277.73 37.5612 275.202 40.2914 275.202 43.6593C275.202 47.0272 277.73 49.7575 280.848 49.7575Z" fill="#FB793D" fill-opacity="0.6"/>
<path d="M319.612 49.7575C322.73 49.7575 325.257 47.0272 325.257 43.6593C325.257 40.2914 322.73 37.5612 319.612 37.5612C316.494 37.5612 313.967 40.2914 313.967 43.6593C313.967 47.0272 316.494 49.7575 319.612 49.7575Z" fill="#FB793D" fill-opacity="0.6"/>
</g>
<defs>
<clipPath id="clip0_561_4100">
<rect width="358" height="257" fill="white" transform="translate(0 0.5)"/>
</clipPath>
</defs>
</svg>
