<svg width="346" height="301" viewBox="0 0 346 301" fill="none" xmlns="http://www.w3.org/2000/svg">
<g clip-path="url(#clip0_1232_20472)">
<path d="M169.894 170.558C169.828 170.558 169.787 170.557 169.772 170.556L161.861 170.557V169.496H169.801C169.984 169.502 173.735 169.598 177.191 165.784C182.341 160.1 186.57 146.028 177.472 111.272C165.238 64.5366 175.441 23.2487 180.396 7.66667C180.64 6.89576 180.684 6.08378 180.523 5.29489C180.363 4.50599 180.004 3.76179 179.473 3.12109C178.942 2.48039 178.255 1.96074 177.465 1.60321C176.675 1.24568 175.805 1.06006 174.923 1.06101H56.7733C55.875 1.06211 54.9897 1.25583 54.1892 1.62647C53.3886 1.9971 52.6954 2.53421 52.1659 3.19417C50.067 5.82028 47.1867 10.8653 45.3843 19.9874L44.2363 19.7999C46.0777 10.4795 49.0518 5.28614 51.2224 2.57042C51.8603 1.77519 52.6954 1.12799 53.6599 0.681379C54.6243 0.234767 55.691 0.00132138 56.7733 2.88702e-06H174.923C175.986 -0.000927371 177.035 0.222966 177.986 0.653994C178.938 1.08502 179.766 1.71138 180.405 2.48357C181.045 3.25576 181.478 4.15264 181.671 5.10334C181.864 6.05404 181.811 7.03251 181.517 7.96146C176.588 23.4626 166.437 64.5363 178.607 111.026C187.832 146.272 183.397 160.648 178.052 166.502C174.526 170.363 170.642 170.558 169.894 170.558Z" fill="#E6E6E6"/>
<path d="M148.605 189.922C148.539 189.922 148.498 189.92 148.483 189.919L140.572 189.92V188.859H148.512C148.696 188.864 152.446 188.962 155.902 185.148C161.052 179.463 165.281 165.392 156.183 130.635C143.949 83.9 154.152 42.6121 159.107 27.0301C159.351 26.2592 159.395 25.4472 159.234 24.6583C159.074 23.8694 158.715 23.1252 158.184 22.4845C157.653 21.8438 156.966 21.3241 156.176 20.9666C155.386 20.6091 154.516 20.4235 153.634 20.4244H35.4843C34.586 20.4255 33.7007 20.6192 32.9002 20.9899C32.0996 21.3605 31.4065 21.8976 30.8769 22.5576C28.778 25.1837 25.8977 30.2287 24.0954 39.3508L22.9473 39.1633C24.7888 29.8429 27.7628 24.6495 29.9334 21.9338C30.5713 21.1386 31.4064 20.4914 32.3709 20.0448C33.3353 19.5982 34.402 19.3647 35.4843 19.3634H153.634C154.697 19.3625 155.746 19.5864 156.697 20.0174C157.648 20.4484 158.477 21.0748 159.116 21.847C159.756 22.6192 160.189 23.516 160.382 24.4667C160.575 25.4174 160.522 26.3959 160.228 27.3249C155.299 42.826 145.148 83.8997 157.317 130.39C166.543 165.635 162.108 180.011 156.763 185.865C153.237 189.726 149.353 189.922 148.605 189.922Z" fill="#CCCCCC"/>
<path d="M127.318 209.285C127.252 209.285 127.21 209.284 127.196 209.283L10.8667 209.284C9.74667 209.285 8.64343 209.036 7.65348 208.56C6.66353 208.084 5.81703 207.394 5.18808 206.551C4.55913 205.708 4.16689 204.738 4.04568 203.725C3.92447 202.712 4.078 201.688 4.49281 200.741C8.71361 191.15 14.3967 168.137 5.03611 121.782C-6.01711 67.044 3.87846 47.2618 8.64598 41.2972C9.28391 40.502 10.119 39.8548 11.0835 39.4082C12.048 38.9616 13.1147 38.7281 14.197 38.7268H132.347C133.41 38.7259 134.458 38.9498 135.41 39.3808C136.361 39.8118 137.189 40.4382 137.829 41.2104C138.468 41.9826 138.902 42.8794 139.094 43.8301C139.287 44.7808 139.235 45.7593 138.94 46.6883C134.011 62.1895 123.861 103.263 136.03 149.753C145.256 184.998 140.821 199.375 135.476 205.229C131.95 209.09 128.065 209.285 127.318 209.285ZM14.197 39.7878C13.2987 39.7889 12.4134 39.9826 11.6128 40.3533C10.8123 40.7239 10.1191 41.261 9.58947 41.921C4.91038 47.7749 -4.78826 67.2564 6.18335 121.59C15.1255 165.873 10.7886 189.29 5.57569 201.136C5.22436 201.917 5.09249 202.766 5.19198 203.606C5.29146 204.445 5.61918 205.249 6.14555 205.944C6.66747 206.647 7.37085 207.221 8.19399 207.619C9.01712 208.016 9.93484 208.223 10.8666 208.223H127.224C127.408 208.231 131.159 208.325 134.614 204.511C139.764 198.827 143.993 184.755 134.895 149.999C122.662 103.263 132.865 61.9755 137.82 46.3935C138.064 45.6226 138.107 44.8106 137.947 44.0217C137.787 43.2328 137.427 42.4886 136.896 41.8479C136.366 41.2072 135.678 40.6876 134.889 40.33C134.099 39.9725 133.229 39.7869 132.347 39.7878H14.197Z" fill="#3F3D56"/>
<path d="M112.251 86.4722H19.5155C18.278 86.4722 17.0913 86.025 16.2162 85.2291C15.3412 84.4332 14.8496 83.3537 14.8496 82.2281C14.8496 81.1026 15.3412 80.0231 16.2162 79.2272C17.0913 78.4313 18.278 77.9841 19.5155 77.9841H112.251C113.488 77.9841 114.675 78.4313 115.55 79.2272C116.425 80.0231 116.917 81.1026 116.917 82.2281C116.917 83.3537 116.425 84.4332 115.55 85.2291C114.675 86.025 113.488 86.4722 112.251 86.4722Z" fill="#4E7E95"/>
<path d="M112.251 104.509H19.5155C18.278 104.509 17.0913 104.062 16.2162 103.266C15.3412 102.47 14.8496 101.391 14.8496 100.265C14.8496 99.1397 15.3412 98.0602 16.2162 97.2643C17.0913 96.4684 18.278 96.0213 19.5155 96.0213H112.251C113.488 96.0213 114.675 96.4684 115.55 97.2643C116.425 98.0602 116.917 99.1397 116.917 100.265C116.917 101.391 116.425 102.47 115.55 103.266C114.675 104.062 113.488 104.509 112.251 104.509Z" fill="#CCCCCC"/>
<path d="M112.251 122.546H19.5155C18.278 122.546 17.0913 122.099 16.2162 121.303C15.3412 120.508 14.8496 119.428 14.8496 118.302C14.8496 117.177 15.3412 116.097 16.2162 115.301C17.0913 114.506 18.278 114.058 19.5155 114.058H112.251C113.488 114.058 114.675 114.506 115.55 115.301C116.425 116.097 116.917 117.177 116.917 118.302C116.917 119.428 116.425 120.508 115.55 121.303C114.675 122.099 113.488 122.546 112.251 122.546Z" fill="#CCCCCC"/>
<path d="M119.251 140.584H26.5155C25.278 140.584 24.0913 140.136 23.2162 139.341C22.3412 138.545 21.8496 137.465 21.8496 136.34C21.8496 135.214 22.3412 134.135 23.2162 133.339C24.0913 132.543 25.278 132.096 26.5155 132.096H119.251C120.488 132.096 121.675 132.543 122.55 133.339C123.425 134.135 123.917 135.214 123.917 136.34C123.917 137.465 123.425 138.545 122.55 139.341C121.675 140.136 120.488 140.584 119.251 140.584Z" fill="#CCCCCC"/>
<path d="M119.251 158.621H26.5155C25.278 158.621 24.0913 158.174 23.2162 157.378C22.3412 156.582 21.8496 155.502 21.8496 154.377C21.8496 153.251 22.3412 152.172 23.2162 151.376C24.0913 150.58 25.278 150.133 26.5155 150.133H119.251C120.488 150.133 121.675 150.58 122.55 151.376C123.425 152.172 123.917 153.251 123.917 154.377C123.917 155.502 123.425 156.582 122.55 157.378C121.675 158.174 120.488 158.621 119.251 158.621Z" fill="#CCCCCC"/>
<path d="M63.2585 68.435H19.5155C18.278 68.435 17.0913 67.9879 16.2162 67.192C15.3412 66.3961 14.8496 65.3166 14.8496 64.191C14.8496 63.0654 15.3412 61.9859 16.2162 61.19C17.0913 60.3941 18.278 59.947 19.5155 59.947H63.2585C64.496 59.947 65.6828 60.3941 66.5578 61.19C67.4329 61.9859 67.9244 63.0654 67.9244 64.191C67.9244 65.3166 67.4329 66.3961 66.5578 67.192C65.6828 67.9879 64.496 68.435 63.2585 68.435Z" fill="#4E7E95"/>
<path d="M57.6105 187.704C58.552 184.078 62.9752 182.889 66.5915 183.022C68.8762 183.163 71.1426 183.489 73.3634 183.997C75.6871 184.47 77.9882 185.03 80.2777 185.624C84.4761 186.713 88.6312 188.03 92.8988 188.881C96.4516 189.59 100.312 190.006 103.856 189.027C107.261 188.087 110.151 185.777 111.077 182.584C111.951 179.576 110.752 176.286 107.546 174.911C104.623 173.657 100.931 174.295 99.4821 177.13C97.8486 180.327 99.4807 183.814 102.067 186.128C103.537 187.383 105.148 188.496 106.872 189.447C108.622 190.532 110.57 191.326 112.625 191.791C115.999 192.446 120.018 191.481 121.758 188.548C122.145 187.885 122.378 187.156 122.442 186.407C122.545 185.387 120.794 185.394 120.692 186.407C120.397 189.326 116.638 190.694 113.827 190.373C111.929 190.088 110.117 189.448 108.505 188.495C106.948 187.669 105.473 186.723 104.096 185.666C101.712 183.789 99.4773 180.701 101.079 177.772C102.382 175.387 105.781 175.411 107.849 176.949C110.352 178.811 109.906 182.192 108.255 184.403C106.426 186.852 103.112 187.879 99.9877 187.99C96.5927 188.11 93.226 187.401 89.9813 186.563C85.9496 185.522 81.958 184.356 77.9069 183.376C75.6071 182.82 73.2895 182.317 70.9482 181.926C68.7343 181.483 66.4603 181.339 64.2003 181.501C60.5493 181.885 56.8224 183.818 55.9234 187.281C55.6648 188.277 57.3514 188.702 57.6105 187.704Z" fill="#3F3D56"/>
<path d="M236.374 277.687C236.474 288.133 237.316 298.562 238.892 308.91C238.947 309.273 239.007 309.637 239.063 310L346.613 309.453C346.929 309.093 347.24 308.727 347.541 308.358C348.545 307.135 349.486 305.877 350.35 304.575C354.503 298.306 356.404 290.966 354.499 285.902L354.465 285.824C354.053 284.715 353.405 283.691 352.558 282.81C348.214 278.363 339.433 279.104 331.463 282.694C338.611 275.577 344.303 266.597 344.735 258.581C345.159 250.762 340.665 245.177 335.79 240.43C335.63 240.273 335.47 240.121 335.31 239.968C335.232 239.89 335.15 239.816 335.072 239.737C331.269 236.12 326.834 232.554 320.416 232.985C313.377 233.459 305.572 238.822 300.1 245.072C294.628 251.317 290.991 258.412 287.305 265.336C283.614 272.255 279.621 279.351 273.699 285.266C281.721 276.037 288.188 265.537 290.577 255.325C292.966 245.113 290.863 235.304 283.714 230.495C281.544 229.08 279.033 228.158 276.39 227.807C276.082 227.76 275.769 227.722 275.45 227.689C268.833 227.004 260.931 229.086 254.208 234.062C246.804 239.542 241.671 247.665 239.117 255.376C236.563 263.087 236.291 270.511 236.374 277.687Z" fill="#FB793D" fill-opacity="0.69"/>
<path d="M306.74 309.656L308.797 309.646C309.45 309.274 310.106 308.907 310.765 308.545C311.173 308.31 311.586 308.085 311.999 307.855C318.821 304.065 325.685 300.43 332.592 296.95C339.493 293.467 346.428 290.144 353.398 286.981C353.583 286.908 353.734 286.779 353.824 286.615C353.915 286.451 353.939 286.264 353.894 286.085C353.886 286.062 353.875 286.04 353.859 286.02C353.762 285.854 353.545 285.785 353.228 285.926C352.373 286.316 351.513 286.706 350.658 287.105C343.669 290.321 336.71 293.698 329.781 297.236C322.856 300.772 315.971 304.464 309.126 308.312C308.982 308.392 308.838 308.476 308.694 308.555C308.041 308.922 307.393 309.289 306.74 309.656Z" fill="white"/>
<path d="M280.223 309.791L281.494 309.784C281.781 309.419 282.063 309.054 282.35 308.689C289.089 300.093 295.827 291.498 302.563 282.902C313.594 268.83 324.622 254.757 335.647 240.685C335.712 240.609 335.761 240.523 335.79 240.43C335.884 240.119 335.632 239.936 335.31 239.968C335.174 239.986 335.044 240.03 334.928 240.097C334.812 240.164 334.713 240.253 334.638 240.357C328.453 248.249 322.27 256.138 316.088 264.024C305.115 278.026 294.142 292.026 283.172 306.025C282.474 306.914 281.776 307.807 281.078 308.695C280.791 309.061 280.505 309.426 280.223 309.791Z" fill="white"/>
<path d="M251.89 303.073C251.955 305.023 252.097 306.941 252.282 308.842C252.318 309.205 252.354 309.569 252.39 309.932L253.724 309.925C253.684 309.562 253.643 309.199 253.607 308.835C253.325 306.089 253.125 303.313 253.098 300.46C253.062 292.553 253.91 284.662 255.626 276.91C257.452 268.564 260.072 260.377 263.458 252.444C267.012 244.077 271.297 235.982 276.272 228.237C276.366 228.111 276.407 227.958 276.39 227.807C276.335 227.461 275.828 227.358 275.45 227.689C275.375 227.754 275.311 227.828 275.258 227.909C274.643 228.872 274.039 229.837 273.446 230.806C268.654 238.593 264.553 246.716 261.181 255.097C257.97 263.057 255.527 271.255 253.88 279.601C252.338 287.343 251.671 295.208 251.89 303.073Z" fill="white"/>
<path d="M121.9 188.081C121.679 187.913 121.517 187.69 121.435 187.439C121.353 187.188 121.355 186.921 121.44 186.67C121.525 186.42 121.689 186.199 121.913 186.033C122.136 185.868 122.408 185.767 122.694 185.742C125.876 185.462 129.086 185.762 132.139 186.622L163.234 195.357C163.637 195.47 164.011 195.654 164.335 195.899C164.66 196.144 164.928 196.444 165.124 196.783C165.321 197.121 165.443 197.492 165.482 197.874C165.521 198.255 165.477 198.64 165.353 199.006C165.228 199.372 165.026 199.712 164.757 200.007C164.488 200.302 164.158 200.546 163.786 200.725C163.413 200.904 163.006 201.015 162.586 201.05C162.167 201.086 161.744 201.046 161.341 200.933L130.246 192.198C127.191 191.343 124.354 189.943 121.9 188.081Z" fill="#3F3D56"/>
<path d="M249.364 224.367C248.52 224.045 247.763 223.558 247.148 222.941C246.532 222.324 246.073 221.592 245.802 220.796C245.531 220 245.456 219.16 245.581 218.334C245.706 217.509 246.028 216.719 246.525 216.019L241.195 190.665L254.78 189.702L255.6 214.501C256.837 215.339 257.693 216.56 258.007 217.933C258.32 219.307 258.069 220.737 257.3 221.953C256.531 223.169 255.299 224.087 253.836 224.532C252.374 224.977 250.783 224.918 249.364 224.367Z" fill="#FFB8B8"/>
<path d="M240.358 211.282L226.522 152.671C225.954 150.263 226.461 147.749 227.93 145.682C229.4 143.614 231.712 142.162 234.359 141.645C237.006 141.128 239.77 141.589 242.043 142.926C244.316 144.263 245.912 146.366 246.481 148.773L260.317 207.384C260.462 208.003 260.332 208.649 259.954 209.181C259.576 209.712 258.982 210.086 258.302 210.22L243.476 213.115C243.139 213.181 242.791 213.186 242.452 213.13C242.112 213.073 241.789 212.956 241.499 212.786C241.21 212.616 240.96 212.395 240.764 212.137C240.569 211.879 240.431 211.589 240.358 211.282Z" fill="#4E7E95"/>
<path d="M217.648 303.482H210.498L207.096 278.396L217.649 278.396L217.648 303.482Z" fill="#FFB8B8"/>
<path d="M241.56 302.952H234.41L231.008 277.865L241.562 277.866L241.56 302.952Z" fill="#FFB8B8"/>
<path d="M209.081 298.803C208.812 298.603 208.591 298.356 208.429 298.077C208.267 297.798 208.168 297.492 208.138 297.178L199.825 214.006C199.793 213.683 199.833 213.358 199.944 213.05C200.055 212.742 200.233 212.457 200.468 212.214C200.704 211.97 200.991 211.773 201.313 211.634C201.635 211.495 201.985 211.417 202.341 211.404L244.031 209.982C244.391 209.97 244.751 210.026 245.087 210.146C245.423 210.266 245.728 210.447 245.984 210.679C246.239 210.912 246.439 211.189 246.571 211.495C246.703 211.8 246.765 212.127 246.752 212.456L243.419 295.308C243.395 295.888 243.139 296.44 242.7 296.861C242.262 297.283 241.669 297.544 241.034 297.598L232.628 298.293C232.279 298.322 231.928 298.287 231.594 298.191C231.261 298.094 230.952 297.938 230.686 297.731C230.42 297.524 230.202 297.271 230.045 296.987C229.888 296.702 229.795 296.392 229.772 296.074L225.914 243.439C225.911 243.338 225.886 243.239 225.841 243.146C225.795 243.054 225.73 242.971 225.649 242.902C225.568 242.833 225.472 242.779 225.368 242.744C225.263 242.709 225.152 242.693 225.041 242.697H225.038C224.926 242.693 224.815 242.709 224.711 242.745C224.606 242.781 224.511 242.835 224.429 242.905C224.348 242.974 224.283 243.058 224.238 243.151C224.193 243.244 224.169 243.344 224.167 243.446L220.715 296.435C220.68 297.003 220.424 297.54 219.991 297.95C219.558 298.36 218.978 298.615 218.356 298.669L211.013 299.338C210.668 299.37 210.319 299.339 209.987 299.247C209.656 299.156 209.347 299.004 209.081 298.803Z" fill="#2F2E41"/>
<path d="M225.118 129.19C233.029 129.19 239.443 123.357 239.443 116.161C239.443 108.964 233.029 103.131 225.118 103.131C217.206 103.131 210.793 108.964 210.793 116.161C210.793 123.357 217.206 129.19 225.118 129.19Z" fill="#FFB8B8"/>
<path d="M197.531 214.569C197.276 214.306 197.089 213.994 196.982 213.656C196.876 213.319 196.854 212.964 196.917 212.618C199.562 197.996 198.071 176.504 196.355 161.049C195.907 156.949 196.654 152.815 198.522 149.061C200.39 145.308 203.312 142.068 206.994 139.669L214.475 133.836C214.972 133.453 215.607 133.249 216.258 133.262L234.844 133.745C235.514 133.762 236.151 134.012 236.625 134.444L239.497 140.229L239.526 140.249C242.949 142.537 245.694 145.561 247.517 149.05C249.341 152.539 250.185 156.385 249.975 160.243L247.239 211.669C247.204 212.267 246.925 212.831 246.456 213.251C245.987 213.671 245.362 213.917 244.704 213.939L199.592 215.381C199.563 215.382 199.534 215.382 199.505 215.382C199.131 215.383 198.762 215.31 198.421 215.17C198.081 215.03 197.777 214.825 197.531 214.569Z" fill="#4E7E95"/>
<path d="M143.42 193.11C143.397 192.277 143.576 191.45 143.943 190.686C144.31 189.923 144.857 189.242 145.544 188.692C146.232 188.141 147.044 187.735 147.923 187.501C148.802 187.266 149.727 187.211 150.632 187.337L173.883 172.536L180.409 183.416L155.868 194.247C155.535 195.616 154.66 196.827 153.411 197.649C152.161 198.471 150.624 198.848 149.089 198.708C147.555 198.567 146.13 197.92 145.085 196.889C144.04 195.857 143.448 194.512 143.42 193.11Z" fill="#FFB8B8"/>
<path d="M162.987 195.683C162.646 195.636 162.319 195.528 162.024 195.365C161.729 195.203 161.473 194.989 161.269 194.736L152.297 183.616C151.886 183.105 151.714 182.467 151.819 181.842C151.925 181.216 152.299 180.654 152.859 180.279L205.989 144.807C208.172 143.351 210.901 142.742 213.577 143.115C214.901 143.3 216.173 143.72 217.32 144.352C218.466 144.984 219.464 145.816 220.257 146.798C221.05 147.781 221.623 148.897 221.942 150.081C222.261 151.265 222.321 152.495 222.118 153.7C221.914 154.905 221.452 156.062 220.757 157.104C220.063 158.147 219.149 159.055 218.068 159.776L164.938 195.247C164.49 195.548 163.948 195.71 163.391 195.711C163.256 195.71 163.121 195.701 162.987 195.683Z" fill="#4E7E95"/>
<path d="M225.85 127.76C227.75 125.641 227.542 122.414 226.017 120.058C224.492 117.702 221.904 116.079 219.241 114.812C216.578 113.544 213.748 112.548 211.242 111.038C208.736 109.529 208.845 103.141 208.178 100.475L209.769 100.957C209.158 100.245 208.961 98.1418 208.35 97.43C210.148 97.5916 211.531 99.1448 213.33 99.3065L212.292 96.7726C218.459 96.4267 222.294 100.325 228.461 99.979C231.517 99.8077 234.835 99.6992 237.347 101.291C239.53 102.674 240.635 105.068 241.36 107.397C242.917 112.396 243.159 117.995 240.47 122.58C237.781 127.164 231.584 130.253 226.169 128.597L225.85 127.76Z" fill="#2F2E41"/>
</g>
<defs>
<clipPath id="clip0_1232_20472">
<rect width="370" height="310" fill="white"/>
</clipPath>
</defs>
</svg>
