<svg width="400" height="288" viewBox="0 0 400 288" fill="none" xmlns="http://www.w3.org/2000/svg">
<g clip-path="url(#clip0_257_3356)">
<path d="M364.105 262.914C356.437 270.442 347.65 276.943 338.005 282.224C337.784 282.348 337.559 282.466 337.333 282.587L321.718 269.912C321.882 269.773 322.063 269.616 322.259 269.443C333.894 259.312 391.655 188.473 395.504 171.223C395.238 172.66 398.977 229.019 364.105 262.914Z" fill="#F0F0F0"/>
<path d="M341.018 284.67C340.723 284.734 340.422 284.795 340.121 284.85L328.406 275.341C328.635 275.268 328.903 275.181 329.209 275.084C334.235 273.452 349.205 268.525 364.104 262.913C380.112 256.88 396.043 250.064 399.469 245.698C398.734 246.712 376.094 277.477 341.018 284.67Z" fill="#F0F0F0"/>
<path d="M363.888 75.4264H362.22V33.5147C362.22 30.3292 361.536 27.1749 360.206 24.2318C358.877 21.2888 356.928 18.6147 354.472 16.3622C352.016 14.1096 349.1 12.3229 345.891 11.1038C342.682 9.88476 339.242 9.25732 335.768 9.25732H238.941C235.467 9.25732 232.028 9.88474 228.819 11.1038C225.609 12.3228 222.693 14.1096 220.237 16.3621C217.781 18.6146 215.832 21.2887 214.503 24.2317C213.174 27.1748 212.49 30.3291 212.49 33.5146V263.446C212.49 266.631 213.174 269.786 214.503 272.729C215.832 275.672 217.781 278.346 220.237 280.598C222.693 282.851 225.609 284.637 228.818 285.857C232.028 287.076 235.467 287.703 238.941 287.703H335.768C339.242 287.703 342.681 287.076 345.891 285.857C349.1 284.638 352.016 282.851 354.472 280.598C356.928 278.346 358.877 275.672 360.206 272.729C361.535 269.786 362.22 266.631 362.22 263.446V105.26H363.888V75.4264Z" fill="black"/>
<path d="M356.589 33.6812V263.278C356.589 265.656 356.078 268.012 355.085 270.21C354.092 272.408 352.637 274.405 350.802 276.087C348.967 277.768 346.789 279.102 344.392 280.012C341.996 280.922 339.427 281.39 336.832 281.389H239.539C236.946 281.389 234.377 280.921 231.981 280.011C229.585 279.101 227.408 277.766 225.574 276.085C223.74 274.403 222.285 272.406 221.292 270.209C220.3 268.011 219.789 265.656 219.789 263.278V33.6812C219.789 31.3028 220.3 28.9475 221.292 26.7501C222.285 24.5526 223.74 22.556 225.574 20.8741C227.408 19.1923 229.585 17.8582 231.981 16.9481C234.377 16.038 236.946 15.5696 239.539 15.5698H251.346C250.767 16.8767 250.546 18.2941 250.704 19.6975C250.862 21.1009 251.393 22.4471 252.252 23.6179C253.11 24.7887 254.269 25.7481 255.627 26.4118C256.984 27.0754 258.499 27.423 260.037 27.424H315.507C317.046 27.4253 318.562 27.0792 319.921 26.4161C321.28 25.7531 322.44 24.7935 323.299 23.6221C324.158 22.4506 324.69 21.1033 324.846 19.699C325.003 18.2947 324.781 16.8766 324.199 15.5698H336.832C339.427 15.569 341.996 16.0368 344.392 16.9466C346.789 17.8564 348.967 19.1903 350.802 20.8722C352.637 22.5541 354.092 24.551 355.085 26.7488C356.078 28.9466 356.589 31.3023 356.589 33.6812Z" fill="white"/>
<path d="M326.325 152.992H240.807C239.309 152.99 237.873 152.444 236.814 151.473C235.754 150.501 235.159 149.184 235.157 147.811V145.232C235.159 143.858 235.754 142.541 236.814 141.57C237.873 140.599 239.309 140.052 240.807 140.051H326.325C327.822 140.052 329.259 140.599 330.318 141.57C331.377 142.541 331.973 143.858 331.974 145.232V147.811C331.973 149.184 331.377 150.501 330.318 151.473C329.259 152.444 327.822 152.99 326.325 152.992Z" fill="#F0F0F0"/>
<path d="M326.325 175.222H240.807C239.309 175.221 237.873 174.674 236.814 173.703C235.754 172.732 235.159 171.415 235.157 170.041V167.462C235.159 166.089 235.754 164.772 236.814 163.8C237.873 162.829 239.309 162.283 240.807 162.281H326.325C327.822 162.283 329.259 162.829 330.318 163.8C331.377 164.772 331.973 166.089 331.974 167.462V170.041C331.973 171.415 331.377 172.732 330.318 173.703C329.259 174.674 327.822 175.221 326.325 175.222Z" fill="#F0F0F0"/>
<path d="M330.602 148.02H245.085C243.512 148.018 242.004 147.444 240.892 146.425C239.78 145.405 239.154 144.022 239.152 142.58V140.001C239.154 138.558 239.78 137.176 240.892 136.156C242.004 135.136 243.512 134.562 245.085 134.561H330.602C332.175 134.562 333.683 135.136 334.795 136.156C335.907 137.176 336.533 138.558 336.535 140.001V142.58C336.533 144.022 335.907 145.405 334.795 146.425C333.683 147.444 332.175 148.018 330.602 148.02ZM245.085 135.597C243.811 135.598 242.591 136.062 241.69 136.888C240.79 137.714 240.284 138.833 240.282 140.001V142.58C240.284 143.747 240.79 144.867 241.69 145.692C242.591 146.518 243.811 146.982 245.085 146.984H330.602C331.876 146.982 333.096 146.518 333.997 145.692C334.897 144.867 335.403 143.747 335.405 142.58V140.001C335.403 138.833 334.897 137.714 333.997 136.888C333.096 136.062 331.876 135.598 330.602 135.597H245.085Z" fill="#D9D9D9"/>
<path d="M330.602 170.251H245.085C243.512 170.249 242.004 169.675 240.892 168.656C239.78 167.636 239.154 166.253 239.152 164.811V162.232C239.154 160.789 239.78 159.407 240.892 158.387C242.004 157.367 243.512 156.793 245.085 156.792H330.602C332.175 156.793 333.683 157.367 334.795 158.387C335.907 159.407 336.533 160.789 336.535 162.232V164.811C336.533 166.253 335.907 167.636 334.795 168.656C333.683 169.675 332.175 170.249 330.602 170.251ZM245.085 157.828C243.811 157.829 242.591 158.293 241.69 159.119C240.79 159.945 240.284 161.064 240.282 162.232V164.811C240.284 165.978 240.79 167.098 241.69 167.923C242.591 168.749 243.811 169.213 245.085 169.214H330.602C331.876 169.213 333.096 168.749 333.997 167.923C334.897 167.098 335.403 165.978 335.405 164.811V162.232C335.403 161.064 334.897 159.945 333.997 159.119C333.096 158.293 331.876 157.829 330.602 157.828H245.085Z" fill="#D9D9D9"/>
<path d="M356.589 33.6812V83.6216C347.936 85.7093 338.876 85.9488 330.106 84.3218C321.336 82.6947 313.09 79.2444 306.003 74.2363C298.915 69.2282 293.175 62.7959 289.223 55.4341C285.272 48.0723 283.214 39.9774 283.209 31.772C283.209 30.3074 283.273 28.8581 283.402 27.424H315.507C317.046 27.4253 318.562 27.0792 319.921 26.4161C321.28 25.7531 322.44 24.7935 323.299 23.6221C324.158 22.4506 324.69 21.1033 324.846 19.699C325.003 18.2947 324.781 16.8766 324.199 15.5698H336.832C339.427 15.569 341.996 16.0368 344.392 16.9466C346.789 17.8564 348.967 19.1903 350.802 20.8722C352.637 22.5541 354.092 24.551 355.085 26.7488C356.078 28.9466 356.589 31.3023 356.589 33.6812Z" fill="#F0F0F0"/>
<path d="M268.95 278.27C268.95 279.323 268.907 280.362 268.814 281.389H239.539C236.946 281.389 234.377 280.921 231.981 280.011C229.585 279.1 227.408 277.766 225.574 276.085C223.74 274.403 222.285 272.406 221.292 270.209C220.3 268.011 219.789 265.656 219.789 263.278V238.719C225.926 237.987 232.162 238.463 238.082 240.115C244.002 241.767 249.47 244.558 254.122 248.3C258.774 252.043 262.502 256.651 265.059 261.819C267.616 266.987 268.942 272.595 268.95 278.27H268.95Z" fill="#FB793D" fill-opacity="0.6"/>
<path d="M32.8369 235.179C33.6595 235.511 34.592 235.53 35.4299 235.232C36.2678 234.934 36.9426 234.344 37.3064 233.59L63.6789 178.777C64.2825 177.523 64.4669 176.133 64.2089 174.782C63.9508 173.432 63.2618 172.182 62.2291 171.19C61.1963 170.199 59.8662 169.511 58.4068 169.213C56.9475 168.915 55.4246 169.02 54.0306 169.516H54.0306C52.4201 170.08 51.0725 171.138 50.2169 172.511C50.0809 172.728 49.9574 172.951 49.8472 173.18L23.4747 227.993C23.295 228.367 23.1972 228.769 23.187 229.177C23.1769 229.585 23.2544 229.991 23.4154 230.372C23.5763 230.753 23.8174 231.101 24.125 231.396C24.4325 231.691 24.8004 231.928 25.2077 232.092L32.8369 235.179Z" fill="#FB793D" fill-opacity="0.6"/>
<path d="M62.5962 201.281L36.5105 195.964L42.967 180.301C44.0669 176.472 46.6266 173.132 50.1818 170.886C53.7371 168.64 58.0524 167.637 62.345 168.059L62.5963 168.085L62.5962 201.281Z" fill="white"/>
<path d="M115.285 235.963C114.518 235.962 113.768 235.757 113.125 235.373C112.482 234.989 111.974 234.442 111.663 233.799L85.2903 178.987C84.4516 177.243 84.3736 175.27 85.0725 173.475C85.7713 171.68 87.1937 170.199 89.0472 169.336C90.9006 168.473 93.0441 168.295 95.0366 168.837C97.0291 169.38 98.7191 170.602 99.7589 172.253V172.252C99.9051 172.486 100.038 172.726 100.156 172.972L126.528 227.784C126.952 228.665 126.977 229.663 126.597 230.56C126.218 231.456 125.466 232.178 124.506 232.567L116.619 235.758L116.615 235.75C116.188 235.891 115.739 235.963 115.285 235.963Z" fill="#FB793D" fill-opacity="0.6"/>
<path d="M78.8054 217.141C77.9066 217.142 77.045 217.47 76.4095 218.053C75.774 218.635 75.4165 219.426 75.4155 220.25V283.985C75.4165 284.809 75.774 285.599 76.4095 286.182C77.045 286.764 77.9066 287.092 78.8054 287.093H87.1441C88.0428 287.092 88.9044 286.764 89.5399 286.182C90.1754 285.599 90.5329 284.809 90.5339 283.985V220.25C90.5329 219.426 90.1754 218.635 89.5399 218.053C88.9044 217.47 88.0428 217.142 87.1441 217.141H78.8054Z" fill="#FB793D" fill-opacity="0.6"/>
<path d="M62.3124 217.141C61.4137 217.142 60.5521 217.47 59.9166 218.053C59.2811 218.635 58.9236 219.426 58.9226 220.25V283.985C58.9236 284.809 59.2811 285.599 59.9166 286.182C60.5521 286.764 61.4137 287.092 62.3124 287.093H70.6513C71.55 287.092 72.4116 286.764 73.0471 286.182C73.6826 285.599 74.0401 284.809 74.0411 283.985V220.25C74.0401 219.426 73.6826 218.635 73.0471 218.053C72.4116 217.47 71.55 217.142 70.6513 217.141H62.3124Z" fill="#FB793D" fill-opacity="0.6"/>
<path d="M74.4792 150.368C90.3925 150.368 103.293 138.537 103.293 123.944C103.293 109.351 90.3925 97.5205 74.4792 97.5205C58.5659 97.5205 45.6656 109.351 45.6656 123.944C45.6656 138.537 58.5659 150.368 74.4792 150.368Z" fill="#FB793D" fill-opacity="0.6"/>
<path d="M84.0678 135.036C85.9355 134.989 88.2601 134.929 90.0509 133.73C90.5841 133.358 91.0222 132.883 91.3345 132.34C91.6469 131.796 91.8258 131.197 91.8588 130.583C91.8912 130.147 91.8132 129.71 91.6308 129.306C91.4485 128.902 91.1668 128.543 90.8077 128.255C89.8724 127.53 88.5066 127.36 87.0348 127.757L88.5597 117.537L87.4403 117.396L85.6475 129.411L86.5823 129.018C87.6661 128.562 89.1539 128.33 90.0784 129.047C90.3054 129.234 90.4823 129.467 90.5952 129.727C90.7082 129.987 90.7542 130.268 90.7296 130.547C90.7022 131.003 90.5679 131.449 90.3357 131.854C90.1036 132.259 89.7791 132.613 89.3843 132.893C87.9907 133.826 86.1379 133.947 84.0364 134.001L84.0678 135.036Z" fill="black"/>
<path d="M100.182 118.418H94.0959V119.455H100.182V118.418Z" fill="black"/>
<path d="M80.9726 118.418H74.887V119.455H80.9726V118.418Z" fill="black"/>
<path d="M103.029 236.285L92.6585 166.859C92.5473 166.114 92.1458 165.432 91.5283 164.938C90.9109 164.444 90.1192 164.172 89.2999 164.172H81.4719C81.5046 164.001 81.5215 163.827 81.5227 163.654V161.063C81.5227 160.239 81.1655 159.448 80.5298 158.865C79.8941 158.282 79.0319 157.955 78.1329 157.955H71.3532C70.4542 157.955 69.592 158.282 68.9563 158.865C68.3205 159.448 67.9634 160.239 67.9634 161.063V163.654C67.9646 163.827 67.9815 164.001 68.0141 164.172H60.1862C59.3668 164.172 58.5752 164.444 57.9577 164.938C57.3403 165.432 56.9388 166.114 56.8275 166.859L46.4569 236.285C46.3912 236.725 46.429 237.173 46.5677 237.598C46.7063 238.023 46.9427 238.416 47.2609 238.751C47.5791 239.085 47.9717 239.353 48.4123 239.537C48.8529 239.721 49.3313 239.816 49.8153 239.816H99.6707C100.155 239.816 100.633 239.721 101.074 239.537C101.514 239.353 101.907 239.085 102.225 238.751C102.543 238.416 102.78 238.023 102.918 237.598C103.057 237.173 103.095 236.725 103.029 236.285Z" fill="white"/>
<path d="M86.89 201.281V168.085L87.1413 168.059C91.4392 167.638 95.7593 168.644 99.3168 170.896C102.874 173.147 105.433 176.494 106.529 180.328L112.976 195.965L86.89 201.281Z" fill="white"/>
<path d="M66.0996 87.0622C73.2921 86.3348 80.9071 88.3488 85.9941 93.0853L85.9562 93.3404L86.5555 93.568L86.7031 93.3377C91.1225 93.0779 95.7072 93.3515 99.5429 95.3356C102.485 96.8577 104.934 99.3867 105.616 102.377C105.923 103.743 105.839 105.158 105.371 106.486C104.904 107.814 104.069 109.013 102.941 109.964C101.719 110.944 100.164 111.519 98.5297 111.587L98.5297 111.587L98.523 111.588C96.9365 111.675 95.331 111.565 93.7052 111.455C93.0469 111.41 92.3853 111.365 91.7203 111.333L77.6497 110.649C77.5048 110.642 77.4288 110.59 77.3865 110.543C77.3381 110.489 77.3092 110.412 77.3091 110.331C77.309 110.25 77.3374 110.19 77.3703 110.157C77.3954 110.131 77.4552 110.086 77.6012 110.094L82.895 110.351L93.3435 110.858C93.7792 110.88 94.2416 110.914 94.7188 110.95C95.742 111.027 96.8329 111.108 97.8737 111.073C99.4242 111.021 100.988 110.712 102.296 109.701L102.296 109.701L102.304 109.695C103.25 108.932 103.997 107.977 104.483 106.901C104.968 105.825 105.178 104.66 105.096 103.495C104.923 100.943 103.257 98.7061 101.294 97.1571L101.288 97.1524L101.282 97.1479C98.9202 95.3982 96.0639 94.3115 93.0545 94.0126C91.4264 93.8237 89.7839 93.7606 88.1443 93.8239C87.6746 93.8385 87.2053 93.8596 86.7363 93.8872L86.6994 93.8894L86.6631 93.897C86.4212 93.9477 86.1693 93.9377 85.9349 93.8694C85.4999 93.55 85.1014 93.1923 84.7449 92.8016L84.7229 92.7775L84.698 92.7565C80.787 89.456 75.5167 87.7403 70.3026 87.5026C59.0137 86.9879 49.2319 93.4349 43.568 101.957L43.5679 101.957L43.5635 101.964C40.4245 106.858 38.3553 112.269 37.4737 117.894C36.9733 120.875 36.7027 123.884 36.6641 126.899C36.6601 127.123 36.6555 127.349 36.6508 127.577C36.5995 130.099 36.5438 132.836 37.1945 135.365C37.4894 136.711 38.1897 137.949 39.209 138.938L39.224 138.953L39.2402 138.966C40.3834 139.904 41.715 140.624 43.1578 141.087C45.3551 141.9 47.5715 142.68 49.7829 143.458C50.8342 143.828 51.8844 144.197 52.9309 144.569L72.8606 151.663C72.9893 151.709 73.0444 151.778 73.0709 151.836C73.1014 151.903 73.1073 151.988 73.083 152.07C73.0587 152.152 73.0129 152.202 72.9726 152.225C72.943 152.242 72.8774 152.267 72.7453 152.22L69.0741 150.913L54.6513 145.78L47.3088 143.166L47.2999 143.163L47.2909 143.16C45.0992 142.472 42.9546 141.664 40.8688 140.741C39.1406 139.937 37.7883 138.604 37.0403 136.987C36.3655 135.263 36.0251 133.445 36.0336 131.615L36.0337 131.602L36.033 131.588C35.82 127.316 36.023 123.035 36.6396 118.796C37.8223 110.961 40.8604 103.366 46.4161 97.2836C51.4007 91.8268 58.3279 87.8481 66.0996 87.0622Z" fill="#ABA7AF" stroke="white"/>
<path d="M41.6923 98.3719C39.9603 98.3719 38.2672 97.9009 36.8271 97.0185C35.387 96.1361 34.2646 94.8819 33.6018 93.4145C32.939 91.947 32.7656 90.3323 33.1034 88.7745C33.4413 87.2167 34.2754 85.7858 35.5001 84.6627C36.7248 83.5396 38.2851 82.7747 39.9838 82.4649C41.6825 82.155 43.4433 82.314 45.0434 82.9219C46.6436 83.5297 48.0112 84.559 48.9735 85.8796C49.9357 87.2003 50.4493 88.7529 50.4493 90.3412C50.4467 92.4704 49.5232 94.5116 47.8815 96.0172C46.2398 97.5227 44.014 98.3695 41.6923 98.3719ZM41.6923 83.8649C40.2955 83.8649 38.9301 84.2447 37.7687 84.9563C36.6074 85.668 35.7022 86.6794 35.1677 87.8628C34.6332 89.0463 34.4933 90.3484 34.7658 91.6047C35.0383 92.861 35.7109 94.015 36.6986 94.9207C37.6862 95.8265 38.9446 96.4433 40.3145 96.6932C41.6844 96.9431 43.1044 96.8148 44.3948 96.3246C45.6853 95.8344 46.7882 95.0044 47.5642 93.9393C48.3402 92.8743 48.7544 91.6221 48.7544 90.3412C48.7523 88.6242 48.0076 86.978 46.6836 85.7639C45.3597 84.5498 43.5646 83.8668 41.6923 83.8649Z" fill="white"/>
<path d="M188.079 148.139L169.125 134.845L154.628 152.227L173.582 165.521L188.079 148.139Z" fill="#F0F0F0"/>
<path d="M80.9578 29.4635C83.9526 29.4614 86.9063 30.1023 89.5824 31.3351C92.2586 32.5679 94.5827 34.3582 96.3688 36.5627L107.436 23.292L74.2281 0L48.8295 30.4539L63.1422 40.4927C64.5745 37.2351 67.0359 34.4445 70.2105 32.4792C73.385 30.514 77.1277 29.4638 80.9578 29.4635Z" fill="#FB793D" fill-opacity="0.6"/>
<path d="M399.435 288H0.564972C0.415132 288 0.271429 287.945 0.165476 287.848C0.0595232 287.751 0 287.619 0 287.482C0 287.345 0.0595232 287.213 0.165476 287.116C0.271429 287.018 0.415132 286.964 0.564972 286.964H399.435C399.585 286.964 399.729 287.018 399.835 287.116C399.94 287.213 400 287.345 400 287.482C400 287.619 399.94 287.751 399.835 287.848C399.729 287.945 399.585 288 399.435 288Z" fill="#D9D9D9"/>
<path d="M302.083 202.03H261.483C259.985 202.028 258.549 201.482 257.49 200.511C256.431 199.539 255.835 198.223 255.833 196.849V194.27C255.835 192.896 256.431 191.579 257.49 190.608C258.549 189.637 259.985 189.09 261.483 189.089H302.083C303.581 189.09 305.017 189.637 306.076 190.608C307.135 191.579 307.731 192.896 307.733 194.27V196.849C307.731 198.223 307.135 199.539 306.076 200.511C305.017 201.482 303.581 202.028 302.083 202.03Z" fill="#FB793D" fill-opacity="0.6"/>
<path d="M306.361 197.058H265.761C264.188 197.057 262.68 196.483 261.568 195.463C260.456 194.443 259.831 193.06 259.829 191.618V189.039C259.831 187.597 260.456 186.214 261.568 185.194C262.68 184.174 264.188 183.601 265.761 183.599H306.361C307.934 183.601 309.442 184.174 310.554 185.194C311.666 186.214 312.292 187.597 312.293 189.039V191.618C312.292 193.06 311.666 194.443 310.554 195.463C309.442 196.483 307.934 197.057 306.361 197.058ZM265.761 184.635C264.488 184.637 263.267 185.101 262.367 185.927C261.467 186.752 260.96 187.872 260.959 189.039V191.618C260.96 192.786 261.467 193.905 262.367 194.731C263.267 195.556 264.488 196.021 265.761 196.022H306.361C307.634 196.021 308.855 195.556 309.755 194.731C310.656 193.905 311.162 192.786 311.163 191.618V189.039C311.162 187.872 310.656 186.752 309.755 185.927C308.855 185.101 307.634 184.637 306.361 184.635H265.761Z" fill="#D9D9D9"/>
</g>
<defs>
<clipPath id="clip0_257_3356">
<rect width="400" height="288" fill="white"/>
</clipPath>
</defs>
</svg>
