<svg width="28" height="27" viewBox="0 0 28 27" fill="none" xmlns="http://www.w3.org/2000/svg">
<path d="M5.98818 2.30601L4.19364 0.460008C0 4.71491 0 7.79851 0 11.783H1.27273L2.54545 11.7011C2.54545 7.89471 2.54545 5.79781 5.98818 2.30601ZM23.8051 0.460008L22.0131 2.30601C25.4545 5.79781 25.4545 7.89471 25.4545 11.783L28 11.7011C28 7.79851 28 4.71491 23.8051 0.460008ZM14 26.083C14.7882 26.084 15.5571 25.8342 16.1999 25.3682C16.8427 24.9023 17.3273 24.2433 17.5865 23.483H10.4135C10.6727 24.2433 11.1573 24.9023 11.8001 25.3682C12.4429 25.8342 13.2118 26.084 14 26.083ZM22.9091 16.4448V10.483C22.9091 6.30091 20.1282 2.77791 16.3609 1.71841C15.988 0.759008 15.0767 0.0830078 14 0.0830078C12.9233 0.0830078 12.012 0.759008 11.6391 1.71841C7.87055 2.77791 5.09091 6.30091 5.09091 10.483V16.4448L2.91836 18.6639C2.79995 18.7844 2.70603 18.9277 2.64203 19.0854C2.57804 19.2431 2.54521 19.4123 2.54545 19.583V20.883C2.54545 21.2278 2.67954 21.5584 2.91823 21.8022C3.15691 22.046 3.48063 22.183 3.81818 22.183H24.1818C24.5194 22.183 24.8431 22.046 25.0818 21.8022C25.3205 21.5584 25.4545 21.2278 25.4545 20.883V19.583C25.4548 19.4123 25.422 19.2431 25.358 19.0854C25.294 18.9277 25.2001 18.7844 25.0816 18.6639L22.9091 16.4448Z" fill="black"/>
</svg>
