<svg width="27" height="20" viewBox="0 0 27 20" fill="none" xmlns="http://www.w3.org/2000/svg">
<path d="M26.6667 2.35294C25.7098 2.76471 24.6782 3.03529 23.6094 3.16471C24.7031 2.54118 25.5482 1.55294 25.9459 0.364706C24.9144 0.952941 23.771 1.36471 22.5654 1.6C21.5836 0.588235 20.204 0 18.6381 0C15.7174 0 13.3312 2.25882 13.3312 5.04706C13.3312 5.44706 13.3809 5.83529 13.4679 6.2C9.04342 5.98824 5.10365 3.97647 2.48128 0.929412C2.02143 1.67059 1.76044 2.54118 1.76044 3.45882C1.76044 5.21176 2.69256 6.76471 4.13424 7.64706C3.25183 7.64706 2.43157 7.41177 1.71073 7.05882V7.09412C1.71073 9.54118 3.55011 11.5882 5.98606 12.0471C5.20398 12.2497 4.38293 12.2778 3.5874 12.1294C3.92496 13.1323 4.58606 14.0099 5.47776 14.6387C6.36947 15.2676 7.44694 15.6161 8.55872 15.6353C6.67413 17.0476 4.33806 17.811 1.93443 17.8C1.51187 17.8 1.08931 17.7765 0.666748 17.7294C3.02812 19.1647 5.83692 20 8.84457 20C18.6381 20 24.0195 12.3059 24.0195 5.63529C24.0195 5.41176 24.0195 5.2 24.0071 4.97647C25.0511 4.27059 25.9459 3.37647 26.6667 2.35294Z" fill="white"/>
</svg>
