<svg width="21" height="20" viewBox="0 0 21 20" fill="none" xmlns="http://www.w3.org/2000/svg">
<path d="M0.333252 1.22735V18.7718C0.333379 18.8098 0.345605 18.847 0.368398 18.8786C0.391191 18.9103 0.423536 18.935 0.461377 18.9496C0.499218 18.9642 0.54087 18.9682 0.581111 18.9609C0.621352 18.9537 0.65839 18.9355 0.687581 18.9088L10.5256 10L0.687581 1.0903C0.65839 1.06357 0.621352 1.04545 0.581111 1.03819C0.54087 1.03093 0.499218 1.03487 0.461377 1.04951C0.423536 1.06414 0.391191 1.08883 0.368398 1.12047C0.345605 1.1521 0.333379 1.18929 0.333252 1.22735ZM14.6506 6.33933L2.31499 0.0287042L2.3073 0.0246863C2.0948 -0.0824551 1.89288 0.184506 2.06692 0.339861L11.7367 8.92546L14.6506 6.33933ZM2.06788 19.6601C1.89288 19.8155 2.0948 20.0825 2.30826 19.9753L2.31596 19.9713L14.6506 13.6607L11.7367 11.0736L2.06788 19.6601ZM19.6305 8.88394L16.1858 7.12236L12.9468 10L16.1858 12.8763L19.6305 11.1161C20.5675 10.6353 20.5675 9.36474 19.6305 8.88394Z" fill="white"/>
</svg>
