<svg width="19" height="19" viewBox="0 0 19 19" fill="none" xmlns="http://www.w3.org/2000/svg">
<path d="M18.9999 2.23456C18.3129 2.62574 17.5723 2.8828 16.8049 3.00574C17.5901 2.41339 18.1969 1.47456 18.4824 0.345738C17.7418 0.904562 16.9209 1.29574 16.0554 1.51927C15.3505 0.558091 14.36 -0.000732422 13.2357 -0.000732422C11.1389 -0.000732422 9.42567 2.14515 9.42567 4.79397C9.42567 5.17397 9.46136 5.5428 9.52382 5.88927C6.34727 5.68809 3.51872 3.77691 1.63599 0.882209C1.30585 1.58633 1.11847 2.41339 1.11847 3.28515C1.11847 4.95044 1.78768 6.42574 2.82274 7.26397C2.18921 7.26397 1.6003 7.04044 1.08277 6.70515V6.73868C1.08277 9.06338 2.40336 11.0081 4.15225 11.444C3.59075 11.6364 3.00128 11.6632 2.43013 11.5222C2.67248 12.475 3.14712 13.3087 3.78731 13.9061C4.42751 14.5035 5.20108 14.8346 5.99928 14.8528C4.64624 16.1945 2.96907 16.9197 1.24339 16.9093C0.940008 16.9093 0.63663 16.8869 0.333252 16.8422C2.0286 18.2057 4.04517 18.9993 6.20451 18.9993C13.2357 18.9993 17.0993 11.6899 17.0993 5.3528C17.0993 5.14044 17.0993 4.93927 17.0904 4.72691C17.8399 4.05633 18.4824 3.20691 18.9999 2.23456Z" fill="#1A141F"/>
</svg>
