<svg width="26" height="20" viewBox="0 0 26 20" fill="none" xmlns="http://www.w3.org/2000/svg">
<path d="M25.1393 3.12245C24.9971 2.51841 24.7185 1.96767 24.3315 1.52534C23.9445 1.08302 23.4626 0.764629 22.9341 0.602041C20.9878 1.82463e-07 13.1667 0 13.1667 0C13.1667 0 5.34574 1.82463e-07 3.39942 0.602041C2.87091 0.764629 2.38903 1.08302 2.00202 1.52534C1.61501 1.96767 1.33643 2.51841 1.19418 3.12245C0.830755 5.39109 0.654396 7.6937 0.66742 10C0.654396 12.3063 0.830755 14.6089 1.19418 16.8776C1.33643 17.4816 1.61501 18.0323 2.00202 18.4747C2.38903 18.917 2.87091 19.2354 3.39942 19.398C5.34574 20 13.1667 20 13.1667 20C13.1667 20 20.9878 20 22.9341 19.398C23.4626 19.2354 23.9445 18.917 24.3315 18.4747C24.7185 18.0323 24.9971 17.4816 25.1393 16.8776C25.5027 14.6089 25.6791 12.3063 25.6661 10C25.6791 7.6937 25.5027 5.39109 25.1393 3.12245ZM10.6669 14.2857V5.71429L17.1576 10L10.6669 14.2857Z" fill="white"/>
</svg>
