<svg width="30" height="31" viewBox="0 0 30 31" fill="none" xmlns="http://www.w3.org/2000/svg">
<path d="M18.0475 0.0830078C18.2803 0.0830151 18.5071 0.156896 18.6951 0.294011C18.8832 0.431125 19.023 0.624398 19.0942 0.845993L20.3035 4.60375C20.8114 4.85222 21.2974 5.13146 21.7613 5.44589L25.6224 4.61475C25.8501 4.56614 26.0873 4.59105 26.2999 4.68589C26.5125 4.78072 26.6895 4.94059 26.8054 5.14246L29.8529 10.4174C29.9693 10.6191 30.0186 10.8526 29.9937 11.0842C29.9688 11.3158 29.871 11.5335 29.7144 11.7059L27.0648 14.6303C27.1034 15.1911 27.1034 15.7538 27.0648 16.3146L29.7144 19.2434C29.871 19.4158 29.9688 19.6335 29.9937 19.8651C30.0186 20.0966 29.9693 20.3301 29.8529 20.5319L26.8054 25.809C26.6892 26.0105 26.512 26.1699 26.2994 26.2643C26.0869 26.3588 25.8498 26.3834 25.6224 26.3345L21.7613 25.5034C21.2996 25.8156 20.8114 26.0971 20.3057 26.3455L19.0942 30.1033C19.023 30.3249 18.8832 30.5182 18.6951 30.6553C18.5071 30.7924 18.2803 30.8663 18.0475 30.8663H11.9525C11.7197 30.8663 11.4929 30.7924 11.3049 30.6553C11.1168 30.5182 10.977 30.3249 10.9058 30.1033L9.69868 26.3477C9.19212 26.1 8.70352 25.8172 8.23647 25.5012L4.37757 26.3345C4.14992 26.3832 3.91271 26.3582 3.70012 26.2634C3.48753 26.1686 3.31053 26.0087 3.19461 25.8068L0.147069 20.5319C0.0306957 20.3301 -0.0185963 20.0966 0.00630011 19.8651C0.0311965 19.6335 0.128995 19.4158 0.285593 19.2434L2.93515 16.3146C2.89677 15.7553 2.89677 15.194 2.93515 14.6347L0.285593 11.7059C0.128995 11.5335 0.0311965 11.3158 0.00630011 11.0842C-0.0185963 10.8526 0.0306957 10.6191 0.147069 10.4174L3.19461 5.14026C3.31085 4.93879 3.48799 4.77938 3.70055 4.68495C3.91312 4.59052 4.15015 4.56594 4.37757 4.61475L8.23647 5.44809C8.70262 5.13366 9.19076 4.85002 9.69868 4.60155L10.908 0.845993C10.979 0.625111 11.1181 0.432351 11.3053 0.295302C11.4925 0.158254 11.7182 0.0839438 11.9503 0.0830078H18.0453H18.0475ZM17.2428 2.28181H12.7572L11.5083 6.1671L10.6662 6.57828C10.2522 6.78087 9.85251 7.01155 9.47 7.2687L8.69163 7.79642L4.6986 6.93449L2.45581 10.822L5.19333 13.8519L5.12736 14.7842C5.09577 15.244 5.09577 15.7053 5.12736 16.1651L5.19333 17.0974L2.45142 20.1273L4.6964 24.0148L8.68943 23.1551L9.46781 23.6806C9.85031 23.9377 10.25 24.1684 10.664 24.371L11.5061 24.7822L12.7572 28.6675H17.2472L18.5005 24.78L19.3404 24.371C19.754 24.1689 20.1529 23.9382 20.5344 23.6806L21.3106 23.1551L25.3058 24.0148L27.5486 20.1273L24.8089 17.0974L24.8748 16.1651C24.9065 15.7046 24.9065 15.2425 24.8748 14.782L24.8089 13.8497L27.5508 10.822L25.3058 6.93449L21.3106 7.79202L20.5344 7.2687C20.153 7.01104 19.754 6.78033 19.3404 6.57828L18.5005 6.1693L17.245 2.28181H17.2428ZM15 8.87823C16.7495 8.87823 18.4273 9.57321 19.6644 10.8103C20.9014 12.0473 21.5964 13.7252 21.5964 15.4746C21.5964 17.2241 20.9014 18.902 19.6644 20.139C18.4273 21.3761 16.7495 22.0711 15 22.0711C13.2505 22.0711 11.5727 21.3761 10.3356 20.139C9.09856 18.902 8.40358 17.2241 8.40358 15.4746C8.40358 13.7252 9.09856 12.0473 10.3356 10.8103C11.5727 9.57321 13.2505 8.87823 15 8.87823ZM15 11.077C13.8337 11.077 12.7151 11.5404 11.8904 12.3651C11.0657 13.1898 10.6024 14.3083 10.6024 15.4746C10.6024 16.641 11.0657 17.7595 11.8904 18.5842C12.7151 19.4089 13.8337 19.8723 15 19.8723C16.1663 19.8723 17.2849 19.4089 18.1096 18.5842C18.9343 17.7595 19.3976 16.641 19.3976 15.4746C19.3976 14.3083 18.9343 13.1898 18.1096 12.3651C17.2849 11.5404 16.1663 11.077 15 11.077Z" fill="#1A141F"/>
</svg>
