<svg width="29" height="28" viewBox="0 0 29 28" fill="none" xmlns="http://www.w3.org/2000/svg">
<path d="M14.5 0C6.63955 0 0 6.4106 0 14C0 21.5894 6.63955 28 14.5 28C22.3605 28 29 21.5894 29 14C29 6.4106 22.3605 0 14.5 0ZM14.5 7C17.0042 7 18.85 8.7808 18.85 11.2C18.85 13.6192 17.0042 15.4 14.5 15.4C11.9973 15.4 10.15 13.6192 10.15 11.2C10.15 8.7808 11.9973 7 14.5 7ZM7.0963 20.6808C8.39695 18.8328 10.5662 17.6008 13.05 17.6008H15.95C18.4353 17.6008 20.6031 18.8328 21.9037 20.6808C20.0506 22.596 17.4218 23.8 14.5 23.8C11.5782 23.8 8.9494 22.596 7.0963 20.6808Z" fill="black"/>
</svg>
